<?xml version="1.0" encoding="UTF-8" standalone="no"?>
<!DOCTYPE svg PUBLIC "-//W3C//DTD SVG 1.1//EN"
 "http://www.w3.org/Graphics/SVG/1.1/DTD/svg11.dtd">
<!-- Generated by graphviz version 9.0.0 (20230911.1827)
 -->
<!-- Pages: 1 -->
<svg width="62pt" height="131pt"
 viewBox="0.00 0.00 62.00 130.50" xmlns="http://www.w3.org/2000/svg" xmlns:xlink="http://www.w3.org/1999/xlink">
<g id="graph0" class="graph" transform="scale(1 1) rotate(0) translate(4 126.5)">
<polygon fill="white" stroke="none" points="-4,4 -4,-126.5 58,-126.5 58,4 -4,4"/>
<!-- S0 -->
<g id="node1" class="node">
<title>S0</title>
<polygon fill="lightgrey" stroke="black" points="54,-122.5 0,-122.5 0,-86.5 54,-86.5 54,-122.5"/>
<path fill="#d3d3d3" stroke="none" d="M24.21,-95.38C24.21,-95.38 29.79,-95.38 29.79,-95.38 32.58,-95.38 35.38,-98.17 35.38,-100.96 35.38,-100.96 35.38,-108.04 35.38,-108.04 35.38,-110.83 32.58,-113.62 29.79,-113.62 29.79,-113.62 24.21,-113.62 24.21,-113.62 21.42,-113.62 18.62,-110.83 18.62,-108.04 18.62,-108.04 18.62,-100.96 18.62,-100.96 18.62,-98.17 21.42,-95.38 24.21,-95.38"/>
<text text-anchor="start" x="20.62" y="-100.22" font-family="Times,serif" font-size="12.00">S0</text>
</g>
<!-- S1 -->
<g id="node2" class="node">
<title>S1</title>
<polygon fill="lightblue" stroke="black" points="54,-40 0,-40 0,0 54,0 54,-40"/>
<path fill="#add8e6" stroke="none" d="M24.21,-4C24.21,-4 29.79,-4 29.79,-4 32.58,-4 35.38,-6.79 35.38,-9.58 35.38,-9.58 35.38,-30.42 35.38,-30.42 35.38,-33.21 32.58,-36 29.79,-36 29.79,-36 24.21,-36 24.21,-36 21.42,-36 18.62,-33.21 18.62,-30.42 18.62,-30.42 18.62,-9.58 18.62,-9.58 18.62,-6.79 21.42,-4 24.21,-4"/>
<text text-anchor="start" x="20.62" y="-22.6" font-family="Times,serif" font-size="12.00">S1</text>
<text text-anchor="start" x="21.75" y="-8.15" font-family="Times,serif" font-size="8.00">init</text>
<polygon fill="black" stroke="black" points="18.62,-17.75 18.62,-17.75 35.38,-17.75 35.38,-17.75 18.62,-17.75"/>
</g>
<!-- S0&#45;&gt;S1 -->
<g id="edge1" class="edge">
<title>S0&#45;&gt;S1</title>
<path fill="none" stroke="black" d="M27,-86C27,-76.1 27,-63.44 27,-51.92"/>
<polygon fill="black" stroke="black" points="30.5,-52.01 27,-42.01 23.5,-52.01 30.5,-52.01"/>
<text text-anchor="middle" x="32.62" y="-59.95" font-family="Times,serif" font-size="9.00">init</text>
</g>
</g>
</svg>
