<?xml version="1.0" encoding="UTF-8" standalone="no"?>
<!DOCTYPE svg PUBLIC "-//W3C//DTD SVG 1.1//EN"
 "http://www.w3.org/Graphics/SVG/1.1/DTD/svg11.dtd">
<!-- Generated by graphviz version 9.0.0 (20230911.1827)
 -->
<!-- Pages: 1 -->
<svg width="232pt" height="563pt"
 viewBox="0.00 0.00 232.25 563.00" xmlns="http://www.w3.org/2000/svg" xmlns:xlink="http://www.w3.org/1999/xlink">
<g id="graph0" class="graph" transform="scale(1 1) rotate(0) translate(4 559)">
<polygon fill="white" stroke="none" points="-4,4 -4,-559 228.25,-559 228.25,4 -4,4"/>
<!-- S0 -->
<g id="node1" class="node">
<title>S0</title>
<polygon fill="lightgrey" stroke="black" points="119,-555 65,-555 65,-519 119,-519 119,-555"/>
<path fill="#d3d3d3" stroke="none" d="M89.21,-527.88C89.21,-527.88 94.79,-527.88 94.79,-527.88 97.58,-527.88 100.38,-530.67 100.38,-533.46 100.38,-533.46 100.38,-540.54 100.38,-540.54 100.38,-543.33 97.58,-546.12 94.79,-546.12 94.79,-546.12 89.21,-546.12 89.21,-546.12 86.42,-546.12 83.62,-543.33 83.62,-540.54 83.62,-540.54 83.62,-533.46 83.62,-533.46 83.62,-530.67 86.42,-527.88 89.21,-527.88"/>
<text text-anchor="start" x="85.62" y="-532.73" font-family="Times,serif" font-size="12.00">S0</text>
</g>
<!-- S1 -->
<g id="node2" class="node">
<title>S1</title>
<polygon fill="lightblue" stroke="black" points="119,-472.5 65,-472.5 65,-432.5 119,-432.5 119,-472.5"/>
<path fill="#add8e6" stroke="none" d="M89.21,-436.5C89.21,-436.5 94.79,-436.5 94.79,-436.5 97.58,-436.5 100.38,-439.29 100.38,-442.08 100.38,-442.08 100.38,-462.92 100.38,-462.92 100.38,-465.71 97.58,-468.5 94.79,-468.5 94.79,-468.5 89.21,-468.5 89.21,-468.5 86.42,-468.5 83.62,-465.71 83.62,-462.92 83.62,-462.92 83.62,-442.08 83.62,-442.08 83.62,-439.29 86.42,-436.5 89.21,-436.5"/>
<text text-anchor="start" x="85.62" y="-455.1" font-family="Times,serif" font-size="12.00">S1</text>
<text text-anchor="start" x="86.75" y="-440.65" font-family="Times,serif" font-size="8.00">init</text>
<polygon fill="black" stroke="black" points="83.62,-450.25 83.62,-450.25 100.38,-450.25 100.38,-450.25 83.62,-450.25"/>
</g>
<!-- S0&#45;&gt;S1 -->
<g id="edge1" class="edge">
<title>S0&#45;&gt;S1</title>
<path fill="none" stroke="black" d="M92,-518.5C92,-508.6 92,-495.94 92,-484.42"/>
<polygon fill="black" stroke="black" points="95.5,-484.51 92,-474.51 88.5,-484.51 95.5,-484.51"/>
<text text-anchor="middle" x="97.62" y="-492.45" font-family="Times,serif" font-size="9.00">init</text>
</g>
<!-- S2 -->
<g id="node3" class="node">
<title>S2</title>
<polygon fill="lightblue" stroke="black" points="82.88,-386 23.13,-386 23.13,-346 82.88,-346 82.88,-386"/>
<path fill="#add8e6" stroke="none" d="M41.79,-350C41.79,-350 64.21,-350 64.21,-350 69.54,-350 74.88,-355.33 74.88,-360.67 74.88,-360.67 74.88,-371.33 74.88,-371.33 74.88,-376.67 69.54,-382 64.21,-382 64.21,-382 41.79,-382 41.79,-382 36.46,-382 31.12,-376.67 31.12,-371.33 31.12,-371.33 31.12,-360.67 31.12,-360.67 31.12,-355.33 36.46,-350 41.79,-350"/>
<text text-anchor="start" x="46.62" y="-368.6" font-family="Times,serif" font-size="12.00">S2</text>
<text text-anchor="start" x="33.12" y="-354.15" font-family="Times,serif" font-size="8.00">t2, t1, init, a</text>
<polygon fill="black" stroke="black" points="31.12,-363.75 31.12,-363.75 74.88,-363.75 74.88,-363.75 31.12,-363.75"/>
</g>
<!-- S1&#45;&gt;S2 -->
<g id="edge2" class="edge">
<title>S1&#45;&gt;S2</title>
<path fill="none" stroke="black" d="M83.15,-432.33C78.3,-421.81 72.18,-408.55 66.72,-396.73"/>
<polygon fill="black" stroke="black" points="69.95,-395.38 62.58,-387.77 63.6,-398.31 69.95,-395.38"/>
<text text-anchor="middle" x="79.12" y="-405.95" font-family="Times,serif" font-size="9.00">a1</text>
</g>
<!-- S3 -->
<g id="node4" class="node">
<title>S3</title>
<polygon fill="lightblue" stroke="black" points="165.12,-386 100.88,-386 100.88,-346 165.12,-346 165.12,-386"/>
<path fill="#add8e6" stroke="none" d="M119.54,-350C119.54,-350 146.46,-350 146.46,-350 151.79,-350 157.12,-355.33 157.12,-360.67 157.12,-360.67 157.12,-371.33 157.12,-371.33 157.12,-376.67 151.79,-382 146.46,-382 146.46,-382 119.54,-382 119.54,-382 114.21,-382 108.88,-376.67 108.88,-371.33 108.88,-371.33 108.88,-360.67 108.88,-360.67 108.88,-355.33 114.21,-350 119.54,-350"/>
<text text-anchor="start" x="126.62" y="-368.6" font-family="Times,serif" font-size="12.00">S3</text>
<text text-anchor="start" x="110.88" y="-354.15" font-family="Times,serif" font-size="8.00">a&#39;, init, t2&#39;, t1&#39;</text>
<polygon fill="black" stroke="black" points="108.88,-363.75 108.88,-363.75 157.12,-363.75 157.12,-363.75 108.88,-363.75"/>
</g>
<!-- S1&#45;&gt;S3 -->
<g id="edge3" class="edge">
<title>S1&#45;&gt;S3</title>
<path fill="none" stroke="black" d="M101.3,-432.33C106.4,-421.81 112.84,-408.55 118.58,-396.73"/>
<polygon fill="black" stroke="black" points="121.71,-398.28 122.93,-387.75 115.42,-395.22 121.71,-398.28"/>
<text text-anchor="middle" x="119.88" y="-405.95" font-family="Times,serif" font-size="9.00">a1&#39;</text>
</g>
<!-- S4 -->
<g id="node5" class="node">
<title>S4</title>
<polygon fill="lightblue" stroke="black" points="150.25,-299.5 71.75,-299.5 71.75,-259.5 150.25,-259.5 150.25,-299.5"/>
<path fill="#add8e6" stroke="none" d="M90.42,-263.5C90.42,-263.5 131.58,-263.5 131.58,-263.5 136.92,-263.5 142.25,-268.83 142.25,-274.17 142.25,-274.17 142.25,-284.83 142.25,-284.83 142.25,-290.17 136.92,-295.5 131.58,-295.5 131.58,-295.5 90.42,-295.5 90.42,-295.5 85.08,-295.5 79.75,-290.17 79.75,-284.83 79.75,-284.83 79.75,-274.17 79.75,-274.17 79.75,-268.83 85.08,-263.5 90.42,-263.5"/>
<text text-anchor="start" x="104.62" y="-282.1" font-family="Times,serif" font-size="12.00">S4</text>
<text text-anchor="start" x="81.75" y="-267.65" font-family="Times,serif" font-size="8.00">a&#39;, t2&#39;, t2, t1, a, t1&#39;</text>
<polygon fill="black" stroke="black" points="79.75,-277.25 79.75,-277.25 142.25,-277.25 142.25,-277.25 79.75,-277.25"/>
</g>
<!-- S2&#45;&gt;S4 -->
<g id="edge4" class="edge">
<title>S2&#45;&gt;S4</title>
<path fill="none" stroke="black" d="M66.16,-345.83C73.6,-334.99 83.04,-321.23 91.34,-309.14"/>
<polygon fill="black" stroke="black" points="94.06,-311.36 96.83,-301.14 88.29,-307.4 94.06,-311.36"/>
<text text-anchor="middle" x="90.88" y="-319.45" font-family="Times,serif" font-size="9.00">a1&#39;</text>
</g>
<!-- S5 -->
<g id="node6" class="node">
<title>S5</title>
<polygon fill="lightblue" stroke="black" points="54,-299.5 0,-299.5 0,-259.5 54,-259.5 54,-299.5"/>
<path fill="#add8e6" stroke="none" d="M21.04,-263.5C21.04,-263.5 32.96,-263.5 32.96,-263.5 38.29,-263.5 43.62,-268.83 43.62,-274.17 43.62,-274.17 43.62,-284.83 43.62,-284.83 43.62,-290.17 38.29,-295.5 32.96,-295.5 32.96,-295.5 21.04,-295.5 21.04,-295.5 15.71,-295.5 10.38,-290.17 10.38,-284.83 10.38,-284.83 10.38,-274.17 10.38,-274.17 10.38,-268.83 15.71,-263.5 21.04,-263.5"/>
<text text-anchor="start" x="20.62" y="-282.1" font-family="Times,serif" font-size="12.00">S5</text>
<text text-anchor="start" x="12.38" y="-267.65" font-family="Times,serif" font-size="8.00">init, t1, b</text>
<polygon fill="black" stroke="black" points="10.38,-277.25 10.38,-277.25 43.62,-277.25 43.62,-277.25 10.38,-277.25"/>
</g>
<!-- S2&#45;&gt;S5 -->
<g id="edge5" class="edge">
<title>S2&#45;&gt;S5</title>
<path fill="none" stroke="black" d="M47.1,-345.83C43.9,-335.42 39.87,-322.32 36.26,-310.59"/>
<polygon fill="black" stroke="black" points="39.7,-309.87 33.41,-301.34 33.01,-311.92 39.7,-309.87"/>
<text text-anchor="middle" x="46.5" y="-319.45" font-family="Times,serif" font-size="9.00">b2</text>
</g>
<!-- S3&#45;&gt;S4 -->
<g id="edge6" class="edge">
<title>S3&#45;&gt;S4</title>
<path fill="none" stroke="black" d="M128.01,-345.83C125.33,-335.53 121.96,-322.59 118.93,-310.95"/>
<polygon fill="black" stroke="black" points="122.34,-310.15 116.43,-301.36 115.56,-311.91 122.34,-310.15"/>
<text text-anchor="middle" x="128.12" y="-319.45" font-family="Times,serif" font-size="9.00">a1</text>
</g>
<!-- S7 -->
<g id="node8" class="node">
<title>S7</title>
<polygon fill="lightblue" stroke="black" points="222,-299.5 168,-299.5 168,-259.5 222,-259.5 222,-299.5"/>
<path fill="#add8e6" stroke="none" d="M187.54,-263.5C187.54,-263.5 202.46,-263.5 202.46,-263.5 207.79,-263.5 213.12,-268.83 213.12,-274.17 213.12,-274.17 213.12,-284.83 213.12,-284.83 213.12,-290.17 207.79,-295.5 202.46,-295.5 202.46,-295.5 187.54,-295.5 187.54,-295.5 182.21,-295.5 176.88,-290.17 176.88,-284.83 176.88,-284.83 176.88,-274.17 176.88,-274.17 176.88,-268.83 182.21,-263.5 187.54,-263.5"/>
<text text-anchor="start" x="188.62" y="-282.1" font-family="Times,serif" font-size="12.00">S7</text>
<text text-anchor="start" x="178.88" y="-267.65" font-family="Times,serif" font-size="8.00">t1&#39;, init, b&#39;</text>
<polygon fill="black" stroke="black" points="176.88,-277.25 176.88,-277.25 213.12,-277.25 213.12,-277.25 176.88,-277.25"/>
</g>
<!-- S3&#45;&gt;S7 -->
<g id="edge7" class="edge">
<title>S3&#45;&gt;S7</title>
<path fill="none" stroke="black" d="M147.07,-345.83C155.02,-334.99 165.11,-321.23 173.98,-309.14"/>
<polygon fill="black" stroke="black" points="176.78,-311.24 179.88,-301.11 171.14,-307.1 176.78,-311.24"/>
<text text-anchor="middle" x="172.25" y="-319.45" font-family="Times,serif" font-size="9.00">b2&#39;</text>
</g>
<!-- S6 -->
<g id="node7" class="node">
<title>S6</title>
<polygon fill="lightgrey" stroke="black" points="140,-213 72,-213 72,-173 140,-173 140,-213"/>
<path fill="#d3d3d3" stroke="none" d="M90.67,-177C90.67,-177 121.33,-177 121.33,-177 126.67,-177 132,-182.33 132,-187.67 132,-187.67 132,-198.33 132,-198.33 132,-203.67 126.67,-209 121.33,-209 121.33,-209 90.67,-209 90.67,-209 85.33,-209 80,-203.67 80,-198.33 80,-198.33 80,-187.67 80,-187.67 80,-182.33 85.33,-177 90.67,-177"/>
<text text-anchor="start" x="99.62" y="-195.6" font-family="Times,serif" font-size="12.00">S6</text>
<text text-anchor="start" x="82" y="-181.15" font-family="Times,serif" font-size="8.00">a&#39;, t2&#39;, b, t1, t1&#39;</text>
<polygon fill="black" stroke="black" points="80,-190.75 80,-190.75 132,-190.75 132,-190.75 80,-190.75"/>
</g>
<!-- S4&#45;&gt;S6 -->
<g id="edge8" class="edge">
<title>S4&#45;&gt;S6</title>
<path fill="none" stroke="black" d="M109.87,-259.33C109.26,-249.13 108.51,-236.36 107.82,-224.82"/>
<polygon fill="black" stroke="black" points="111.32,-224.68 107.24,-214.9 104.33,-225.09 111.32,-224.68"/>
<text text-anchor="middle" x="113.5" y="-232.95" font-family="Times,serif" font-size="9.00">b2</text>
</g>
<!-- S8 -->
<g id="node9" class="node">
<title>S8</title>
<polygon fill="lightblue" stroke="black" points="224.25,-213 157.75,-213 157.75,-173 224.25,-173 224.25,-213"/>
<path fill="#add8e6" stroke="none" d="M176.42,-177C176.42,-177 205.58,-177 205.58,-177 210.92,-177 216.25,-182.33 216.25,-187.67 216.25,-187.67 216.25,-198.33 216.25,-198.33 216.25,-203.67 210.92,-209 205.58,-209 205.58,-209 176.42,-209 176.42,-209 171.08,-209 165.75,-203.67 165.75,-198.33 165.75,-198.33 165.75,-187.67 165.75,-187.67 165.75,-182.33 171.08,-177 176.42,-177"/>
<text text-anchor="start" x="184.62" y="-195.6" font-family="Times,serif" font-size="12.00">S8</text>
<text text-anchor="start" x="167.75" y="-181.15" font-family="Times,serif" font-size="8.00">t2, t1, a, t1&#39;, b&#39;</text>
<polygon fill="black" stroke="black" points="165.75,-190.75 165.75,-190.75 216.25,-190.75 216.25,-190.75 165.75,-190.75"/>
</g>
<!-- S4&#45;&gt;S8 -->
<g id="edge9" class="edge">
<title>S4&#45;&gt;S8</title>
<path fill="none" stroke="black" d="M129.15,-259.33C139.72,-248.17 153.21,-233.92 164.9,-221.57"/>
<polygon fill="black" stroke="black" points="167.27,-224.16 171.6,-214.49 162.18,-219.35 167.27,-224.16"/>
<text text-anchor="middle" x="160.25" y="-232.95" font-family="Times,serif" font-size="9.00">b2&#39;</text>
</g>
<!-- S5&#45;&gt;S6 -->
<g id="edge10" class="edge">
<title>S5&#45;&gt;S6</title>
<path fill="none" stroke="black" d="M44.93,-259.33C55.36,-248.17 68.68,-233.92 80.22,-221.57"/>
<polygon fill="black" stroke="black" points="82.56,-224.19 86.84,-214.5 77.45,-219.41 82.56,-224.19"/>
<text text-anchor="middle" x="76.88" y="-232.95" font-family="Times,serif" font-size="9.00">a1&#39;</text>
</g>
<!-- S10 -->
<g id="node11" class="node">
<title>S10</title>
<polygon fill="lightblue" stroke="black" points="54,-213 0,-213 0,-173 54,-173 54,-213"/>
<path fill="#add8e6" stroke="none" d="M21.04,-177C21.04,-177 32.96,-177 32.96,-177 38.29,-177 43.62,-182.33 43.62,-187.67 43.62,-187.67 43.62,-198.33 43.62,-198.33 43.62,-203.67 38.29,-209 32.96,-209 32.96,-209 21.04,-209 21.04,-209 15.71,-209 10.38,-203.67 10.38,-198.33 10.38,-198.33 10.38,-187.67 10.38,-187.67 10.38,-182.33 15.71,-177 21.04,-177"/>
<text text-anchor="start" x="17.62" y="-195.6" font-family="Times,serif" font-size="12.00">S10</text>
<text text-anchor="start" x="12.38" y="-181.15" font-family="Times,serif" font-size="8.00">t2, init, b</text>
<polygon fill="black" stroke="black" points="10.38,-190.75 10.38,-190.75 43.62,-190.75 43.62,-190.75 10.38,-190.75"/>
</g>
<!-- S5&#45;&gt;S10 -->
<g id="edge11" class="edge">
<title>S5&#45;&gt;S10</title>
<path fill="none" stroke="black" d="M27,-259.33C27,-249.13 27,-236.36 27,-224.82"/>
<polygon fill="black" stroke="black" points="30.5,-224.9 27,-214.9 23.5,-224.9 30.5,-224.9"/>
<text text-anchor="middle" x="31.5" y="-232.95" font-family="Times,serif" font-size="9.00">b1</text>
</g>
<!-- S9 -->
<g id="node10" class="node">
<title>S9</title>
<polygon fill="lightblue" stroke="black" points="161,-126.5 105,-126.5 105,-86.5 161,-86.5 161,-126.5"/>
<path fill="#add8e6" stroke="none" d="M123.67,-90.5C123.67,-90.5 142.33,-90.5 142.33,-90.5 147.67,-90.5 153,-95.83 153,-101.17 153,-101.17 153,-111.83 153,-111.83 153,-117.17 147.67,-122.5 142.33,-122.5 142.33,-122.5 123.67,-122.5 123.67,-122.5 118.33,-122.5 113,-117.17 113,-111.83 113,-111.83 113,-101.17 113,-101.17 113,-95.83 118.33,-90.5 123.67,-90.5"/>
<text text-anchor="start" x="126.62" y="-109.1" font-family="Times,serif" font-size="12.00">S9</text>
<text text-anchor="start" x="115" y="-94.65" font-family="Times,serif" font-size="8.00">t1&#39;, t1, b&#39;, b</text>
<polygon fill="black" stroke="black" points="113,-104.25 113,-104.25 153,-104.25 153,-104.25 113,-104.25"/>
</g>
<!-- S6&#45;&gt;S9 -->
<g id="edge12" class="edge">
<title>S6&#45;&gt;S9</title>
<path fill="none" stroke="black" d="M112.13,-172.83C115.45,-162.42 119.64,-149.32 123.39,-137.59"/>
<polygon fill="black" stroke="black" points="126.63,-138.92 126.34,-128.33 119.97,-136.79 126.63,-138.92"/>
<text text-anchor="middle" x="127.25" y="-146.45" font-family="Times,serif" font-size="9.00">b2&#39;</text>
</g>
<!-- S11 -->
<g id="node12" class="node">
<title>S11</title>
<polygon fill="lightgrey" stroke="black" points="87,-126.5 19,-126.5 19,-86.5 87,-86.5 87,-126.5"/>
<path fill="#d3d3d3" stroke="none" d="M37.67,-90.5C37.67,-90.5 68.33,-90.5 68.33,-90.5 73.67,-90.5 79,-95.83 79,-101.17 79,-101.17 79,-111.83 79,-111.83 79,-117.17 73.67,-122.5 68.33,-122.5 68.33,-122.5 37.67,-122.5 37.67,-122.5 32.33,-122.5 27,-117.17 27,-111.83 27,-111.83 27,-101.17 27,-101.17 27,-95.83 32.33,-90.5 37.67,-90.5"/>
<text text-anchor="start" x="43.62" y="-109.1" font-family="Times,serif" font-size="12.00">S11</text>
<text text-anchor="start" x="29" y="-94.65" font-family="Times,serif" font-size="8.00">a&#39;, t2&#39;, b, t2, t1&#39;</text>
<polygon fill="black" stroke="black" points="27,-104.25 27,-104.25 79,-104.25 79,-104.25 27,-104.25"/>
</g>
<!-- S6&#45;&gt;S11 -->
<g id="edge13" class="edge">
<title>S6&#45;&gt;S11</title>
<path fill="none" stroke="black" d="M93.97,-172.83C87.24,-162.1 78.72,-148.51 71.19,-136.5"/>
<polygon fill="black" stroke="black" points="74.25,-134.78 65.97,-128.17 68.32,-138.5 74.25,-134.78"/>
<text text-anchor="middle" x="87.5" y="-146.45" font-family="Times,serif" font-size="9.00">b1</text>
</g>
<!-- S7&#45;&gt;S8 -->
<g id="edge14" class="edge">
<title>S7&#45;&gt;S8</title>
<path fill="none" stroke="black" d="M194.09,-259.33C193.61,-249.13 193.01,-236.36 192.46,-224.82"/>
<polygon fill="black" stroke="black" points="195.96,-224.73 191.99,-214.9 188.97,-225.06 195.96,-224.73"/>
<text text-anchor="middle" x="197.12" y="-232.95" font-family="Times,serif" font-size="9.00">a1</text>
</g>
<!-- S8&#45;&gt;S9 -->
<g id="edge15" class="edge">
<title>S8&#45;&gt;S9</title>
<path fill="none" stroke="black" d="M177.84,-172.83C170.4,-161.99 160.96,-148.23 152.66,-136.14"/>
<polygon fill="black" stroke="black" points="155.71,-134.4 147.17,-128.14 149.94,-138.36 155.71,-134.4"/>
<text text-anchor="middle" x="169.5" y="-146.45" font-family="Times,serif" font-size="9.00">b2</text>
</g>
<!-- S12 -->
<g id="node13" class="node">
<title>S12</title>
<polygon fill="lightgrey" stroke="black" points="121,-40 65,-40 65,0 121,0 121,-40"/>
<path fill="#d3d3d3" stroke="none" d="M83.67,-4C83.67,-4 102.33,-4 102.33,-4 107.67,-4 113,-9.33 113,-14.67 113,-14.67 113,-25.33 113,-25.33 113,-30.67 107.67,-36 102.33,-36 102.33,-36 83.67,-36 83.67,-36 78.33,-36 73,-30.67 73,-25.33 73,-25.33 73,-14.67 73,-14.67 73,-9.33 78.33,-4 83.67,-4"/>
<text text-anchor="start" x="83.62" y="-22.6" font-family="Times,serif" font-size="12.00">S12</text>
<text text-anchor="start" x="75" y="-8.15" font-family="Times,serif" font-size="8.00">t1&#39;, t2, b&#39;, b</text>
<polygon fill="black" stroke="black" points="73,-17.75 73,-17.75 113,-17.75 113,-17.75 73,-17.75"/>
</g>
<!-- S9&#45;&gt;S12 -->
<g id="edge16" class="edge">
<title>S9&#45;&gt;S12</title>
<path fill="none" stroke="black" d="M123.92,-86.33C118.95,-75.81 112.67,-62.55 107.07,-50.73"/>
<polygon fill="black" stroke="black" points="110.27,-49.3 102.83,-41.76 103.94,-52.29 110.27,-49.3"/>
<text text-anchor="middle" x="120.5" y="-59.95" font-family="Times,serif" font-size="9.00">b1</text>
</g>
<!-- S10&#45;&gt;S11 -->
<g id="edge17" class="edge">
<title>S10&#45;&gt;S11</title>
<path fill="none" stroke="black" d="M32.9,-172.83C36.1,-162.42 40.13,-149.32 43.74,-137.59"/>
<polygon fill="black" stroke="black" points="46.99,-138.92 46.59,-128.34 40.3,-136.87 46.99,-138.92"/>
<text text-anchor="middle" x="46.88" y="-146.45" font-family="Times,serif" font-size="9.00">a1&#39;</text>
</g>
<!-- S11&#45;&gt;S12 -->
<g id="edge18" class="edge">
<title>S11&#45;&gt;S12</title>
<path fill="none" stroke="black" d="M62.08,-86.33C67.05,-75.81 73.33,-62.55 78.93,-50.73"/>
<polygon fill="black" stroke="black" points="82.06,-52.29 83.17,-41.76 75.73,-49.3 82.06,-52.29"/>
<text text-anchor="middle" x="81.25" y="-59.95" font-family="Times,serif" font-size="9.00">b2&#39;</text>
</g>
</g>
</svg>
