<?xml version="1.0" encoding="UTF-8" standalone="no"?>
<!DOCTYPE svg PUBLIC "-//W3C//DTD SVG 1.1//EN"
 "http://www.w3.org/Graphics/SVG/1.1/DTD/svg11.dtd">
<!-- Generated by graphviz version 9.0.0 (20230911.1827)
 -->
<!-- Pages: 1 -->
<svg width="378pt" height="909pt"
 viewBox="0.00 0.00 378.00 909.00" xmlns="http://www.w3.org/2000/svg" xmlns:xlink="http://www.w3.org/1999/xlink">
<g id="graph0" class="graph" transform="scale(1 1) rotate(0) translate(4 905)">
<polygon fill="white" stroke="none" points="-4,4 -4,-905 374,-905 374,4 -4,4"/>
<!-- S0 -->
<g id="node1" class="node">
<title>S0</title>
<polygon fill="lightgrey" stroke="black" points="169,-901 115,-901 115,-865 169,-865 169,-901"/>
<path fill="#d3d3d3" stroke="none" d="M139.21,-873.88C139.21,-873.88 144.79,-873.88 144.79,-873.88 147.58,-873.88 150.38,-876.67 150.38,-879.46 150.38,-879.46 150.38,-886.54 150.38,-886.54 150.38,-889.33 147.58,-892.12 144.79,-892.12 144.79,-892.12 139.21,-892.12 139.21,-892.12 136.42,-892.12 133.62,-889.33 133.62,-886.54 133.62,-886.54 133.62,-879.46 133.62,-879.46 133.62,-876.67 136.42,-873.88 139.21,-873.88"/>
<text text-anchor="start" x="135.62" y="-878.73" font-family="Times,serif" font-size="12.00">S0</text>
</g>
<!-- S1 -->
<g id="node2" class="node">
<title>S1</title>
<polygon fill="lightblue" stroke="black" points="169,-818.5 115,-818.5 115,-778.5 169,-778.5 169,-818.5"/>
<path fill="#add8e6" stroke="none" d="M139.21,-782.5C139.21,-782.5 144.79,-782.5 144.79,-782.5 147.58,-782.5 150.38,-785.29 150.38,-788.08 150.38,-788.08 150.38,-808.92 150.38,-808.92 150.38,-811.71 147.58,-814.5 144.79,-814.5 144.79,-814.5 139.21,-814.5 139.21,-814.5 136.42,-814.5 133.62,-811.71 133.62,-808.92 133.62,-808.92 133.62,-788.08 133.62,-788.08 133.62,-785.29 136.42,-782.5 139.21,-782.5"/>
<text text-anchor="start" x="135.62" y="-801.1" font-family="Times,serif" font-size="12.00">S1</text>
<text text-anchor="start" x="136.75" y="-786.65" font-family="Times,serif" font-size="8.00">init</text>
<polygon fill="black" stroke="black" points="133.62,-796.25 133.62,-796.25 150.38,-796.25 150.38,-796.25 133.62,-796.25"/>
</g>
<!-- S0&#45;&gt;S1 -->
<g id="edge1" class="edge">
<title>S0&#45;&gt;S1</title>
<path fill="none" stroke="black" d="M142,-864.5C142,-854.6 142,-841.94 142,-830.42"/>
<polygon fill="black" stroke="black" points="145.5,-830.51 142,-820.51 138.5,-830.51 145.5,-830.51"/>
<text text-anchor="middle" x="147.62" y="-838.45" font-family="Times,serif" font-size="9.00">init</text>
</g>
<!-- S2 -->
<g id="node3" class="node">
<title>S2</title>
<polygon fill="lightblue" stroke="black" points="132.88,-732 73.12,-732 73.12,-692 132.88,-692 132.88,-732"/>
<path fill="#add8e6" stroke="none" d="M91.79,-696C91.79,-696 114.21,-696 114.21,-696 119.54,-696 124.88,-701.33 124.88,-706.67 124.88,-706.67 124.88,-717.33 124.88,-717.33 124.88,-722.67 119.54,-728 114.21,-728 114.21,-728 91.79,-728 91.79,-728 86.46,-728 81.12,-722.67 81.12,-717.33 81.12,-717.33 81.12,-706.67 81.12,-706.67 81.12,-701.33 86.46,-696 91.79,-696"/>
<text text-anchor="start" x="96.62" y="-714.6" font-family="Times,serif" font-size="12.00">S2</text>
<text text-anchor="start" x="83.12" y="-700.15" font-family="Times,serif" font-size="8.00">t2, t1, init, a</text>
<polygon fill="black" stroke="black" points="81.12,-709.75 81.12,-709.75 124.88,-709.75 124.88,-709.75 81.12,-709.75"/>
</g>
<!-- S1&#45;&gt;S2 -->
<g id="edge2" class="edge">
<title>S1&#45;&gt;S2</title>
<path fill="none" stroke="black" d="M133.15,-778.33C128.3,-767.81 122.18,-754.55 116.72,-742.73"/>
<polygon fill="black" stroke="black" points="119.95,-741.38 112.58,-733.77 113.6,-744.31 119.95,-741.38"/>
<text text-anchor="middle" x="128.12" y="-751.95" font-family="Times,serif" font-size="9.00">a1</text>
</g>
<!-- S3 -->
<g id="node4" class="node">
<title>S3</title>
<polygon fill="lightblue" stroke="black" points="215.12,-732 150.88,-732 150.88,-692 215.12,-692 215.12,-732"/>
<path fill="#add8e6" stroke="none" d="M169.54,-696C169.54,-696 196.46,-696 196.46,-696 201.79,-696 207.12,-701.33 207.12,-706.67 207.12,-706.67 207.12,-717.33 207.12,-717.33 207.12,-722.67 201.79,-728 196.46,-728 196.46,-728 169.54,-728 169.54,-728 164.21,-728 158.88,-722.67 158.88,-717.33 158.88,-717.33 158.88,-706.67 158.88,-706.67 158.88,-701.33 164.21,-696 169.54,-696"/>
<text text-anchor="start" x="176.62" y="-714.6" font-family="Times,serif" font-size="12.00">S3</text>
<text text-anchor="start" x="160.88" y="-700.15" font-family="Times,serif" font-size="8.00">a&#39;, init, t2&#39;, t1&#39;</text>
<polygon fill="black" stroke="black" points="158.88,-709.75 158.88,-709.75 207.12,-709.75 207.12,-709.75 158.88,-709.75"/>
</g>
<!-- S1&#45;&gt;S3 -->
<g id="edge3" class="edge">
<title>S1&#45;&gt;S3</title>
<path fill="none" stroke="black" d="M151.3,-778.33C156.4,-767.81 162.84,-754.55 168.58,-742.73"/>
<polygon fill="black" stroke="black" points="171.71,-744.28 172.93,-733.75 165.42,-741.22 171.71,-744.28"/>
<text text-anchor="middle" x="168.88" y="-751.95" font-family="Times,serif" font-size="9.00">a1&#39;</text>
</g>
<!-- S4 -->
<g id="node5" class="node">
<title>S4</title>
<polygon fill="lightblue" stroke="black" points="200.25,-645.5 121.75,-645.5 121.75,-605.5 200.25,-605.5 200.25,-645.5"/>
<path fill="#add8e6" stroke="none" d="M140.42,-609.5C140.42,-609.5 181.58,-609.5 181.58,-609.5 186.92,-609.5 192.25,-614.83 192.25,-620.17 192.25,-620.17 192.25,-630.83 192.25,-630.83 192.25,-636.17 186.92,-641.5 181.58,-641.5 181.58,-641.5 140.42,-641.5 140.42,-641.5 135.08,-641.5 129.75,-636.17 129.75,-630.83 129.75,-630.83 129.75,-620.17 129.75,-620.17 129.75,-614.83 135.08,-609.5 140.42,-609.5"/>
<text text-anchor="start" x="154.62" y="-628.1" font-family="Times,serif" font-size="12.00">S4</text>
<text text-anchor="start" x="131.75" y="-613.65" font-family="Times,serif" font-size="8.00">a&#39;, t2&#39;, t2, t1, a, t1&#39;</text>
<polygon fill="black" stroke="black" points="129.75,-623.25 129.75,-623.25 192.25,-623.25 192.25,-623.25 129.75,-623.25"/>
</g>
<!-- S2&#45;&gt;S4 -->
<g id="edge4" class="edge">
<title>S2&#45;&gt;S4</title>
<path fill="none" stroke="black" d="M116.16,-691.83C123.6,-680.99 133.04,-667.23 141.34,-655.14"/>
<polygon fill="black" stroke="black" points="144.06,-657.36 146.83,-647.14 138.29,-653.4 144.06,-657.36"/>
<text text-anchor="middle" x="139.88" y="-665.45" font-family="Times,serif" font-size="9.00">a1&#39;</text>
</g>
<!-- S5 -->
<g id="node6" class="node">
<title>S5</title>
<polygon fill="lightblue" stroke="black" points="104,-645.5 50,-645.5 50,-605.5 104,-605.5 104,-645.5"/>
<path fill="#add8e6" stroke="none" d="M71.04,-609.5C71.04,-609.5 82.96,-609.5 82.96,-609.5 88.29,-609.5 93.62,-614.83 93.62,-620.17 93.62,-620.17 93.62,-630.83 93.62,-630.83 93.62,-636.17 88.29,-641.5 82.96,-641.5 82.96,-641.5 71.04,-641.5 71.04,-641.5 65.71,-641.5 60.38,-636.17 60.38,-630.83 60.38,-630.83 60.38,-620.17 60.38,-620.17 60.38,-614.83 65.71,-609.5 71.04,-609.5"/>
<text text-anchor="start" x="70.62" y="-628.1" font-family="Times,serif" font-size="12.00">S5</text>
<text text-anchor="start" x="62.38" y="-613.65" font-family="Times,serif" font-size="8.00">init, t1, b</text>
<polygon fill="black" stroke="black" points="60.38,-623.25 60.38,-623.25 93.62,-623.25 93.62,-623.25 60.38,-623.25"/>
</g>
<!-- S2&#45;&gt;S5 -->
<g id="edge5" class="edge">
<title>S2&#45;&gt;S5</title>
<path fill="none" stroke="black" d="M97.1,-691.83C93.9,-681.42 89.87,-668.32 86.26,-656.59"/>
<polygon fill="black" stroke="black" points="89.7,-655.87 83.41,-647.34 83.01,-657.92 89.7,-655.87"/>
<text text-anchor="middle" x="96.5" y="-665.45" font-family="Times,serif" font-size="9.00">b2</text>
</g>
<!-- S3&#45;&gt;S4 -->
<g id="edge6" class="edge">
<title>S3&#45;&gt;S4</title>
<path fill="none" stroke="black" d="M178.01,-691.83C175.33,-681.53 171.96,-668.59 168.93,-656.95"/>
<polygon fill="black" stroke="black" points="172.34,-656.15 166.43,-647.36 165.56,-657.91 172.34,-656.15"/>
<text text-anchor="middle" x="177.12" y="-665.45" font-family="Times,serif" font-size="9.00">a1</text>
</g>
<!-- S7 -->
<g id="node8" class="node">
<title>S7</title>
<polygon fill="lightblue" stroke="black" points="272,-645.5 218,-645.5 218,-605.5 272,-605.5 272,-645.5"/>
<path fill="#add8e6" stroke="none" d="M237.54,-609.5C237.54,-609.5 252.46,-609.5 252.46,-609.5 257.79,-609.5 263.12,-614.83 263.12,-620.17 263.12,-620.17 263.12,-630.83 263.12,-630.83 263.12,-636.17 257.79,-641.5 252.46,-641.5 252.46,-641.5 237.54,-641.5 237.54,-641.5 232.21,-641.5 226.88,-636.17 226.88,-630.83 226.88,-630.83 226.88,-620.17 226.88,-620.17 226.88,-614.83 232.21,-609.5 237.54,-609.5"/>
<text text-anchor="start" x="238.62" y="-628.1" font-family="Times,serif" font-size="12.00">S7</text>
<text text-anchor="start" x="228.88" y="-613.65" font-family="Times,serif" font-size="8.00">t1&#39;, init, b&#39;</text>
<polygon fill="black" stroke="black" points="226.88,-623.25 226.88,-623.25 263.12,-623.25 263.12,-623.25 226.88,-623.25"/>
</g>
<!-- S3&#45;&gt;S7 -->
<g id="edge7" class="edge">
<title>S3&#45;&gt;S7</title>
<path fill="none" stroke="black" d="M197.07,-691.83C205.02,-680.99 215.11,-667.23 223.98,-655.14"/>
<polygon fill="black" stroke="black" points="226.78,-657.24 229.88,-647.11 221.14,-653.1 226.78,-657.24"/>
<text text-anchor="middle" x="222.25" y="-665.45" font-family="Times,serif" font-size="9.00">b2&#39;</text>
</g>
<!-- S6 -->
<g id="node7" class="node">
<title>S6</title>
<polygon fill="lightgrey" stroke="black" points="170,-559 102,-559 102,-519 170,-519 170,-559"/>
<path fill="#d3d3d3" stroke="none" d="M120.67,-523C120.67,-523 151.33,-523 151.33,-523 156.67,-523 162,-528.33 162,-533.67 162,-533.67 162,-544.33 162,-544.33 162,-549.67 156.67,-555 151.33,-555 151.33,-555 120.67,-555 120.67,-555 115.33,-555 110,-549.67 110,-544.33 110,-544.33 110,-533.67 110,-533.67 110,-528.33 115.33,-523 120.67,-523"/>
<text text-anchor="start" x="129.62" y="-541.6" font-family="Times,serif" font-size="12.00">S6</text>
<text text-anchor="start" x="112" y="-527.15" font-family="Times,serif" font-size="8.00">a&#39;, t2&#39;, b, t1, t1&#39;</text>
<polygon fill="black" stroke="black" points="110,-536.75 110,-536.75 162,-536.75 162,-536.75 110,-536.75"/>
</g>
<!-- S4&#45;&gt;S6 -->
<g id="edge8" class="edge">
<title>S4&#45;&gt;S6</title>
<path fill="none" stroke="black" d="M155.33,-605.33C152.25,-594.92 148.37,-581.82 144.9,-570.09"/>
<polygon fill="black" stroke="black" points="148.36,-569.44 142.17,-560.84 141.65,-571.42 148.36,-569.44"/>
<text text-anchor="middle" x="153.5" y="-578.95" font-family="Times,serif" font-size="9.00">b2</text>
</g>
<!-- S8 -->
<g id="node9" class="node">
<title>S8</title>
<polygon fill="lightblue" stroke="black" points="254.25,-559 187.75,-559 187.75,-519 254.25,-519 254.25,-559"/>
<path fill="#add8e6" stroke="none" d="M206.42,-523C206.42,-523 235.58,-523 235.58,-523 240.92,-523 246.25,-528.33 246.25,-533.67 246.25,-533.67 246.25,-544.33 246.25,-544.33 246.25,-549.67 240.92,-555 235.58,-555 235.58,-555 206.42,-555 206.42,-555 201.08,-555 195.75,-549.67 195.75,-544.33 195.75,-544.33 195.75,-533.67 195.75,-533.67 195.75,-528.33 201.08,-523 206.42,-523"/>
<text text-anchor="start" x="214.62" y="-541.6" font-family="Times,serif" font-size="12.00">S8</text>
<text text-anchor="start" x="197.75" y="-527.15" font-family="Times,serif" font-size="8.00">t2, t1, a, t1&#39;, b&#39;</text>
<polygon fill="black" stroke="black" points="195.75,-536.75 195.75,-536.75 246.25,-536.75 246.25,-536.75 195.75,-536.75"/>
</g>
<!-- S4&#45;&gt;S8 -->
<g id="edge9" class="edge">
<title>S4&#45;&gt;S8</title>
<path fill="none" stroke="black" d="M174.61,-605.33C182.31,-594.49 192.08,-580.73 200.66,-568.64"/>
<polygon fill="black" stroke="black" points="203.42,-570.81 206.35,-560.63 197.71,-566.75 203.42,-570.81"/>
<text text-anchor="middle" x="199.25" y="-578.95" font-family="Times,serif" font-size="9.00">b2&#39;</text>
</g>
<!-- S5&#45;&gt;S6 -->
<g id="edge10" class="edge">
<title>S5&#45;&gt;S6</title>
<path fill="none" stroke="black" d="M90.39,-605.33C97.95,-594.49 107.56,-580.73 116,-568.64"/>
<polygon fill="black" stroke="black" points="118.74,-570.83 121.59,-560.63 113,-566.83 118.74,-570.83"/>
<text text-anchor="middle" x="114.88" y="-578.95" font-family="Times,serif" font-size="9.00">a1&#39;</text>
</g>
<!-- S10 -->
<g id="node11" class="node">
<title>S10</title>
<polygon fill="lightblue" stroke="black" points="84,-559 30,-559 30,-519 84,-519 84,-559"/>
<path fill="#add8e6" stroke="none" d="M51.04,-523C51.04,-523 62.96,-523 62.96,-523 68.29,-523 73.62,-528.33 73.62,-533.67 73.62,-533.67 73.62,-544.33 73.62,-544.33 73.62,-549.67 68.29,-555 62.96,-555 62.96,-555 51.04,-555 51.04,-555 45.71,-555 40.38,-549.67 40.38,-544.33 40.38,-544.33 40.38,-533.67 40.38,-533.67 40.38,-528.33 45.71,-523 51.04,-523"/>
<text text-anchor="start" x="47.62" y="-541.6" font-family="Times,serif" font-size="12.00">S10</text>
<text text-anchor="start" x="42.38" y="-527.15" font-family="Times,serif" font-size="8.00">t2, init, b</text>
<polygon fill="black" stroke="black" points="40.38,-536.75 40.38,-536.75 73.62,-536.75 73.62,-536.75 40.38,-536.75"/>
</g>
<!-- S5&#45;&gt;S10 -->
<g id="edge11" class="edge">
<title>S5&#45;&gt;S10</title>
<path fill="none" stroke="black" d="M72.46,-605.33C70.02,-595.03 66.96,-582.09 64.21,-570.45"/>
<polygon fill="black" stroke="black" points="67.65,-569.79 61.94,-560.86 60.84,-571.4 67.65,-569.79"/>
<text text-anchor="middle" x="73.5" y="-578.95" font-family="Times,serif" font-size="9.00">b1</text>
</g>
<!-- S9 -->
<g id="node10" class="node">
<title>S9</title>
<polygon fill="lightblue" stroke="black" points="214,-472.5 158,-472.5 158,-432.5 214,-432.5 214,-472.5"/>
<path fill="#add8e6" stroke="none" d="M176.67,-436.5C176.67,-436.5 195.33,-436.5 195.33,-436.5 200.67,-436.5 206,-441.83 206,-447.17 206,-447.17 206,-457.83 206,-457.83 206,-463.17 200.67,-468.5 195.33,-468.5 195.33,-468.5 176.67,-468.5 176.67,-468.5 171.33,-468.5 166,-463.17 166,-457.83 166,-457.83 166,-447.17 166,-447.17 166,-441.83 171.33,-436.5 176.67,-436.5"/>
<text text-anchor="start" x="179.62" y="-455.1" font-family="Times,serif" font-size="12.00">S9</text>
<text text-anchor="start" x="168" y="-440.65" font-family="Times,serif" font-size="8.00">t1&#39;, t1, b&#39;, b</text>
<polygon fill="black" stroke="black" points="166,-450.25 166,-450.25 206,-450.25 206,-450.25 166,-450.25"/>
</g>
<!-- S6&#45;&gt;S9 -->
<g id="edge12" class="edge">
<title>S6&#45;&gt;S9</title>
<path fill="none" stroke="black" d="M147.35,-518.83C153.69,-508.1 161.74,-494.51 168.84,-482.5"/>
<polygon fill="black" stroke="black" points="171.67,-484.58 173.76,-474.19 165.65,-481.02 171.67,-484.58"/>
<text text-anchor="middle" x="168.25" y="-492.45" font-family="Times,serif" font-size="9.00">b2&#39;</text>
</g>
<!-- S11 -->
<g id="node12" class="node">
<title>S11</title>
<polygon fill="lightgrey" stroke="black" points="140,-472.5 72,-472.5 72,-432.5 140,-432.5 140,-472.5"/>
<path fill="#d3d3d3" stroke="none" d="M90.67,-436.5C90.67,-436.5 121.33,-436.5 121.33,-436.5 126.67,-436.5 132,-441.83 132,-447.17 132,-447.17 132,-457.83 132,-457.83 132,-463.17 126.67,-468.5 121.33,-468.5 121.33,-468.5 90.67,-468.5 90.67,-468.5 85.33,-468.5 80,-463.17 80,-457.83 80,-457.83 80,-447.17 80,-447.17 80,-441.83 85.33,-436.5 90.67,-436.5"/>
<text text-anchor="start" x="96.62" y="-455.1" font-family="Times,serif" font-size="12.00">S11</text>
<text text-anchor="start" x="82" y="-440.65" font-family="Times,serif" font-size="8.00">a&#39;, t2&#39;, b, t2, t1&#39;</text>
<polygon fill="black" stroke="black" points="80,-450.25 80,-450.25 132,-450.25 132,-450.25 80,-450.25"/>
</g>
<!-- S6&#45;&gt;S11 -->
<g id="edge13" class="edge">
<title>S6&#45;&gt;S11</title>
<path fill="none" stroke="black" d="M129.19,-518.83C125.5,-508.42 120.85,-495.32 116.68,-483.59"/>
<polygon fill="black" stroke="black" points="120.03,-482.57 113.39,-474.32 113.44,-484.91 120.03,-482.57"/>
<text text-anchor="middle" x="126.5" y="-492.45" font-family="Times,serif" font-size="9.00">b1</text>
</g>
<!-- S7&#45;&gt;S8 -->
<g id="edge14" class="edge">
<title>S7&#45;&gt;S8</title>
<path fill="none" stroke="black" d="M239.55,-605.33C236.63,-595.03 232.95,-582.09 229.65,-570.45"/>
<polygon fill="black" stroke="black" points="233.02,-569.51 226.92,-560.85 226.29,-571.42 233.02,-569.51"/>
<text text-anchor="middle" x="238.12" y="-578.95" font-family="Times,serif" font-size="9.00">a1</text>
</g>
<!-- S13 -->
<g id="node14" class="node">
<title>S13</title>
<polygon fill="lightblue" stroke="black" points="326,-559 272,-559 272,-519 326,-519 326,-559"/>
<path fill="#add8e6" stroke="none" d="M291.54,-523C291.54,-523 306.46,-523 306.46,-523 311.79,-523 317.12,-528.33 317.12,-533.67 317.12,-533.67 317.12,-544.33 317.12,-544.33 317.12,-549.67 311.79,-555 306.46,-555 306.46,-555 291.54,-555 291.54,-555 286.21,-555 280.88,-549.67 280.88,-544.33 280.88,-544.33 280.88,-533.67 280.88,-533.67 280.88,-528.33 286.21,-523 291.54,-523"/>
<text text-anchor="start" x="289.62" y="-541.6" font-family="Times,serif" font-size="12.00">S13</text>
<text text-anchor="start" x="282.88" y="-527.15" font-family="Times,serif" font-size="8.00">init, t2&#39;, b&#39;</text>
<polygon fill="black" stroke="black" points="280.88,-536.75 280.88,-536.75 317.12,-536.75 317.12,-536.75 280.88,-536.75"/>
</g>
<!-- S7&#45;&gt;S13 -->
<g id="edge15" class="edge">
<title>S7&#45;&gt;S13</title>
<path fill="none" stroke="black" d="M257.25,-605.33C264.11,-594.6 272.79,-581.01 280.47,-569"/>
<polygon fill="black" stroke="black" points="283.36,-570.98 285.79,-560.67 277.46,-567.21 283.36,-570.98"/>
<text text-anchor="middle" x="280.25" y="-578.95" font-family="Times,serif" font-size="9.00">b1&#39;</text>
</g>
<!-- S8&#45;&gt;S9 -->
<g id="edge16" class="edge">
<title>S8&#45;&gt;S9</title>
<path fill="none" stroke="black" d="M213.06,-518.83C208.7,-508.31 203.21,-495.05 198.31,-483.23"/>
<polygon fill="black" stroke="black" points="201.67,-482.19 194.61,-474.29 195.2,-484.87 201.67,-482.19"/>
<text text-anchor="middle" x="209.5" y="-492.45" font-family="Times,serif" font-size="9.00">b2</text>
</g>
<!-- S14 -->
<g id="node15" class="node">
<title>S14</title>
<polygon fill="lightgrey" stroke="black" points="298.25,-472.5 231.75,-472.5 231.75,-432.5 298.25,-432.5 298.25,-472.5"/>
<path fill="#d3d3d3" stroke="none" d="M250.42,-436.5C250.42,-436.5 279.58,-436.5 279.58,-436.5 284.92,-436.5 290.25,-441.83 290.25,-447.17 290.25,-447.17 290.25,-457.83 290.25,-457.83 290.25,-463.17 284.92,-468.5 279.58,-468.5 279.58,-468.5 250.42,-468.5 250.42,-468.5 245.08,-468.5 239.75,-463.17 239.75,-457.83 239.75,-457.83 239.75,-447.17 239.75,-447.17 239.75,-441.83 245.08,-436.5 250.42,-436.5"/>
<text text-anchor="start" x="255.62" y="-455.1" font-family="Times,serif" font-size="12.00">S14</text>
<text text-anchor="start" x="241.75" y="-440.65" font-family="Times,serif" font-size="8.00">t2&#39;, t2, t1, a, b&#39;</text>
<polygon fill="black" stroke="black" points="239.75,-450.25 239.75,-450.25 290.25,-450.25 290.25,-450.25 239.75,-450.25"/>
</g>
<!-- S8&#45;&gt;S14 -->
<g id="edge17" class="edge">
<title>S8&#45;&gt;S14</title>
<path fill="none" stroke="black" d="M230.98,-518.83C236.51,-508.21 243.51,-494.78 249.71,-482.86"/>
<polygon fill="black" stroke="black" points="252.69,-484.72 254.2,-474.23 246.48,-481.49 252.69,-484.72"/>
<text text-anchor="middle" x="250.25" y="-492.45" font-family="Times,serif" font-size="9.00">b1&#39;</text>
</g>
<!-- S12 -->
<g id="node13" class="node">
<title>S12</title>
<polygon fill="lightgrey" stroke="black" points="160,-386 104,-386 104,-346 160,-346 160,-386"/>
<path fill="#d3d3d3" stroke="none" d="M122.67,-350C122.67,-350 141.33,-350 141.33,-350 146.67,-350 152,-355.33 152,-360.67 152,-360.67 152,-371.33 152,-371.33 152,-376.67 146.67,-382 141.33,-382 141.33,-382 122.67,-382 122.67,-382 117.33,-382 112,-376.67 112,-371.33 112,-371.33 112,-360.67 112,-360.67 112,-355.33 117.33,-350 122.67,-350"/>
<text text-anchor="start" x="122.62" y="-368.6" font-family="Times,serif" font-size="12.00">S12</text>
<text text-anchor="start" x="114" y="-354.15" font-family="Times,serif" font-size="8.00">t1&#39;, t2, b&#39;, b</text>
<polygon fill="black" stroke="black" points="112,-363.75 112,-363.75 152,-363.75 152,-363.75 112,-363.75"/>
</g>
<!-- S9&#45;&gt;S12 -->
<g id="edge18" class="edge">
<title>S9&#45;&gt;S12</title>
<path fill="none" stroke="black" d="M173.75,-432.33C166.89,-421.6 158.21,-408.01 150.53,-396"/>
<polygon fill="black" stroke="black" points="153.54,-394.21 145.21,-387.67 147.64,-397.98 153.54,-394.21"/>
<text text-anchor="middle" x="166.5" y="-405.95" font-family="Times,serif" font-size="9.00">b1</text>
</g>
<!-- S15 -->
<g id="node16" class="node">
<title>S15</title>
<polygon fill="lightblue" stroke="black" points="234,-386 178,-386 178,-346 234,-346 234,-386"/>
<path fill="#add8e6" stroke="none" d="M196.67,-350C196.67,-350 215.33,-350 215.33,-350 220.67,-350 226,-355.33 226,-360.67 226,-360.67 226,-371.33 226,-371.33 226,-376.67 220.67,-382 215.33,-382 215.33,-382 196.67,-382 196.67,-382 191.33,-382 186,-376.67 186,-371.33 186,-371.33 186,-360.67 186,-360.67 186,-355.33 191.33,-350 196.67,-350"/>
<text text-anchor="start" x="196.62" y="-368.6" font-family="Times,serif" font-size="12.00">S15</text>
<text text-anchor="start" x="188" y="-354.15" font-family="Times,serif" font-size="8.00">t2&#39;, t1, b&#39;, b</text>
<polygon fill="black" stroke="black" points="186,-363.75 186,-363.75 226,-363.75 226,-363.75 186,-363.75"/>
</g>
<!-- S9&#45;&gt;S15 -->
<g id="edge19" class="edge">
<title>S9&#45;&gt;S15</title>
<path fill="none" stroke="black" d="M190.54,-432.33C192.98,-422.03 196.04,-409.09 198.79,-397.45"/>
<polygon fill="black" stroke="black" points="202.16,-398.4 201.06,-387.86 195.35,-396.79 202.16,-398.4"/>
<text text-anchor="middle" x="202.25" y="-405.95" font-family="Times,serif" font-size="9.00">b1&#39;</text>
</g>
<!-- S10&#45;&gt;S11 -->
<g id="edge20" class="edge">
<title>S10&#45;&gt;S11</title>
<path fill="none" stroke="black" d="M68.12,-518.83C74.34,-508.1 82.22,-494.51 89.18,-482.5"/>
<polygon fill="black" stroke="black" points="92.01,-484.61 94,-474.2 85.95,-481.1 92.01,-484.61"/>
<text text-anchor="middle" x="89.88" y="-492.45" font-family="Times,serif" font-size="9.00">a1&#39;</text>
</g>
<!-- S17 -->
<g id="node18" class="node">
<title>S17</title>
<polygon fill="lightblue" stroke="black" points="54,-472.5 0,-472.5 0,-432.5 54,-432.5 54,-472.5"/>
<path fill="#add8e6" stroke="none" d="M23.21,-436.5C23.21,-436.5 30.79,-436.5 30.79,-436.5 34.58,-436.5 38.38,-440.29 38.38,-444.08 38.38,-444.08 38.38,-460.92 38.38,-460.92 38.38,-464.71 34.58,-468.5 30.79,-468.5 30.79,-468.5 23.21,-468.5 23.21,-468.5 19.42,-468.5 15.62,-464.71 15.62,-460.92 15.62,-460.92 15.62,-444.08 15.62,-444.08 15.62,-440.29 19.42,-436.5 23.21,-436.5"/>
<text text-anchor="start" x="17.62" y="-455.1" font-family="Times,serif" font-size="12.00">S17</text>
<text text-anchor="start" x="17.62" y="-440.65" font-family="Times,serif" font-size="8.00">init, a</text>
<polygon fill="black" stroke="black" points="15.62,-450.25 15.62,-450.25 38.38,-450.25 38.38,-450.25 15.62,-450.25"/>
</g>
<!-- S10&#45;&gt;S17 -->
<g id="edge21" class="edge">
<title>S10&#45;&gt;S17</title>
<path fill="none" stroke="black" d="M50.19,-518.83C46.5,-508.42 41.85,-495.32 37.68,-483.59"/>
<polygon fill="black" stroke="black" points="41.03,-482.57 34.39,-474.32 34.44,-484.91 41.03,-482.57"/>
<text text-anchor="middle" x="48.12" y="-492.45" font-family="Times,serif" font-size="9.00">a2</text>
</g>
<!-- S11&#45;&gt;S12 -->
<g id="edge22" class="edge">
<title>S11&#45;&gt;S12</title>
<path fill="none" stroke="black" d="M111.9,-432.33C115.1,-421.92 119.13,-408.82 122.74,-397.09"/>
<polygon fill="black" stroke="black" points="125.99,-398.42 125.59,-387.84 119.3,-396.37 125.99,-398.42"/>
<text text-anchor="middle" x="125.25" y="-405.95" font-family="Times,serif" font-size="9.00">b2&#39;</text>
</g>
<!-- S18 -->
<g id="node19" class="node">
<title>S18</title>
<polygon fill="lightgrey" stroke="black" points="85.75,-386 28.25,-386 28.25,-346 85.75,-346 85.75,-386"/>
<path fill="#d3d3d3" stroke="none" d="M46.92,-350C46.92,-350 67.08,-350 67.08,-350 72.42,-350 77.75,-355.33 77.75,-360.67 77.75,-360.67 77.75,-371.33 77.75,-371.33 77.75,-376.67 72.42,-382 67.08,-382 67.08,-382 46.92,-382 46.92,-382 41.58,-382 36.25,-376.67 36.25,-371.33 36.25,-371.33 36.25,-360.67 36.25,-360.67 36.25,-355.33 41.58,-350 46.92,-350"/>
<text text-anchor="start" x="47.62" y="-368.6" font-family="Times,serif" font-size="12.00">S18</text>
<text text-anchor="start" x="38.25" y="-354.15" font-family="Times,serif" font-size="8.00">a&#39;, t2&#39;, t1&#39;, a</text>
<polygon fill="black" stroke="black" points="36.25,-363.75 36.25,-363.75 77.75,-363.75 77.75,-363.75 36.25,-363.75"/>
</g>
<!-- S11&#45;&gt;S18 -->
<g id="edge23" class="edge">
<title>S11&#45;&gt;S18</title>
<path fill="none" stroke="black" d="M94.88,-432.33C88.66,-421.6 80.78,-408.01 73.82,-396"/>
<polygon fill="black" stroke="black" points="77.05,-394.6 69,-387.7 70.99,-398.11 77.05,-394.6"/>
<text text-anchor="middle" x="89.12" y="-405.95" font-family="Times,serif" font-size="9.00">a2</text>
</g>
<!-- S16 -->
<g id="node17" class="node">
<title>S16</title>
<polygon fill="lightblue" stroke="black" points="179,-299.5 123,-299.5 123,-259.5 179,-259.5 179,-299.5"/>
<path fill="#add8e6" stroke="none" d="M141.67,-263.5C141.67,-263.5 160.33,-263.5 160.33,-263.5 165.67,-263.5 171,-268.83 171,-274.17 171,-274.17 171,-284.83 171,-284.83 171,-290.17 165.67,-295.5 160.33,-295.5 160.33,-295.5 141.67,-295.5 141.67,-295.5 136.33,-295.5 131,-290.17 131,-284.83 131,-284.83 131,-274.17 131,-274.17 131,-268.83 136.33,-263.5 141.67,-263.5"/>
<text text-anchor="start" x="141.62" y="-282.1" font-family="Times,serif" font-size="12.00">S16</text>
<text text-anchor="start" x="133" y="-267.65" font-family="Times,serif" font-size="8.00">t2, t2&#39;, b&#39;, b</text>
<polygon fill="black" stroke="black" points="131,-277.25 131,-277.25 171,-277.25 171,-277.25 131,-277.25"/>
</g>
<!-- S12&#45;&gt;S16 -->
<g id="edge24" class="edge">
<title>S12&#45;&gt;S16</title>
<path fill="none" stroke="black" d="M136.31,-345.83C138.63,-335.53 141.54,-322.59 144.15,-310.95"/>
<polygon fill="black" stroke="black" points="147.53,-311.89 146.31,-301.37 140.7,-310.36 147.53,-311.89"/>
<text text-anchor="middle" x="147.25" y="-319.45" font-family="Times,serif" font-size="9.00">b1&#39;</text>
</g>
<!-- S19 -->
<g id="node20" class="node">
<title>S19</title>
<polygon fill="lightgrey" stroke="black" points="105,-299.5 51,-299.5 51,-259.5 105,-259.5 105,-299.5"/>
<path fill="#d3d3d3" stroke="none" d="M73.08,-263.5C73.08,-263.5 82.92,-263.5 82.92,-263.5 87.83,-263.5 92.75,-268.42 92.75,-273.33 92.75,-273.33 92.75,-285.67 92.75,-285.67 92.75,-290.58 87.83,-295.5 82.92,-295.5 82.92,-295.5 73.08,-295.5 73.08,-295.5 68.17,-295.5 63.25,-290.58 63.25,-285.67 63.25,-285.67 63.25,-273.33 63.25,-273.33 63.25,-268.42 68.17,-263.5 73.08,-263.5"/>
<text text-anchor="start" x="68.62" y="-282.1" font-family="Times,serif" font-size="12.00">S19</text>
<text text-anchor="start" x="65.25" y="-267.65" font-family="Times,serif" font-size="8.00">t1&#39;, b&#39;, a</text>
<polygon fill="black" stroke="black" points="63.25,-277.25 63.25,-277.25 92.75,-277.25 92.75,-277.25 63.25,-277.25"/>
</g>
<!-- S12&#45;&gt;S19 -->
<g id="edge25" class="edge">
<title>S12&#45;&gt;S19</title>
<path fill="none" stroke="black" d="M119.75,-345.83C112.89,-335.1 104.21,-321.51 96.53,-309.5"/>
<polygon fill="black" stroke="black" points="99.54,-307.71 91.21,-301.17 93.64,-311.48 99.54,-307.71"/>
<text text-anchor="middle" x="112.12" y="-319.45" font-family="Times,serif" font-size="9.00">a2</text>
</g>
<!-- S13&#45;&gt;S14 -->
<g id="edge26" class="edge">
<title>S13&#45;&gt;S14</title>
<path fill="none" stroke="black" d="M291.28,-518.83C287.05,-508.31 281.72,-495.05 276.96,-483.23"/>
<polygon fill="black" stroke="black" points="280.35,-482.27 273.37,-474.3 273.85,-484.88 280.35,-482.27"/>
<text text-anchor="middle" x="288.12" y="-492.45" font-family="Times,serif" font-size="9.00">a1</text>
</g>
<!-- S21 -->
<g id="node22" class="node">
<title>S21</title>
<polygon fill="lightblue" stroke="black" points="370,-472.5 316,-472.5 316,-432.5 370,-432.5 370,-472.5"/>
<path fill="#add8e6" stroke="none" d="M338.96,-436.5C338.96,-436.5 347.04,-436.5 347.04,-436.5 351.08,-436.5 355.12,-440.54 355.12,-444.58 355.12,-444.58 355.12,-460.42 355.12,-460.42 355.12,-464.46 351.08,-468.5 347.04,-468.5 347.04,-468.5 338.96,-468.5 338.96,-468.5 334.92,-468.5 330.88,-464.46 330.88,-460.42 330.88,-460.42 330.88,-444.58 330.88,-444.58 330.88,-440.54 334.92,-436.5 338.96,-436.5"/>
<text text-anchor="start" x="333.62" y="-455.1" font-family="Times,serif" font-size="12.00">S21</text>
<text text-anchor="start" x="332.88" y="-440.65" font-family="Times,serif" font-size="8.00">a&#39;, init</text>
<polygon fill="black" stroke="black" points="330.88,-450.25 330.88,-450.25 355.12,-450.25 355.12,-450.25 330.88,-450.25"/>
</g>
<!-- S13&#45;&gt;S21 -->
<g id="edge27" class="edge">
<title>S13&#45;&gt;S21</title>
<path fill="none" stroke="black" d="M308.98,-518.83C314.51,-508.21 321.51,-494.78 327.71,-482.86"/>
<polygon fill="black" stroke="black" points="330.69,-484.72 332.2,-474.23 324.48,-481.49 330.69,-484.72"/>
<text text-anchor="middle" x="327.88" y="-492.45" font-family="Times,serif" font-size="9.00">a2&#39;</text>
</g>
<!-- S14&#45;&gt;S15 -->
<g id="edge28" class="edge">
<title>S14&#45;&gt;S15</title>
<path fill="none" stroke="black" d="M251.61,-432.33C244.05,-421.49 234.44,-407.73 226,-395.64"/>
<polygon fill="black" stroke="black" points="229,-393.83 220.41,-387.63 223.26,-397.83 229,-393.83"/>
<text text-anchor="middle" x="243.5" y="-405.95" font-family="Times,serif" font-size="9.00">b2</text>
</g>
<!-- S22 -->
<g id="node23" class="node">
<title>S22</title>
<polygon fill="lightgrey" stroke="black" points="306.25,-386 251.75,-386 251.75,-346 306.25,-346 306.25,-386"/>
<path fill="#d3d3d3" stroke="none" d="M270.42,-350C270.42,-350 287.58,-350 287.58,-350 292.92,-350 298.25,-355.33 298.25,-360.67 298.25,-360.67 298.25,-371.33 298.25,-371.33 298.25,-376.67 292.92,-382 287.58,-382 287.58,-382 270.42,-382 270.42,-382 265.08,-382 259.75,-376.67 259.75,-371.33 259.75,-371.33 259.75,-360.67 259.75,-360.67 259.75,-355.33 265.08,-350 270.42,-350"/>
<text text-anchor="start" x="269.62" y="-368.6" font-family="Times,serif" font-size="12.00">S22</text>
<text text-anchor="start" x="261.75" y="-354.15" font-family="Times,serif" font-size="8.00">a&#39;, t2, t1, a</text>
<polygon fill="black" stroke="black" points="259.75,-363.75 259.75,-363.75 298.25,-363.75 298.25,-363.75 259.75,-363.75"/>
</g>
<!-- S14&#45;&gt;S22 -->
<g id="edge29" class="edge">
<title>S14&#45;&gt;S22</title>
<path fill="none" stroke="black" d="M268.18,-432.33C269.88,-422.03 272.03,-409.09 273.95,-397.45"/>
<polygon fill="black" stroke="black" points="277.36,-398.32 275.54,-387.88 270.45,-397.18 277.36,-398.32"/>
<text text-anchor="middle" x="276.88" y="-405.95" font-family="Times,serif" font-size="9.00">a2&#39;</text>
</g>
<!-- S15&#45;&gt;S16 -->
<g id="edge30" class="edge">
<title>S15&#45;&gt;S16</title>
<path fill="none" stroke="black" d="M193.52,-345.83C186.54,-335.1 177.69,-321.51 169.88,-309.5"/>
<polygon fill="black" stroke="black" points="172.84,-307.63 164.45,-301.16 166.97,-311.45 172.84,-307.63"/>
<text text-anchor="middle" x="185.5" y="-319.45" font-family="Times,serif" font-size="9.00">b1</text>
</g>
<!-- S23 -->
<g id="node24" class="node">
<title>S23</title>
<polygon fill="lightgrey" stroke="black" points="251,-299.5 197,-299.5 197,-259.5 251,-259.5 251,-299.5"/>
<path fill="#d3d3d3" stroke="none" d="M219.33,-263.5C219.33,-263.5 228.67,-263.5 228.67,-263.5 233.33,-263.5 238,-268.17 238,-272.83 238,-272.83 238,-286.17 238,-286.17 238,-290.83 233.33,-295.5 228.67,-295.5 228.67,-295.5 219.33,-295.5 219.33,-295.5 214.67,-295.5 210,-290.83 210,-286.17 210,-286.17 210,-272.83 210,-272.83 210,-268.17 214.67,-263.5 219.33,-263.5"/>
<text text-anchor="start" x="214.62" y="-282.1" font-family="Times,serif" font-size="12.00">S23</text>
<text text-anchor="start" x="212" y="-267.65" font-family="Times,serif" font-size="8.00">a&#39;, t1, b</text>
<polygon fill="black" stroke="black" points="210,-277.25 210,-277.25 238,-277.25 238,-277.25 210,-277.25"/>
</g>
<!-- S15&#45;&gt;S23 -->
<g id="edge31" class="edge">
<title>S15&#45;&gt;S23</title>
<path fill="none" stroke="black" d="M210.08,-345.83C212.28,-335.53 215.03,-322.59 217.51,-310.95"/>
<polygon fill="black" stroke="black" points="220.89,-311.88 219.55,-301.37 214.05,-310.42 220.89,-311.88"/>
<text text-anchor="middle" x="220.88" y="-319.45" font-family="Times,serif" font-size="9.00">a2&#39;</text>
</g>
<!-- S20 -->
<g id="node21" class="node">
<title>S20</title>
<polygon fill="lightgrey" stroke="black" points="130,-213 76,-213 76,-173 130,-173 130,-213"/>
<path fill="#d3d3d3" stroke="none" d="M98.08,-177C98.08,-177 107.92,-177 107.92,-177 112.83,-177 117.75,-181.92 117.75,-186.83 117.75,-186.83 117.75,-199.17 117.75,-199.17 117.75,-204.08 112.83,-209 107.92,-209 107.92,-209 98.08,-209 98.08,-209 93.17,-209 88.25,-204.08 88.25,-199.17 88.25,-199.17 88.25,-186.83 88.25,-186.83 88.25,-181.92 93.17,-177 98.08,-177"/>
<text text-anchor="start" x="93.62" y="-195.6" font-family="Times,serif" font-size="12.00">S20</text>
<text text-anchor="start" x="90.25" y="-181.15" font-family="Times,serif" font-size="8.00">t2&#39;, b&#39;, a</text>
<polygon fill="black" stroke="black" points="88.25,-190.75 88.25,-190.75 117.75,-190.75 117.75,-190.75 88.25,-190.75"/>
</g>
<!-- S16&#45;&gt;S20 -->
<g id="edge32" class="edge">
<title>S16&#45;&gt;S20</title>
<path fill="none" stroke="black" d="M140.11,-259.33C134.08,-248.71 126.45,-235.28 119.68,-223.36"/>
<polygon fill="black" stroke="black" points="122.75,-221.67 114.76,-214.71 116.66,-225.13 122.75,-221.67"/>
<text text-anchor="middle" x="133.12" y="-232.95" font-family="Times,serif" font-size="9.00">a2</text>
</g>
<!-- S24 -->
<g id="node25" class="node">
<title>S24</title>
<polygon fill="lightblue" stroke="black" points="202,-213 148,-213 148,-173 202,-173 202,-213"/>
<path fill="#add8e6" stroke="none" d="M170.33,-177C170.33,-177 179.67,-177 179.67,-177 184.33,-177 189,-181.67 189,-186.33 189,-186.33 189,-199.67 189,-199.67 189,-204.33 184.33,-209 179.67,-209 179.67,-209 170.33,-209 170.33,-209 165.67,-209 161,-204.33 161,-199.67 161,-199.67 161,-186.33 161,-186.33 161,-181.67 165.67,-177 170.33,-177"/>
<text text-anchor="start" x="165.62" y="-195.6" font-family="Times,serif" font-size="12.00">S24</text>
<text text-anchor="start" x="163" y="-181.15" font-family="Times,serif" font-size="8.00">a&#39;, t2, b</text>
<polygon fill="black" stroke="black" points="161,-190.75 161,-190.75 189,-190.75 189,-190.75 161,-190.75"/>
</g>
<!-- S16&#45;&gt;S24 -->
<g id="edge33" class="edge">
<title>S16&#45;&gt;S24</title>
<path fill="none" stroke="black" d="M156.45,-259.33C159.37,-249.03 163.05,-236.09 166.35,-224.45"/>
<polygon fill="black" stroke="black" points="169.71,-225.42 169.08,-214.85 162.98,-223.51 169.71,-225.42"/>
<text text-anchor="middle" x="168.88" y="-232.95" font-family="Times,serif" font-size="9.00">a2&#39;</text>
</g>
<!-- S17&#45;&gt;S18 -->
<g id="edge34" class="edge">
<title>S17&#45;&gt;S18</title>
<path fill="none" stroke="black" d="M33.81,-432.33C37.5,-421.92 42.15,-408.82 46.32,-397.09"/>
<polygon fill="black" stroke="black" points="49.56,-398.41 49.61,-387.82 42.97,-396.07 49.56,-398.41"/>
<text text-anchor="middle" x="48.88" y="-405.95" font-family="Times,serif" font-size="9.00">a1&#39;</text>
</g>
<!-- S18&#45;&gt;S19 -->
<g id="edge35" class="edge">
<title>S18&#45;&gt;S19</title>
<path fill="none" stroke="black" d="M61.77,-345.83C64.32,-335.53 67.54,-322.59 70.43,-310.95"/>
<polygon fill="black" stroke="black" points="73.8,-311.91 72.82,-301.36 67.01,-310.22 73.8,-311.91"/>
<text text-anchor="middle" x="74.25" y="-319.45" font-family="Times,serif" font-size="9.00">b2&#39;</text>
</g>
<!-- S19&#45;&gt;S20 -->
<g id="edge36" class="edge">
<title>S19&#45;&gt;S20</title>
<path fill="none" stroke="black" d="M83.67,-259.33C86.75,-248.92 90.63,-235.82 94.1,-224.09"/>
<polygon fill="black" stroke="black" points="97.35,-225.42 96.83,-214.84 90.64,-223.44 97.35,-225.42"/>
<text text-anchor="middle" x="97.25" y="-232.95" font-family="Times,serif" font-size="9.00">b1&#39;</text>
</g>
<!-- S25 -->
<g id="node26" class="node">
<title>S25</title>
<polygon fill="lightblue" stroke="black" points="165,-126.5 111,-126.5 111,-86.5 165,-86.5 165,-126.5"/>
<path fill="#add8e6" stroke="none" d="M134.21,-90.5C134.21,-90.5 141.79,-90.5 141.79,-90.5 145.58,-90.5 149.38,-94.29 149.38,-98.08 149.38,-98.08 149.38,-114.92 149.38,-114.92 149.38,-118.71 145.58,-122.5 141.79,-122.5 141.79,-122.5 134.21,-122.5 134.21,-122.5 130.42,-122.5 126.62,-118.71 126.62,-114.92 126.62,-114.92 126.62,-98.08 126.62,-98.08 126.62,-94.29 130.42,-90.5 134.21,-90.5"/>
<text text-anchor="start" x="128.62" y="-109.1" font-family="Times,serif" font-size="12.00">S25</text>
<text text-anchor="start" x="131.25" y="-94.65" font-family="Times,serif" font-size="8.00">a&#39;, a</text>
<polygon fill="black" stroke="black" points="126.62,-104.25 126.62,-104.25 149.38,-104.25 149.38,-104.25 126.62,-104.25"/>
</g>
<!-- S20&#45;&gt;S25 -->
<g id="edge37" class="edge">
<title>S20&#45;&gt;S25</title>
<path fill="none" stroke="black" d="M110.94,-172.83C115.3,-162.31 120.79,-149.05 125.69,-137.23"/>
<polygon fill="black" stroke="black" points="128.8,-138.87 129.39,-128.29 122.33,-136.19 128.8,-138.87"/>
<text text-anchor="middle" x="126.88" y="-146.45" font-family="Times,serif" font-size="9.00">a2&#39;</text>
</g>
<!-- S21&#45;&gt;S22 -->
<g id="edge38" class="edge">
<title>S21&#45;&gt;S22</title>
<path fill="none" stroke="black" d="M328.48,-432.33C320.19,-421.38 309.65,-407.46 300.42,-395.28"/>
<polygon fill="black" stroke="black" points="303.43,-393.46 294.6,-387.6 297.85,-397.68 303.43,-393.46"/>
<text text-anchor="middle" x="318.12" y="-405.95" font-family="Times,serif" font-size="9.00">a1</text>
</g>
<!-- S22&#45;&gt;S23 -->
<g id="edge39" class="edge">
<title>S22&#45;&gt;S23</title>
<path fill="none" stroke="black" d="M266.52,-345.83C259.54,-335.1 250.69,-321.51 242.88,-309.5"/>
<polygon fill="black" stroke="black" points="245.84,-307.63 237.45,-301.16 239.97,-311.45 245.84,-307.63"/>
<text text-anchor="middle" x="258.5" y="-319.45" font-family="Times,serif" font-size="9.00">b2</text>
</g>
<!-- S23&#45;&gt;S24 -->
<g id="edge40" class="edge">
<title>S23&#45;&gt;S24</title>
<path fill="none" stroke="black" d="M212.88,-259.33C206.66,-248.6 198.78,-235.01 191.82,-223"/>
<polygon fill="black" stroke="black" points="195.05,-221.6 187,-214.7 188.99,-225.11 195.05,-221.6"/>
<text text-anchor="middle" x="206.5" y="-232.95" font-family="Times,serif" font-size="9.00">b1</text>
</g>
<!-- S24&#45;&gt;S25 -->
<g id="edge41" class="edge">
<title>S24&#45;&gt;S25</title>
<path fill="none" stroke="black" d="M166.6,-172.83C162,-162.31 156.19,-149.05 151.02,-137.23"/>
<polygon fill="black" stroke="black" points="154.32,-136.03 147.1,-128.28 147.9,-138.84 154.32,-136.03"/>
<text text-anchor="middle" x="162.12" y="-146.45" font-family="Times,serif" font-size="9.00">a2</text>
</g>
<!-- S26 -->
<g id="node27" class="node">
<title>S26</title>
<polygon fill="lightblue" stroke="black" points="165,-40 111,-40 111,0 165,0 165,-40"/>
<path fill="#add8e6" stroke="none" d="M134.21,-4C134.21,-4 141.79,-4 141.79,-4 145.58,-4 149.38,-7.79 149.38,-11.58 149.38,-11.58 149.38,-28.42 149.38,-28.42 149.38,-32.21 145.58,-36 141.79,-36 141.79,-36 134.21,-36 134.21,-36 130.42,-36 126.62,-32.21 126.62,-28.42 126.62,-28.42 126.62,-11.58 126.62,-11.58 126.62,-7.79 130.42,-4 134.21,-4"/>
<text text-anchor="start" x="128.62" y="-22.6" font-family="Times,serif" font-size="12.00">S26</text>
<text text-anchor="start" x="130.88" y="-8.15" font-family="Times,serif" font-size="8.00">sync</text>
<polygon fill="black" stroke="black" points="126.62,-17.75 126.62,-17.75 149.38,-17.75 149.38,-17.75 126.62,-17.75"/>
</g>
<!-- S25&#45;&gt;S26 -->
<g id="edge42" class="edge">
<title>S25&#45;&gt;S26</title>
<path fill="none" stroke="black" d="M138,-86.33C138,-76.13 138,-63.36 138,-51.82"/>
<polygon fill="black" stroke="black" points="141.5,-51.9 138,-41.9 134.5,-51.9 141.5,-51.9"/>
<text text-anchor="middle" x="146.25" y="-59.95" font-family="Times,serif" font-size="9.00">sync</text>
</g>
</g>
</svg>
