<?xml version="1.0" encoding="UTF-8" standalone="no"?>
<!DOCTYPE svg PUBLIC "-//W3C//DTD SVG 1.1//EN"
 "http://www.w3.org/Graphics/SVG/1.1/DTD/svg11.dtd">
<!-- Generated by graphviz version 9.0.0 (20230911.1827)
 -->
<!-- Pages: 1 -->
<svg width="304pt" height="650pt"
 viewBox="0.00 0.00 304.00 649.50" xmlns="http://www.w3.org/2000/svg" xmlns:xlink="http://www.w3.org/1999/xlink">
<g id="graph0" class="graph" transform="scale(1 1) rotate(0) translate(4 645.5)">
<polygon fill="white" stroke="none" points="-4,4 -4,-645.5 300,-645.5 300,4 -4,4"/>
<!-- S0 -->
<g id="node1" class="node">
<title>S0</title>
<polygon fill="lightgrey" stroke="black" points="143,-641.5 89,-641.5 89,-605.5 143,-605.5 143,-641.5"/>
<path fill="#d3d3d3" stroke="none" d="M113.21,-614.38C113.21,-614.38 118.79,-614.38 118.79,-614.38 121.58,-614.38 124.38,-617.17 124.38,-619.96 124.38,-619.96 124.38,-627.04 124.38,-627.04 124.38,-629.83 121.58,-632.62 118.79,-632.62 118.79,-632.62 113.21,-632.62 113.21,-632.62 110.42,-632.62 107.62,-629.83 107.62,-627.04 107.62,-627.04 107.62,-619.96 107.62,-619.96 107.62,-617.17 110.42,-614.38 113.21,-614.38"/>
<text text-anchor="start" x="109.62" y="-619.23" font-family="Times,serif" font-size="12.00">S0</text>
</g>
<!-- S1 -->
<g id="node2" class="node">
<title>S1</title>
<polygon fill="lightblue" stroke="black" points="143,-559 89,-559 89,-519 143,-519 143,-559"/>
<path fill="#add8e6" stroke="none" d="M113.21,-523C113.21,-523 118.79,-523 118.79,-523 121.58,-523 124.38,-525.79 124.38,-528.58 124.38,-528.58 124.38,-549.42 124.38,-549.42 124.38,-552.21 121.58,-555 118.79,-555 118.79,-555 113.21,-555 113.21,-555 110.42,-555 107.62,-552.21 107.62,-549.42 107.62,-549.42 107.62,-528.58 107.62,-528.58 107.62,-525.79 110.42,-523 113.21,-523"/>
<text text-anchor="start" x="109.62" y="-541.6" font-family="Times,serif" font-size="12.00">S1</text>
<text text-anchor="start" x="110.75" y="-527.15" font-family="Times,serif" font-size="8.00">init</text>
<polygon fill="black" stroke="black" points="107.62,-536.75 107.62,-536.75 124.38,-536.75 124.38,-536.75 107.62,-536.75"/>
</g>
<!-- S0&#45;&gt;S1 -->
<g id="edge1" class="edge">
<title>S0&#45;&gt;S1</title>
<path fill="none" stroke="black" d="M116,-605C116,-595.1 116,-582.44 116,-570.92"/>
<polygon fill="black" stroke="black" points="119.5,-571.01 116,-561.01 112.5,-571.01 119.5,-571.01"/>
<text text-anchor="middle" x="121.62" y="-578.95" font-family="Times,serif" font-size="9.00">init</text>
</g>
<!-- S2 -->
<g id="node3" class="node">
<title>S2</title>
<polygon fill="lightblue" stroke="black" points="106.88,-472.5 47.12,-472.5 47.12,-432.5 106.88,-432.5 106.88,-472.5"/>
<path fill="#add8e6" stroke="none" d="M65.79,-436.5C65.79,-436.5 88.21,-436.5 88.21,-436.5 93.54,-436.5 98.88,-441.83 98.88,-447.17 98.88,-447.17 98.88,-457.83 98.88,-457.83 98.88,-463.17 93.54,-468.5 88.21,-468.5 88.21,-468.5 65.79,-468.5 65.79,-468.5 60.46,-468.5 55.12,-463.17 55.12,-457.83 55.12,-457.83 55.12,-447.17 55.12,-447.17 55.12,-441.83 60.46,-436.5 65.79,-436.5"/>
<text text-anchor="start" x="70.62" y="-455.1" font-family="Times,serif" font-size="12.00">S2</text>
<text text-anchor="start" x="57.12" y="-440.65" font-family="Times,serif" font-size="8.00">t2, t1, init, a</text>
<polygon fill="black" stroke="black" points="55.12,-450.25 55.12,-450.25 98.88,-450.25 98.88,-450.25 55.12,-450.25"/>
</g>
<!-- S1&#45;&gt;S2 -->
<g id="edge2" class="edge">
<title>S1&#45;&gt;S2</title>
<path fill="none" stroke="black" d="M107.15,-518.83C102.3,-508.31 96.18,-495.05 90.72,-483.23"/>
<polygon fill="black" stroke="black" points="93.95,-481.88 86.58,-474.27 87.6,-484.81 93.95,-481.88"/>
<text text-anchor="middle" x="102.12" y="-492.45" font-family="Times,serif" font-size="9.00">a1</text>
</g>
<!-- S3 -->
<g id="node4" class="node">
<title>S3</title>
<polygon fill="lightblue" stroke="black" points="189.12,-472.5 124.88,-472.5 124.88,-432.5 189.12,-432.5 189.12,-472.5"/>
<path fill="#add8e6" stroke="none" d="M143.54,-436.5C143.54,-436.5 170.46,-436.5 170.46,-436.5 175.79,-436.5 181.12,-441.83 181.12,-447.17 181.12,-447.17 181.12,-457.83 181.12,-457.83 181.12,-463.17 175.79,-468.5 170.46,-468.5 170.46,-468.5 143.54,-468.5 143.54,-468.5 138.21,-468.5 132.88,-463.17 132.88,-457.83 132.88,-457.83 132.88,-447.17 132.88,-447.17 132.88,-441.83 138.21,-436.5 143.54,-436.5"/>
<text text-anchor="start" x="150.62" y="-455.1" font-family="Times,serif" font-size="12.00">S3</text>
<text text-anchor="start" x="134.88" y="-440.65" font-family="Times,serif" font-size="8.00">a&#39;, init, t2&#39;, t1&#39;</text>
<polygon fill="black" stroke="black" points="132.88,-450.25 132.88,-450.25 181.12,-450.25 181.12,-450.25 132.88,-450.25"/>
</g>
<!-- S1&#45;&gt;S3 -->
<g id="edge3" class="edge">
<title>S1&#45;&gt;S3</title>
<path fill="none" stroke="black" d="M125.3,-518.83C130.4,-508.31 136.84,-495.05 142.58,-483.23"/>
<polygon fill="black" stroke="black" points="145.71,-484.78 146.93,-474.25 139.42,-481.72 145.71,-484.78"/>
<text text-anchor="middle" x="142.88" y="-492.45" font-family="Times,serif" font-size="9.00">a1&#39;</text>
</g>
<!-- S4 -->
<g id="node5" class="node">
<title>S4</title>
<polygon fill="lightblue" stroke="black" points="174.25,-386 95.75,-386 95.75,-346 174.25,-346 174.25,-386"/>
<path fill="#add8e6" stroke="none" d="M114.42,-350C114.42,-350 155.58,-350 155.58,-350 160.92,-350 166.25,-355.33 166.25,-360.67 166.25,-360.67 166.25,-371.33 166.25,-371.33 166.25,-376.67 160.92,-382 155.58,-382 155.58,-382 114.42,-382 114.42,-382 109.08,-382 103.75,-376.67 103.75,-371.33 103.75,-371.33 103.75,-360.67 103.75,-360.67 103.75,-355.33 109.08,-350 114.42,-350"/>
<text text-anchor="start" x="128.62" y="-368.6" font-family="Times,serif" font-size="12.00">S4</text>
<text text-anchor="start" x="105.75" y="-354.15" font-family="Times,serif" font-size="8.00">a&#39;, t2&#39;, t2, t1, a, t1&#39;</text>
<polygon fill="black" stroke="black" points="103.75,-363.75 103.75,-363.75 166.25,-363.75 166.25,-363.75 103.75,-363.75"/>
</g>
<!-- S2&#45;&gt;S4 -->
<g id="edge4" class="edge">
<title>S2&#45;&gt;S4</title>
<path fill="none" stroke="black" d="M90.16,-432.33C97.6,-421.49 107.04,-407.73 115.34,-395.64"/>
<polygon fill="black" stroke="black" points="118.06,-397.86 120.83,-387.64 112.29,-393.9 118.06,-397.86"/>
<text text-anchor="middle" x="113.88" y="-405.95" font-family="Times,serif" font-size="9.00">a1&#39;</text>
</g>
<!-- S5 -->
<g id="node6" class="node">
<title>S5</title>
<polygon fill="lightblue" stroke="black" points="78,-386 24,-386 24,-346 78,-346 78,-386"/>
<path fill="#add8e6" stroke="none" d="M45.04,-350C45.04,-350 56.96,-350 56.96,-350 62.29,-350 67.62,-355.33 67.62,-360.67 67.62,-360.67 67.62,-371.33 67.62,-371.33 67.62,-376.67 62.29,-382 56.96,-382 56.96,-382 45.04,-382 45.04,-382 39.71,-382 34.38,-376.67 34.38,-371.33 34.38,-371.33 34.38,-360.67 34.38,-360.67 34.38,-355.33 39.71,-350 45.04,-350"/>
<text text-anchor="start" x="44.62" y="-368.6" font-family="Times,serif" font-size="12.00">S5</text>
<text text-anchor="start" x="36.38" y="-354.15" font-family="Times,serif" font-size="8.00">init, t1, b</text>
<polygon fill="black" stroke="black" points="34.38,-363.75 34.38,-363.75 67.62,-363.75 67.62,-363.75 34.38,-363.75"/>
</g>
<!-- S2&#45;&gt;S5 -->
<g id="edge5" class="edge">
<title>S2&#45;&gt;S5</title>
<path fill="none" stroke="black" d="M71.1,-432.33C67.9,-421.92 63.87,-408.82 60.26,-397.09"/>
<polygon fill="black" stroke="black" points="63.7,-396.37 57.41,-387.84 57.01,-398.42 63.7,-396.37"/>
<text text-anchor="middle" x="70.5" y="-405.95" font-family="Times,serif" font-size="9.00">b2</text>
</g>
<!-- S3&#45;&gt;S4 -->
<g id="edge6" class="edge">
<title>S3&#45;&gt;S4</title>
<path fill="none" stroke="black" d="M152.01,-432.33C149.33,-422.03 145.96,-409.09 142.93,-397.45"/>
<polygon fill="black" stroke="black" points="146.34,-396.65 140.43,-387.86 139.56,-398.41 146.34,-396.65"/>
<text text-anchor="middle" x="151.12" y="-405.95" font-family="Times,serif" font-size="9.00">a1</text>
</g>
<!-- S7 -->
<g id="node8" class="node">
<title>S7</title>
<polygon fill="lightblue" stroke="black" points="246,-386 192,-386 192,-346 246,-346 246,-386"/>
<path fill="#add8e6" stroke="none" d="M211.54,-350C211.54,-350 226.46,-350 226.46,-350 231.79,-350 237.12,-355.33 237.12,-360.67 237.12,-360.67 237.12,-371.33 237.12,-371.33 237.12,-376.67 231.79,-382 226.46,-382 226.46,-382 211.54,-382 211.54,-382 206.21,-382 200.88,-376.67 200.88,-371.33 200.88,-371.33 200.88,-360.67 200.88,-360.67 200.88,-355.33 206.21,-350 211.54,-350"/>
<text text-anchor="start" x="212.62" y="-368.6" font-family="Times,serif" font-size="12.00">S7</text>
<text text-anchor="start" x="202.88" y="-354.15" font-family="Times,serif" font-size="8.00">t1&#39;, init, b&#39;</text>
<polygon fill="black" stroke="black" points="200.88,-363.75 200.88,-363.75 237.12,-363.75 237.12,-363.75 200.88,-363.75"/>
</g>
<!-- S3&#45;&gt;S7 -->
<g id="edge7" class="edge">
<title>S3&#45;&gt;S7</title>
<path fill="none" stroke="black" d="M171.07,-432.33C179.02,-421.49 189.11,-407.73 197.98,-395.64"/>
<polygon fill="black" stroke="black" points="200.78,-397.74 203.88,-387.61 195.14,-393.6 200.78,-397.74"/>
<text text-anchor="middle" x="196.25" y="-405.95" font-family="Times,serif" font-size="9.00">b2&#39;</text>
</g>
<!-- S6 -->
<g id="node7" class="node">
<title>S6</title>
<polygon fill="lightgrey" stroke="black" points="140,-299.5 72,-299.5 72,-259.5 140,-259.5 140,-299.5"/>
<path fill="#d3d3d3" stroke="none" d="M90.67,-263.5C90.67,-263.5 121.33,-263.5 121.33,-263.5 126.67,-263.5 132,-268.83 132,-274.17 132,-274.17 132,-284.83 132,-284.83 132,-290.17 126.67,-295.5 121.33,-295.5 121.33,-295.5 90.67,-295.5 90.67,-295.5 85.33,-295.5 80,-290.17 80,-284.83 80,-284.83 80,-274.17 80,-274.17 80,-268.83 85.33,-263.5 90.67,-263.5"/>
<text text-anchor="start" x="99.62" y="-282.1" font-family="Times,serif" font-size="12.00">S6</text>
<text text-anchor="start" x="82" y="-267.65" font-family="Times,serif" font-size="8.00">a&#39;, t2&#39;, b, t1, t1&#39;</text>
<polygon fill="black" stroke="black" points="80,-277.25 80,-277.25 132,-277.25 132,-277.25 80,-277.25"/>
</g>
<!-- S4&#45;&gt;S6 -->
<g id="edge8" class="edge">
<title>S4&#45;&gt;S6</title>
<path fill="none" stroke="black" d="M128.42,-345.83C124.85,-335.42 120.35,-322.32 116.33,-310.59"/>
<polygon fill="black" stroke="black" points="119.7,-309.64 113.15,-301.32 113.08,-311.92 119.7,-309.64"/>
<text text-anchor="middle" x="126.5" y="-319.45" font-family="Times,serif" font-size="9.00">b2</text>
</g>
<!-- S8 -->
<g id="node9" class="node">
<title>S8</title>
<polygon fill="lightblue" stroke="black" points="224.25,-299.5 157.75,-299.5 157.75,-259.5 224.25,-259.5 224.25,-299.5"/>
<path fill="#add8e6" stroke="none" d="M176.42,-263.5C176.42,-263.5 205.58,-263.5 205.58,-263.5 210.92,-263.5 216.25,-268.83 216.25,-274.17 216.25,-274.17 216.25,-284.83 216.25,-284.83 216.25,-290.17 210.92,-295.5 205.58,-295.5 205.58,-295.5 176.42,-295.5 176.42,-295.5 171.08,-295.5 165.75,-290.17 165.75,-284.83 165.75,-284.83 165.75,-274.17 165.75,-274.17 165.75,-268.83 171.08,-263.5 176.42,-263.5"/>
<text text-anchor="start" x="184.62" y="-282.1" font-family="Times,serif" font-size="12.00">S8</text>
<text text-anchor="start" x="167.75" y="-267.65" font-family="Times,serif" font-size="8.00">t2, t1, a, t1&#39;, b&#39;</text>
<polygon fill="black" stroke="black" points="165.75,-277.25 165.75,-277.25 216.25,-277.25 216.25,-277.25 165.75,-277.25"/>
</g>
<!-- S4&#45;&gt;S8 -->
<g id="edge9" class="edge">
<title>S4&#45;&gt;S8</title>
<path fill="none" stroke="black" d="M147.71,-345.83C154.89,-334.99 164,-321.23 172.02,-309.14"/>
<polygon fill="black" stroke="black" points="174.71,-311.42 177.31,-301.15 168.87,-307.55 174.71,-311.42"/>
<text text-anchor="middle" x="171.25" y="-319.45" font-family="Times,serif" font-size="9.00">b2&#39;</text>
</g>
<!-- S5&#45;&gt;S6 -->
<g id="edge10" class="edge">
<title>S5&#45;&gt;S6</title>
<path fill="none" stroke="black" d="M63.48,-345.83C70.46,-335.1 79.31,-321.51 87.12,-309.5"/>
<polygon fill="black" stroke="black" points="90.03,-311.45 92.55,-301.16 84.16,-307.63 90.03,-311.45"/>
<text text-anchor="middle" x="86.88" y="-319.45" font-family="Times,serif" font-size="9.00">a1&#39;</text>
</g>
<!-- S10 -->
<g id="node11" class="node">
<title>S10</title>
<polygon fill="lightblue" stroke="black" points="54,-299.5 0,-299.5 0,-259.5 54,-259.5 54,-299.5"/>
<path fill="#add8e6" stroke="none" d="M21.04,-263.5C21.04,-263.5 32.96,-263.5 32.96,-263.5 38.29,-263.5 43.62,-268.83 43.62,-274.17 43.62,-274.17 43.62,-284.83 43.62,-284.83 43.62,-290.17 38.29,-295.5 32.96,-295.5 32.96,-295.5 21.04,-295.5 21.04,-295.5 15.71,-295.5 10.38,-290.17 10.38,-284.83 10.38,-284.83 10.38,-274.17 10.38,-274.17 10.38,-268.83 15.71,-263.5 21.04,-263.5"/>
<text text-anchor="start" x="17.62" y="-282.1" font-family="Times,serif" font-size="12.00">S10</text>
<text text-anchor="start" x="12.38" y="-267.65" font-family="Times,serif" font-size="8.00">t2, init, b</text>
<polygon fill="black" stroke="black" points="10.38,-277.25 10.38,-277.25 43.62,-277.25 43.62,-277.25 10.38,-277.25"/>
</g>
<!-- S5&#45;&gt;S10 -->
<g id="edge11" class="edge">
<title>S5&#45;&gt;S10</title>
<path fill="none" stroke="black" d="M45.55,-345.83C42.63,-335.53 38.95,-322.59 35.65,-310.95"/>
<polygon fill="black" stroke="black" points="39.02,-310.01 32.92,-301.35 32.29,-311.92 39.02,-310.01"/>
<text text-anchor="middle" x="45.5" y="-319.45" font-family="Times,serif" font-size="9.00">b1</text>
</g>
<!-- S9 -->
<g id="node10" class="node">
<title>S9</title>
<polygon fill="lightblue" stroke="black" points="156,-213 100,-213 100,-173 156,-173 156,-213"/>
<path fill="#add8e6" stroke="none" d="M118.67,-177C118.67,-177 137.33,-177 137.33,-177 142.67,-177 148,-182.33 148,-187.67 148,-187.67 148,-198.33 148,-198.33 148,-203.67 142.67,-209 137.33,-209 137.33,-209 118.67,-209 118.67,-209 113.33,-209 108,-203.67 108,-198.33 108,-198.33 108,-187.67 108,-187.67 108,-182.33 113.33,-177 118.67,-177"/>
<text text-anchor="start" x="121.62" y="-195.6" font-family="Times,serif" font-size="12.00">S9</text>
<text text-anchor="start" x="110" y="-181.15" font-family="Times,serif" font-size="8.00">t1&#39;, t1, b&#39;, b</text>
<polygon fill="black" stroke="black" points="108,-190.75 108,-190.75 148,-190.75 148,-190.75 108,-190.75"/>
</g>
<!-- S6&#45;&gt;S9 -->
<g id="edge12" class="edge">
<title>S6&#45;&gt;S9</title>
<path fill="none" stroke="black" d="M110.99,-259.33C113.67,-249.03 117.04,-236.09 120.07,-224.45"/>
<polygon fill="black" stroke="black" points="123.44,-225.41 122.57,-214.86 116.66,-223.65 123.44,-225.41"/>
<text text-anchor="middle" x="123.25" y="-232.95" font-family="Times,serif" font-size="9.00">b2&#39;</text>
</g>
<!-- S11 -->
<g id="node12" class="node">
<title>S11</title>
<polygon fill="lightgrey" stroke="black" points="82,-213 14,-213 14,-173 82,-173 82,-213"/>
<path fill="#d3d3d3" stroke="none" d="M32.67,-177C32.67,-177 63.33,-177 63.33,-177 68.67,-177 74,-182.33 74,-187.67 74,-187.67 74,-198.33 74,-198.33 74,-203.67 68.67,-209 63.33,-209 63.33,-209 32.67,-209 32.67,-209 27.33,-209 22,-203.67 22,-198.33 22,-198.33 22,-187.67 22,-187.67 22,-182.33 27.33,-177 32.67,-177"/>
<text text-anchor="start" x="38.62" y="-195.6" font-family="Times,serif" font-size="12.00">S11</text>
<text text-anchor="start" x="24" y="-181.15" font-family="Times,serif" font-size="8.00">a&#39;, t2&#39;, b, t2, t1&#39;</text>
<polygon fill="black" stroke="black" points="22,-190.75 22,-190.75 74,-190.75 74,-190.75 22,-190.75"/>
</g>
<!-- S6&#45;&gt;S11 -->
<g id="edge13" class="edge">
<title>S6&#45;&gt;S11</title>
<path fill="none" stroke="black" d="M92.84,-259.33C85.4,-248.49 75.96,-234.73 67.66,-222.64"/>
<polygon fill="black" stroke="black" points="70.71,-220.9 62.17,-214.64 64.94,-224.86 70.71,-220.9"/>
<text text-anchor="middle" x="85.5" y="-232.95" font-family="Times,serif" font-size="9.00">b1</text>
</g>
<!-- S7&#45;&gt;S8 -->
<g id="edge14" class="edge">
<title>S7&#45;&gt;S8</title>
<path fill="none" stroke="black" d="M211.14,-345.53C208.97,-339.91 206.68,-333.74 204.75,-328 202.85,-322.35 200.96,-316.27 199.23,-310.4"/>
<polygon fill="black" stroke="black" points="202.66,-309.67 196.53,-301.02 195.93,-311.6 202.66,-309.67"/>
<text text-anchor="middle" x="208.12" y="-319.45" font-family="Times,serif" font-size="9.00">a1</text>
</g>
<!-- S13 -->
<g id="node14" class="node">
<title>S13</title>
<polygon fill="lightblue" stroke="black" points="296,-299.5 242,-299.5 242,-259.5 296,-259.5 296,-299.5"/>
<path fill="#add8e6" stroke="none" d="M261.54,-263.5C261.54,-263.5 276.46,-263.5 276.46,-263.5 281.79,-263.5 287.12,-268.83 287.12,-274.17 287.12,-274.17 287.12,-284.83 287.12,-284.83 287.12,-290.17 281.79,-295.5 276.46,-295.5 276.46,-295.5 261.54,-295.5 261.54,-295.5 256.21,-295.5 250.88,-290.17 250.88,-284.83 250.88,-284.83 250.88,-274.17 250.88,-274.17 250.88,-268.83 256.21,-263.5 261.54,-263.5"/>
<text text-anchor="start" x="259.62" y="-282.1" font-family="Times,serif" font-size="12.00">S13</text>
<text text-anchor="start" x="252.88" y="-267.65" font-family="Times,serif" font-size="8.00">init, t2&#39;, b&#39;</text>
<polygon fill="black" stroke="black" points="250.88,-277.25 250.88,-277.25 287.12,-277.25 287.12,-277.25 250.88,-277.25"/>
</g>
<!-- S7&#45;&gt;S13 -->
<g id="edge15" class="edge">
<title>S7&#45;&gt;S13</title>
<path fill="none" stroke="black" d="M230.35,-345.83C236.69,-335.1 244.74,-321.51 251.84,-309.5"/>
<polygon fill="black" stroke="black" points="254.67,-311.58 256.76,-301.19 248.65,-308.02 254.67,-311.58"/>
<text text-anchor="middle" x="251.25" y="-319.45" font-family="Times,serif" font-size="9.00">b1&#39;</text>
</g>
<!-- S8&#45;&gt;S9 -->
<g id="edge16" class="edge">
<title>S8&#45;&gt;S9</title>
<path fill="none" stroke="black" d="M176.7,-259.33C168.55,-248.38 158.17,-234.46 149.09,-222.28"/>
<polygon fill="black" stroke="black" points="152.15,-220.53 143.36,-214.6 146.53,-224.71 152.15,-220.53"/>
<text text-anchor="middle" x="167.5" y="-232.95" font-family="Times,serif" font-size="9.00">b2</text>
</g>
<!-- S14 -->
<g id="node15" class="node">
<title>S14</title>
<polygon fill="lightgrey" stroke="black" points="240.25,-213 173.75,-213 173.75,-173 240.25,-173 240.25,-213"/>
<path fill="#d3d3d3" stroke="none" d="M192.42,-177C192.42,-177 221.58,-177 221.58,-177 226.92,-177 232.25,-182.33 232.25,-187.67 232.25,-187.67 232.25,-198.33 232.25,-198.33 232.25,-203.67 226.92,-209 221.58,-209 221.58,-209 192.42,-209 192.42,-209 187.08,-209 181.75,-203.67 181.75,-198.33 181.75,-198.33 181.75,-187.67 181.75,-187.67 181.75,-182.33 187.08,-177 192.42,-177"/>
<text text-anchor="start" x="197.62" y="-195.6" font-family="Times,serif" font-size="12.00">S14</text>
<text text-anchor="start" x="183.75" y="-181.15" font-family="Times,serif" font-size="8.00">t2&#39;, t2, t1, a, b&#39;</text>
<polygon fill="black" stroke="black" points="181.75,-190.75 181.75,-190.75 232.25,-190.75 232.25,-190.75 181.75,-190.75"/>
</g>
<!-- S8&#45;&gt;S14 -->
<g id="edge17" class="edge">
<title>S8&#45;&gt;S14</title>
<path fill="none" stroke="black" d="M194.63,-259.33C196.58,-249.03 199.03,-236.09 201.23,-224.45"/>
<polygon fill="black" stroke="black" points="204.63,-225.35 203.05,-214.88 197.75,-224.05 204.63,-225.35"/>
<text text-anchor="middle" x="204.25" y="-232.95" font-family="Times,serif" font-size="9.00">b1&#39;</text>
</g>
<!-- S12 -->
<g id="node13" class="node">
<title>S12</title>
<polygon fill="lightgrey" stroke="black" points="104,-126.5 48,-126.5 48,-86.5 104,-86.5 104,-126.5"/>
<path fill="#d3d3d3" stroke="none" d="M66.67,-90.5C66.67,-90.5 85.33,-90.5 85.33,-90.5 90.67,-90.5 96,-95.83 96,-101.17 96,-101.17 96,-111.83 96,-111.83 96,-117.17 90.67,-122.5 85.33,-122.5 85.33,-122.5 66.67,-122.5 66.67,-122.5 61.33,-122.5 56,-117.17 56,-111.83 56,-111.83 56,-101.17 56,-101.17 56,-95.83 61.33,-90.5 66.67,-90.5"/>
<text text-anchor="start" x="66.62" y="-109.1" font-family="Times,serif" font-size="12.00">S12</text>
<text text-anchor="start" x="58" y="-94.65" font-family="Times,serif" font-size="8.00">t1&#39;, t2, b&#39;, b</text>
<polygon fill="black" stroke="black" points="56,-104.25 56,-104.25 96,-104.25 96,-104.25 56,-104.25"/>
</g>
<!-- S9&#45;&gt;S12 -->
<g id="edge18" class="edge">
<title>S9&#45;&gt;S12</title>
<path fill="none" stroke="black" d="M116.2,-172.83C109.6,-162.1 101.24,-148.51 93.85,-136.5"/>
<polygon fill="black" stroke="black" points="96.95,-134.86 88.73,-128.18 90.99,-138.53 96.95,-134.86"/>
<text text-anchor="middle" x="109.5" y="-146.45" font-family="Times,serif" font-size="9.00">b1</text>
</g>
<!-- S15 -->
<g id="node16" class="node">
<title>S15</title>
<polygon fill="lightblue" stroke="black" points="178,-126.5 122,-126.5 122,-86.5 178,-86.5 178,-126.5"/>
<path fill="#add8e6" stroke="none" d="M140.67,-90.5C140.67,-90.5 159.33,-90.5 159.33,-90.5 164.67,-90.5 170,-95.83 170,-101.17 170,-101.17 170,-111.83 170,-111.83 170,-117.17 164.67,-122.5 159.33,-122.5 159.33,-122.5 140.67,-122.5 140.67,-122.5 135.33,-122.5 130,-117.17 130,-111.83 130,-111.83 130,-101.17 130,-101.17 130,-95.83 135.33,-90.5 140.67,-90.5"/>
<text text-anchor="start" x="140.62" y="-109.1" font-family="Times,serif" font-size="12.00">S15</text>
<text text-anchor="start" x="132" y="-94.65" font-family="Times,serif" font-size="8.00">t2&#39;, t1, b&#39;, b</text>
<polygon fill="black" stroke="black" points="130,-104.25 130,-104.25 170,-104.25 170,-104.25 130,-104.25"/>
</g>
<!-- S9&#45;&gt;S15 -->
<g id="edge19" class="edge">
<title>S9&#45;&gt;S15</title>
<path fill="none" stroke="black" d="M132.99,-172.83C135.67,-162.53 139.04,-149.59 142.07,-137.95"/>
<polygon fill="black" stroke="black" points="145.44,-138.91 144.57,-128.36 138.66,-137.15 145.44,-138.91"/>
<text text-anchor="middle" x="145.25" y="-146.45" font-family="Times,serif" font-size="9.00">b1&#39;</text>
</g>
<!-- S10&#45;&gt;S11 -->
<g id="edge20" class="edge">
<title>S10&#45;&gt;S11</title>
<path fill="none" stroke="black" d="M31.77,-259.33C34.32,-249.03 37.54,-236.09 40.43,-224.45"/>
<polygon fill="black" stroke="black" points="43.8,-225.41 42.82,-214.86 37.01,-223.72 43.8,-225.41"/>
<text text-anchor="middle" x="43.88" y="-232.95" font-family="Times,serif" font-size="9.00">a1&#39;</text>
</g>
<!-- S11&#45;&gt;S12 -->
<g id="edge21" class="edge">
<title>S11&#45;&gt;S12</title>
<path fill="none" stroke="black" d="M54.35,-172.83C57.8,-162.42 62.14,-149.32 66.03,-137.59"/>
<polygon fill="black" stroke="black" points="69.28,-138.92 69.1,-128.33 62.63,-136.72 69.28,-138.92"/>
<text text-anchor="middle" x="69.25" y="-146.45" font-family="Times,serif" font-size="9.00">b2&#39;</text>
</g>
<!-- S16 -->
<g id="node17" class="node">
<title>S16</title>
<polygon fill="lightblue" stroke="black" points="141,-40 85,-40 85,0 141,0 141,-40"/>
<path fill="#add8e6" stroke="none" d="M103.67,-4C103.67,-4 122.33,-4 122.33,-4 127.67,-4 133,-9.33 133,-14.67 133,-14.67 133,-25.33 133,-25.33 133,-30.67 127.67,-36 122.33,-36 122.33,-36 103.67,-36 103.67,-36 98.33,-36 93,-30.67 93,-25.33 93,-25.33 93,-14.67 93,-14.67 93,-9.33 98.33,-4 103.67,-4"/>
<text text-anchor="start" x="103.62" y="-22.6" font-family="Times,serif" font-size="12.00">S16</text>
<text text-anchor="start" x="95" y="-8.15" font-family="Times,serif" font-size="8.00">t2, t2&#39;, b&#39;, b</text>
<polygon fill="black" stroke="black" points="93,-17.75 93,-17.75 133,-17.75 133,-17.75 93,-17.75"/>
</g>
<!-- S12&#45;&gt;S16 -->
<g id="edge22" class="edge">
<title>S12&#45;&gt;S16</title>
<path fill="none" stroke="black" d="M84.4,-86.33C89,-75.81 94.81,-62.55 99.98,-50.73"/>
<polygon fill="black" stroke="black" points="103.1,-52.34 103.9,-41.78 96.68,-49.53 103.1,-52.34"/>
<text text-anchor="middle" x="101.25" y="-59.95" font-family="Times,serif" font-size="9.00">b1&#39;</text>
</g>
<!-- S13&#45;&gt;S14 -->
<g id="edge23" class="edge">
<title>S13&#45;&gt;S14</title>
<path fill="none" stroke="black" d="M254.93,-259.33C246.98,-248.49 236.89,-234.73 228.02,-222.64"/>
<polygon fill="black" stroke="black" points="230.86,-220.6 222.12,-214.61 225.22,-224.74 230.86,-220.6"/>
<text text-anchor="middle" x="245.12" y="-232.95" font-family="Times,serif" font-size="9.00">a1</text>
</g>
<!-- S14&#45;&gt;S15 -->
<g id="edge24" class="edge">
<title>S14&#45;&gt;S15</title>
<path fill="none" stroke="black" d="M194.07,-172.83C186.76,-161.99 177.48,-148.23 169.32,-136.14"/>
<polygon fill="black" stroke="black" points="172.42,-134.48 163.93,-128.15 166.62,-138.39 172.42,-134.48"/>
<text text-anchor="middle" x="185.5" y="-146.45" font-family="Times,serif" font-size="9.00">b2</text>
</g>
<!-- S15&#45;&gt;S16 -->
<g id="edge25" class="edge">
<title>S15&#45;&gt;S16</title>
<path fill="none" stroke="black" d="M141.6,-86.33C137,-75.81 131.19,-62.55 126.02,-50.73"/>
<polygon fill="black" stroke="black" points="129.32,-49.53 122.1,-41.78 122.9,-52.34 129.32,-49.53"/>
<text text-anchor="middle" x="137.5" y="-59.95" font-family="Times,serif" font-size="9.00">b1</text>
</g>
</g>
</svg>
