<?xml version="1.0" encoding="UTF-8" standalone="no"?>
<!DOCTYPE svg PUBLIC "-//W3C//DTD SVG 1.1//EN"
 "http://www.w3.org/Graphics/SVG/1.1/DTD/svg11.dtd">
<!-- Generated by graphviz version 9.0.0 (20230911.1827)
 -->
<!-- Pages: 1 -->
<svg width="306pt" height="736pt"
 viewBox="0.00 0.00 306.25 736.00" xmlns="http://www.w3.org/2000/svg" xmlns:xlink="http://www.w3.org/1999/xlink">
<g id="graph0" class="graph" transform="scale(1 1) rotate(0) translate(4 732)">
<polygon fill="white" stroke="none" points="-4,4 -4,-732 302.25,-732 302.25,4 -4,4"/>
<!-- S0 -->
<g id="node1" class="node">
<title>S0</title>
<polygon fill="lightgrey" stroke="black" points="143,-728 89,-728 89,-692 143,-692 143,-728"/>
<path fill="#d3d3d3" stroke="none" d="M113.21,-700.88C113.21,-700.88 118.79,-700.88 118.79,-700.88 121.58,-700.88 124.38,-703.67 124.38,-706.46 124.38,-706.46 124.38,-713.54 124.38,-713.54 124.38,-716.33 121.58,-719.12 118.79,-719.12 118.79,-719.12 113.21,-719.12 113.21,-719.12 110.42,-719.12 107.62,-716.33 107.62,-713.54 107.62,-713.54 107.62,-706.46 107.62,-706.46 107.62,-703.67 110.42,-700.88 113.21,-700.88"/>
<text text-anchor="start" x="109.62" y="-705.73" font-family="Times,serif" font-size="12.00">S0</text>
</g>
<!-- S1 -->
<g id="node2" class="node">
<title>S1</title>
<polygon fill="lightblue" stroke="black" points="143,-645.5 89,-645.5 89,-605.5 143,-605.5 143,-645.5"/>
<path fill="#add8e6" stroke="none" d="M113.21,-609.5C113.21,-609.5 118.79,-609.5 118.79,-609.5 121.58,-609.5 124.38,-612.29 124.38,-615.08 124.38,-615.08 124.38,-635.92 124.38,-635.92 124.38,-638.71 121.58,-641.5 118.79,-641.5 118.79,-641.5 113.21,-641.5 113.21,-641.5 110.42,-641.5 107.62,-638.71 107.62,-635.92 107.62,-635.92 107.62,-615.08 107.62,-615.08 107.62,-612.29 110.42,-609.5 113.21,-609.5"/>
<text text-anchor="start" x="109.62" y="-628.1" font-family="Times,serif" font-size="12.00">S1</text>
<text text-anchor="start" x="110.75" y="-613.65" font-family="Times,serif" font-size="8.00">init</text>
<polygon fill="black" stroke="black" points="107.62,-623.25 107.62,-623.25 124.38,-623.25 124.38,-623.25 107.62,-623.25"/>
</g>
<!-- S0&#45;&gt;S1 -->
<g id="edge1" class="edge">
<title>S0&#45;&gt;S1</title>
<path fill="none" stroke="black" d="M116,-691.5C116,-681.6 116,-668.94 116,-657.42"/>
<polygon fill="black" stroke="black" points="119.5,-657.51 116,-647.51 112.5,-657.51 119.5,-657.51"/>
<text text-anchor="middle" x="121.62" y="-665.45" font-family="Times,serif" font-size="9.00">init</text>
</g>
<!-- S2 -->
<g id="node3" class="node">
<title>S2</title>
<polygon fill="lightblue" stroke="black" points="106.88,-559 47.12,-559 47.12,-519 106.88,-519 106.88,-559"/>
<path fill="#add8e6" stroke="none" d="M65.79,-523C65.79,-523 88.21,-523 88.21,-523 93.54,-523 98.88,-528.33 98.88,-533.67 98.88,-533.67 98.88,-544.33 98.88,-544.33 98.88,-549.67 93.54,-555 88.21,-555 88.21,-555 65.79,-555 65.79,-555 60.46,-555 55.12,-549.67 55.12,-544.33 55.12,-544.33 55.12,-533.67 55.12,-533.67 55.12,-528.33 60.46,-523 65.79,-523"/>
<text text-anchor="start" x="70.62" y="-541.6" font-family="Times,serif" font-size="12.00">S2</text>
<text text-anchor="start" x="57.12" y="-527.15" font-family="Times,serif" font-size="8.00">t2, t1, init, a</text>
<polygon fill="black" stroke="black" points="55.12,-536.75 55.12,-536.75 98.88,-536.75 98.88,-536.75 55.12,-536.75"/>
</g>
<!-- S1&#45;&gt;S2 -->
<g id="edge2" class="edge">
<title>S1&#45;&gt;S2</title>
<path fill="none" stroke="black" d="M107.15,-605.33C102.3,-594.81 96.18,-581.55 90.72,-569.73"/>
<polygon fill="black" stroke="black" points="93.95,-568.38 86.58,-560.77 87.6,-571.31 93.95,-568.38"/>
<text text-anchor="middle" x="103.12" y="-578.95" font-family="Times,serif" font-size="9.00">a1</text>
</g>
<!-- S3 -->
<g id="node4" class="node">
<title>S3</title>
<polygon fill="lightblue" stroke="black" points="189.12,-559 124.88,-559 124.88,-519 189.12,-519 189.12,-559"/>
<path fill="#add8e6" stroke="none" d="M143.54,-523C143.54,-523 170.46,-523 170.46,-523 175.79,-523 181.12,-528.33 181.12,-533.67 181.12,-533.67 181.12,-544.33 181.12,-544.33 181.12,-549.67 175.79,-555 170.46,-555 170.46,-555 143.54,-555 143.54,-555 138.21,-555 132.88,-549.67 132.88,-544.33 132.88,-544.33 132.88,-533.67 132.88,-533.67 132.88,-528.33 138.21,-523 143.54,-523"/>
<text text-anchor="start" x="150.62" y="-541.6" font-family="Times,serif" font-size="12.00">S3</text>
<text text-anchor="start" x="134.88" y="-527.15" font-family="Times,serif" font-size="8.00">a&#39;, init, t2&#39;, t1&#39;</text>
<polygon fill="black" stroke="black" points="132.88,-536.75 132.88,-536.75 181.12,-536.75 181.12,-536.75 132.88,-536.75"/>
</g>
<!-- S1&#45;&gt;S3 -->
<g id="edge3" class="edge">
<title>S1&#45;&gt;S3</title>
<path fill="none" stroke="black" d="M125.3,-605.33C130.4,-594.81 136.84,-581.55 142.58,-569.73"/>
<polygon fill="black" stroke="black" points="145.71,-571.28 146.93,-560.75 139.42,-568.22 145.71,-571.28"/>
<text text-anchor="middle" x="143.88" y="-578.95" font-family="Times,serif" font-size="9.00">a1&#39;</text>
</g>
<!-- S4 -->
<g id="node5" class="node">
<title>S4</title>
<polygon fill="lightblue" stroke="black" points="174.25,-472.5 95.75,-472.5 95.75,-432.5 174.25,-432.5 174.25,-472.5"/>
<path fill="#add8e6" stroke="none" d="M114.42,-436.5C114.42,-436.5 155.58,-436.5 155.58,-436.5 160.92,-436.5 166.25,-441.83 166.25,-447.17 166.25,-447.17 166.25,-457.83 166.25,-457.83 166.25,-463.17 160.92,-468.5 155.58,-468.5 155.58,-468.5 114.42,-468.5 114.42,-468.5 109.08,-468.5 103.75,-463.17 103.75,-457.83 103.75,-457.83 103.75,-447.17 103.75,-447.17 103.75,-441.83 109.08,-436.5 114.42,-436.5"/>
<text text-anchor="start" x="128.62" y="-455.1" font-family="Times,serif" font-size="12.00">S4</text>
<text text-anchor="start" x="105.75" y="-440.65" font-family="Times,serif" font-size="8.00">a&#39;, t2&#39;, t2, t1, a, t1&#39;</text>
<polygon fill="black" stroke="black" points="103.75,-450.25 103.75,-450.25 166.25,-450.25 166.25,-450.25 103.75,-450.25"/>
</g>
<!-- S2&#45;&gt;S4 -->
<g id="edge4" class="edge">
<title>S2&#45;&gt;S4</title>
<path fill="none" stroke="black" d="M90.16,-518.83C97.6,-507.99 107.04,-494.23 115.34,-482.14"/>
<polygon fill="black" stroke="black" points="118.06,-484.36 120.83,-474.14 112.29,-480.4 118.06,-484.36"/>
<text text-anchor="middle" x="114.88" y="-492.45" font-family="Times,serif" font-size="9.00">a1&#39;</text>
</g>
<!-- S5 -->
<g id="node6" class="node">
<title>S5</title>
<polygon fill="lightblue" stroke="black" points="78,-472.5 24,-472.5 24,-432.5 78,-432.5 78,-472.5"/>
<path fill="#add8e6" stroke="none" d="M45.04,-436.5C45.04,-436.5 56.96,-436.5 56.96,-436.5 62.29,-436.5 67.62,-441.83 67.62,-447.17 67.62,-447.17 67.62,-457.83 67.62,-457.83 67.62,-463.17 62.29,-468.5 56.96,-468.5 56.96,-468.5 45.04,-468.5 45.04,-468.5 39.71,-468.5 34.38,-463.17 34.38,-457.83 34.38,-457.83 34.38,-447.17 34.38,-447.17 34.38,-441.83 39.71,-436.5 45.04,-436.5"/>
<text text-anchor="start" x="44.62" y="-455.1" font-family="Times,serif" font-size="12.00">S5</text>
<text text-anchor="start" x="36.38" y="-440.65" font-family="Times,serif" font-size="8.00">init, t1, b</text>
<polygon fill="black" stroke="black" points="34.38,-450.25 34.38,-450.25 67.62,-450.25 67.62,-450.25 34.38,-450.25"/>
</g>
<!-- S2&#45;&gt;S5 -->
<g id="edge5" class="edge">
<title>S2&#45;&gt;S5</title>
<path fill="none" stroke="black" d="M71.1,-518.83C67.9,-508.42 63.87,-495.32 60.26,-483.59"/>
<polygon fill="black" stroke="black" points="63.7,-482.87 57.41,-474.34 57.01,-484.92 63.7,-482.87"/>
<text text-anchor="middle" x="70.5" y="-492.45" font-family="Times,serif" font-size="9.00">b2</text>
</g>
<!-- S3&#45;&gt;S4 -->
<g id="edge6" class="edge">
<title>S3&#45;&gt;S4</title>
<path fill="none" stroke="black" d="M152.01,-518.83C149.33,-508.53 145.96,-495.59 142.93,-483.95"/>
<polygon fill="black" stroke="black" points="146.34,-483.15 140.43,-474.36 139.56,-484.91 146.34,-483.15"/>
<text text-anchor="middle" x="152.12" y="-492.45" font-family="Times,serif" font-size="9.00">a1</text>
</g>
<!-- S7 -->
<g id="node8" class="node">
<title>S7</title>
<polygon fill="lightblue" stroke="black" points="246,-472.5 192,-472.5 192,-432.5 246,-432.5 246,-472.5"/>
<path fill="#add8e6" stroke="none" d="M211.54,-436.5C211.54,-436.5 226.46,-436.5 226.46,-436.5 231.79,-436.5 237.12,-441.83 237.12,-447.17 237.12,-447.17 237.12,-457.83 237.12,-457.83 237.12,-463.17 231.79,-468.5 226.46,-468.5 226.46,-468.5 211.54,-468.5 211.54,-468.5 206.21,-468.5 200.88,-463.17 200.88,-457.83 200.88,-457.83 200.88,-447.17 200.88,-447.17 200.88,-441.83 206.21,-436.5 211.54,-436.5"/>
<text text-anchor="start" x="212.62" y="-455.1" font-family="Times,serif" font-size="12.00">S7</text>
<text text-anchor="start" x="202.88" y="-440.65" font-family="Times,serif" font-size="8.00">t1&#39;, init, b&#39;</text>
<polygon fill="black" stroke="black" points="200.88,-450.25 200.88,-450.25 237.12,-450.25 237.12,-450.25 200.88,-450.25"/>
</g>
<!-- S3&#45;&gt;S7 -->
<g id="edge7" class="edge">
<title>S3&#45;&gt;S7</title>
<path fill="none" stroke="black" d="M171.07,-518.83C179.02,-507.99 189.11,-494.23 197.98,-482.14"/>
<polygon fill="black" stroke="black" points="200.78,-484.24 203.88,-474.11 195.14,-480.1 200.78,-484.24"/>
<text text-anchor="middle" x="196.25" y="-492.45" font-family="Times,serif" font-size="9.00">b2&#39;</text>
</g>
<!-- S6 -->
<g id="node7" class="node">
<title>S6</title>
<polygon fill="lightgrey" stroke="black" points="140,-386 72,-386 72,-346 140,-346 140,-386"/>
<path fill="#d3d3d3" stroke="none" d="M90.67,-350C90.67,-350 121.33,-350 121.33,-350 126.67,-350 132,-355.33 132,-360.67 132,-360.67 132,-371.33 132,-371.33 132,-376.67 126.67,-382 121.33,-382 121.33,-382 90.67,-382 90.67,-382 85.33,-382 80,-376.67 80,-371.33 80,-371.33 80,-360.67 80,-360.67 80,-355.33 85.33,-350 90.67,-350"/>
<text text-anchor="start" x="99.62" y="-368.6" font-family="Times,serif" font-size="12.00">S6</text>
<text text-anchor="start" x="82" y="-354.15" font-family="Times,serif" font-size="8.00">a&#39;, t2&#39;, b, t1, t1&#39;</text>
<polygon fill="black" stroke="black" points="80,-363.75 80,-363.75 132,-363.75 132,-363.75 80,-363.75"/>
</g>
<!-- S4&#45;&gt;S6 -->
<g id="edge8" class="edge">
<title>S4&#45;&gt;S6</title>
<path fill="none" stroke="black" d="M128.42,-432.33C124.85,-421.92 120.35,-408.82 116.33,-397.09"/>
<polygon fill="black" stroke="black" points="119.7,-396.14 113.15,-387.82 113.08,-398.42 119.7,-396.14"/>
<text text-anchor="middle" x="127.5" y="-405.95" font-family="Times,serif" font-size="9.00">b2</text>
</g>
<!-- S8 -->
<g id="node9" class="node">
<title>S8</title>
<polygon fill="lightblue" stroke="black" points="224.25,-386 157.75,-386 157.75,-346 224.25,-346 224.25,-386"/>
<path fill="#add8e6" stroke="none" d="M176.42,-350C176.42,-350 205.58,-350 205.58,-350 210.92,-350 216.25,-355.33 216.25,-360.67 216.25,-360.67 216.25,-371.33 216.25,-371.33 216.25,-376.67 210.92,-382 205.58,-382 205.58,-382 176.42,-382 176.42,-382 171.08,-382 165.75,-376.67 165.75,-371.33 165.75,-371.33 165.75,-360.67 165.75,-360.67 165.75,-355.33 171.08,-350 176.42,-350"/>
<text text-anchor="start" x="184.62" y="-368.6" font-family="Times,serif" font-size="12.00">S8</text>
<text text-anchor="start" x="167.75" y="-354.15" font-family="Times,serif" font-size="8.00">t2, t1, a, t1&#39;, b&#39;</text>
<polygon fill="black" stroke="black" points="165.75,-363.75 165.75,-363.75 216.25,-363.75 216.25,-363.75 165.75,-363.75"/>
</g>
<!-- S4&#45;&gt;S8 -->
<g id="edge9" class="edge">
<title>S4&#45;&gt;S8</title>
<path fill="none" stroke="black" d="M147.71,-432.33C154.89,-421.49 164,-407.73 172.02,-395.64"/>
<polygon fill="black" stroke="black" points="174.71,-397.92 177.31,-387.65 168.87,-394.05 174.71,-397.92"/>
<text text-anchor="middle" x="172.25" y="-405.95" font-family="Times,serif" font-size="9.00">b2&#39;</text>
</g>
<!-- S5&#45;&gt;S6 -->
<g id="edge10" class="edge">
<title>S5&#45;&gt;S6</title>
<path fill="none" stroke="black" d="M63.48,-432.33C70.46,-421.6 79.31,-408.01 87.12,-396"/>
<polygon fill="black" stroke="black" points="90.03,-397.95 92.55,-387.66 84.16,-394.13 90.03,-397.95"/>
<text text-anchor="middle" x="86.88" y="-405.95" font-family="Times,serif" font-size="9.00">a1&#39;</text>
</g>
<!-- S10 -->
<g id="node11" class="node">
<title>S10</title>
<polygon fill="lightblue" stroke="black" points="54,-386 0,-386 0,-346 54,-346 54,-386"/>
<path fill="#add8e6" stroke="none" d="M21.04,-350C21.04,-350 32.96,-350 32.96,-350 38.29,-350 43.62,-355.33 43.62,-360.67 43.62,-360.67 43.62,-371.33 43.62,-371.33 43.62,-376.67 38.29,-382 32.96,-382 32.96,-382 21.04,-382 21.04,-382 15.71,-382 10.38,-376.67 10.38,-371.33 10.38,-371.33 10.38,-360.67 10.38,-360.67 10.38,-355.33 15.71,-350 21.04,-350"/>
<text text-anchor="start" x="17.62" y="-368.6" font-family="Times,serif" font-size="12.00">S10</text>
<text text-anchor="start" x="12.38" y="-354.15" font-family="Times,serif" font-size="8.00">t2, init, b</text>
<polygon fill="black" stroke="black" points="10.38,-363.75 10.38,-363.75 43.62,-363.75 43.62,-363.75 10.38,-363.75"/>
</g>
<!-- S5&#45;&gt;S10 -->
<g id="edge11" class="edge">
<title>S5&#45;&gt;S10</title>
<path fill="none" stroke="black" d="M45.55,-432.33C42.63,-422.03 38.95,-409.09 35.65,-397.45"/>
<polygon fill="black" stroke="black" points="39.02,-396.51 32.92,-387.85 32.29,-398.42 39.02,-396.51"/>
<text text-anchor="middle" x="45.5" y="-405.95" font-family="Times,serif" font-size="9.00">b1</text>
</g>
<!-- S9 -->
<g id="node10" class="node">
<title>S9</title>
<polygon fill="lightblue" stroke="black" points="214,-299.5 158,-299.5 158,-259.5 214,-259.5 214,-299.5"/>
<path fill="#add8e6" stroke="none" d="M176.67,-263.5C176.67,-263.5 195.33,-263.5 195.33,-263.5 200.67,-263.5 206,-268.83 206,-274.17 206,-274.17 206,-284.83 206,-284.83 206,-290.17 200.67,-295.5 195.33,-295.5 195.33,-295.5 176.67,-295.5 176.67,-295.5 171.33,-295.5 166,-290.17 166,-284.83 166,-284.83 166,-274.17 166,-274.17 166,-268.83 171.33,-263.5 176.67,-263.5"/>
<text text-anchor="start" x="179.62" y="-282.1" font-family="Times,serif" font-size="12.00">S9</text>
<text text-anchor="start" x="168" y="-267.65" font-family="Times,serif" font-size="8.00">t1&#39;, t1, b&#39;, b</text>
<polygon fill="black" stroke="black" points="166,-277.25 166,-277.25 206,-277.25 206,-277.25 166,-277.25"/>
</g>
<!-- S6&#45;&gt;S9 -->
<g id="edge12" class="edge">
<title>S6&#45;&gt;S9</title>
<path fill="none" stroke="black" d="M124.15,-345.83C134.72,-334.67 148.21,-320.42 159.9,-308.07"/>
<polygon fill="black" stroke="black" points="162.27,-310.66 166.6,-300.99 157.18,-305.85 162.27,-310.66"/>
<text text-anchor="middle" x="156.25" y="-319.45" font-family="Times,serif" font-size="9.00">b2&#39;</text>
</g>
<!-- S11 -->
<g id="node12" class="node">
<title>S11</title>
<polygon fill="lightgrey" stroke="black" points="140,-299.5 72,-299.5 72,-259.5 140,-259.5 140,-299.5"/>
<path fill="#d3d3d3" stroke="none" d="M90.67,-263.5C90.67,-263.5 121.33,-263.5 121.33,-263.5 126.67,-263.5 132,-268.83 132,-274.17 132,-274.17 132,-284.83 132,-284.83 132,-290.17 126.67,-295.5 121.33,-295.5 121.33,-295.5 90.67,-295.5 90.67,-295.5 85.33,-295.5 80,-290.17 80,-284.83 80,-284.83 80,-274.17 80,-274.17 80,-268.83 85.33,-263.5 90.67,-263.5"/>
<text text-anchor="start" x="96.62" y="-282.1" font-family="Times,serif" font-size="12.00">S11</text>
<text text-anchor="start" x="82" y="-267.65" font-family="Times,serif" font-size="8.00">a&#39;, t2&#39;, b, t2, t1&#39;</text>
<polygon fill="black" stroke="black" points="80,-277.25 80,-277.25 132,-277.25 132,-277.25 80,-277.25"/>
</g>
<!-- S6&#45;&gt;S11 -->
<g id="edge13" class="edge">
<title>S6&#45;&gt;S11</title>
<path fill="none" stroke="black" d="M106,-345.83C106,-335.63 106,-322.86 106,-311.32"/>
<polygon fill="black" stroke="black" points="109.5,-311.4 106,-301.4 102.5,-311.4 109.5,-311.4"/>
<text text-anchor="middle" x="110.5" y="-319.45" font-family="Times,serif" font-size="9.00">b1</text>
</g>
<!-- S7&#45;&gt;S8 -->
<g id="edge14" class="edge">
<title>S7&#45;&gt;S8</title>
<path fill="none" stroke="black" d="M211.14,-432.03C208.97,-426.41 206.68,-420.24 204.75,-414.5 202.85,-408.85 200.96,-402.77 199.23,-396.9"/>
<polygon fill="black" stroke="black" points="202.66,-396.17 196.53,-387.52 195.93,-398.1 202.66,-396.17"/>
<text text-anchor="middle" x="208.12" y="-405.95" font-family="Times,serif" font-size="9.00">a1</text>
</g>
<!-- S13 -->
<g id="node14" class="node">
<title>S13</title>
<polygon fill="lightblue" stroke="black" points="296,-386 242,-386 242,-346 296,-346 296,-386"/>
<path fill="#add8e6" stroke="none" d="M261.54,-350C261.54,-350 276.46,-350 276.46,-350 281.79,-350 287.12,-355.33 287.12,-360.67 287.12,-360.67 287.12,-371.33 287.12,-371.33 287.12,-376.67 281.79,-382 276.46,-382 276.46,-382 261.54,-382 261.54,-382 256.21,-382 250.88,-376.67 250.88,-371.33 250.88,-371.33 250.88,-360.67 250.88,-360.67 250.88,-355.33 256.21,-350 261.54,-350"/>
<text text-anchor="start" x="259.62" y="-368.6" font-family="Times,serif" font-size="12.00">S13</text>
<text text-anchor="start" x="252.88" y="-354.15" font-family="Times,serif" font-size="8.00">init, t2&#39;, b&#39;</text>
<polygon fill="black" stroke="black" points="250.88,-363.75 250.88,-363.75 287.12,-363.75 287.12,-363.75 250.88,-363.75"/>
</g>
<!-- S7&#45;&gt;S13 -->
<g id="edge15" class="edge">
<title>S7&#45;&gt;S13</title>
<path fill="none" stroke="black" d="M230.35,-432.33C236.69,-421.6 244.74,-408.01 251.84,-396"/>
<polygon fill="black" stroke="black" points="254.67,-398.08 256.76,-387.69 248.65,-394.52 254.67,-398.08"/>
<text text-anchor="middle" x="251.25" y="-405.95" font-family="Times,serif" font-size="9.00">b1&#39;</text>
</g>
<!-- S8&#45;&gt;S9 -->
<g id="edge16" class="edge">
<title>S8&#45;&gt;S9</title>
<path fill="none" stroke="black" d="M189.87,-345.83C189.26,-335.63 188.51,-322.86 187.82,-311.32"/>
<polygon fill="black" stroke="black" points="191.32,-311.18 187.24,-301.4 184.33,-311.59 191.32,-311.18"/>
<text text-anchor="middle" x="192.5" y="-319.45" font-family="Times,serif" font-size="9.00">b2</text>
</g>
<!-- S14 -->
<g id="node15" class="node">
<title>S14</title>
<polygon fill="lightgrey" stroke="black" points="298.25,-299.5 231.75,-299.5 231.75,-259.5 298.25,-259.5 298.25,-299.5"/>
<path fill="#d3d3d3" stroke="none" d="M250.42,-263.5C250.42,-263.5 279.58,-263.5 279.58,-263.5 284.92,-263.5 290.25,-268.83 290.25,-274.17 290.25,-274.17 290.25,-284.83 290.25,-284.83 290.25,-290.17 284.92,-295.5 279.58,-295.5 279.58,-295.5 250.42,-295.5 250.42,-295.5 245.08,-295.5 239.75,-290.17 239.75,-284.83 239.75,-284.83 239.75,-274.17 239.75,-274.17 239.75,-268.83 245.08,-263.5 250.42,-263.5"/>
<text text-anchor="start" x="255.62" y="-282.1" font-family="Times,serif" font-size="12.00">S14</text>
<text text-anchor="start" x="241.75" y="-267.65" font-family="Times,serif" font-size="8.00">t2&#39;, t2, t1, a, b&#39;</text>
<polygon fill="black" stroke="black" points="239.75,-277.25 239.75,-277.25 290.25,-277.25 290.25,-277.25 239.75,-277.25"/>
</g>
<!-- S8&#45;&gt;S14 -->
<g id="edge17" class="edge">
<title>S8&#45;&gt;S14</title>
<path fill="none" stroke="black" d="M207.79,-345.83C217.47,-334.78 229.8,-320.69 240.54,-308.43"/>
<polygon fill="black" stroke="black" points="243.07,-310.86 247.02,-301.03 237.8,-306.25 243.07,-310.86"/>
<text text-anchor="middle" x="237.25" y="-319.45" font-family="Times,serif" font-size="9.00">b1&#39;</text>
</g>
<!-- S12 -->
<g id="node13" class="node">
<title>S12</title>
<polygon fill="lightgrey" stroke="black" points="153,-213 97,-213 97,-173 153,-173 153,-213"/>
<path fill="#d3d3d3" stroke="none" d="M115.67,-177C115.67,-177 134.33,-177 134.33,-177 139.67,-177 145,-182.33 145,-187.67 145,-187.67 145,-198.33 145,-198.33 145,-203.67 139.67,-209 134.33,-209 134.33,-209 115.67,-209 115.67,-209 110.33,-209 105,-203.67 105,-198.33 105,-198.33 105,-187.67 105,-187.67 105,-182.33 110.33,-177 115.67,-177"/>
<text text-anchor="start" x="115.62" y="-195.6" font-family="Times,serif" font-size="12.00">S12</text>
<text text-anchor="start" x="107" y="-181.15" font-family="Times,serif" font-size="8.00">t1&#39;, t2, b&#39;, b</text>
<polygon fill="black" stroke="black" points="105,-190.75 105,-190.75 145,-190.75 145,-190.75 105,-190.75"/>
</g>
<!-- S9&#45;&gt;S12 -->
<g id="edge18" class="edge">
<title>S9&#45;&gt;S12</title>
<path fill="none" stroke="black" d="M172.16,-259.33C164.34,-248.49 154.41,-234.73 145.68,-222.64"/>
<polygon fill="black" stroke="black" points="148.58,-220.68 139.88,-214.62 142.9,-224.77 148.58,-220.68"/>
<text text-anchor="middle" x="164.5" y="-232.95" font-family="Times,serif" font-size="9.00">b1</text>
</g>
<!-- S15 -->
<g id="node16" class="node">
<title>S15</title>
<polygon fill="lightblue" stroke="black" points="227,-213 171,-213 171,-173 227,-173 227,-213"/>
<path fill="#add8e6" stroke="none" d="M189.67,-177C189.67,-177 208.33,-177 208.33,-177 213.67,-177 219,-182.33 219,-187.67 219,-187.67 219,-198.33 219,-198.33 219,-203.67 213.67,-209 208.33,-209 208.33,-209 189.67,-209 189.67,-209 184.33,-209 179,-203.67 179,-198.33 179,-198.33 179,-187.67 179,-187.67 179,-182.33 184.33,-177 189.67,-177"/>
<text text-anchor="start" x="189.62" y="-195.6" font-family="Times,serif" font-size="12.00">S15</text>
<text text-anchor="start" x="181" y="-181.15" font-family="Times,serif" font-size="8.00">t2&#39;, t1, b&#39;, b</text>
<polygon fill="black" stroke="black" points="179,-190.75 179,-190.75 219,-190.75 219,-190.75 179,-190.75"/>
</g>
<!-- S9&#45;&gt;S15 -->
<g id="edge19" class="edge">
<title>S9&#45;&gt;S15</title>
<path fill="none" stroke="black" d="M188.95,-259.33C190.53,-249.03 192.52,-236.09 194.32,-224.45"/>
<polygon fill="black" stroke="black" points="197.73,-225.3 195.79,-214.89 190.81,-224.24 197.73,-225.3"/>
<text text-anchor="middle" x="198.25" y="-232.95" font-family="Times,serif" font-size="9.00">b1&#39;</text>
</g>
<!-- S10&#45;&gt;S11 -->
<g id="edge20" class="edge">
<title>S10&#45;&gt;S11</title>
<path fill="none" stroke="black" d="M44.93,-345.83C55.36,-334.67 68.68,-320.42 80.22,-308.07"/>
<polygon fill="black" stroke="black" points="82.56,-310.69 86.84,-301 77.45,-305.91 82.56,-310.69"/>
<text text-anchor="middle" x="76.88" y="-319.45" font-family="Times,serif" font-size="9.00">a1&#39;</text>
</g>
<!-- S17 -->
<g id="node18" class="node">
<title>S17</title>
<polygon fill="lightblue" stroke="black" points="54,-299.5 0,-299.5 0,-259.5 54,-259.5 54,-299.5"/>
<path fill="#add8e6" stroke="none" d="M23.21,-263.5C23.21,-263.5 30.79,-263.5 30.79,-263.5 34.58,-263.5 38.38,-267.29 38.38,-271.08 38.38,-271.08 38.38,-287.92 38.38,-287.92 38.38,-291.71 34.58,-295.5 30.79,-295.5 30.79,-295.5 23.21,-295.5 23.21,-295.5 19.42,-295.5 15.62,-291.71 15.62,-287.92 15.62,-287.92 15.62,-271.08 15.62,-271.08 15.62,-267.29 19.42,-263.5 23.21,-263.5"/>
<text text-anchor="start" x="17.62" y="-282.1" font-family="Times,serif" font-size="12.00">S17</text>
<text text-anchor="start" x="17.62" y="-267.65" font-family="Times,serif" font-size="8.00">init, a</text>
<polygon fill="black" stroke="black" points="15.62,-277.25 15.62,-277.25 38.38,-277.25 38.38,-277.25 15.62,-277.25"/>
</g>
<!-- S10&#45;&gt;S17 -->
<g id="edge21" class="edge">
<title>S10&#45;&gt;S17</title>
<path fill="none" stroke="black" d="M27,-345.83C27,-335.63 27,-322.86 27,-311.32"/>
<polygon fill="black" stroke="black" points="30.5,-311.4 27,-301.4 23.5,-311.4 30.5,-311.4"/>
<text text-anchor="middle" x="31.12" y="-319.45" font-family="Times,serif" font-size="9.00">a2</text>
</g>
<!-- S11&#45;&gt;S12 -->
<g id="edge22" class="edge">
<title>S11&#45;&gt;S12</title>
<path fill="none" stroke="black" d="M110.31,-259.33C112.63,-249.03 115.54,-236.09 118.15,-224.45"/>
<polygon fill="black" stroke="black" points="121.53,-225.39 120.31,-214.87 114.7,-223.86 121.53,-225.39"/>
<text text-anchor="middle" x="122.25" y="-232.95" font-family="Times,serif" font-size="9.00">b2&#39;</text>
</g>
<!-- S18 -->
<g id="node19" class="node">
<title>S18</title>
<polygon fill="lightgrey" stroke="black" points="78.75,-213 21.25,-213 21.25,-173 78.75,-173 78.75,-213"/>
<path fill="#d3d3d3" stroke="none" d="M39.92,-177C39.92,-177 60.08,-177 60.08,-177 65.42,-177 70.75,-182.33 70.75,-187.67 70.75,-187.67 70.75,-198.33 70.75,-198.33 70.75,-203.67 65.42,-209 60.08,-209 60.08,-209 39.92,-209 39.92,-209 34.58,-209 29.25,-203.67 29.25,-198.33 29.25,-198.33 29.25,-187.67 29.25,-187.67 29.25,-182.33 34.58,-177 39.92,-177"/>
<text text-anchor="start" x="40.62" y="-195.6" font-family="Times,serif" font-size="12.00">S18</text>
<text text-anchor="start" x="31.25" y="-181.15" font-family="Times,serif" font-size="8.00">a&#39;, t2&#39;, t1&#39;, a</text>
<polygon fill="black" stroke="black" points="29.25,-190.75 29.25,-190.75 70.75,-190.75 70.75,-190.75 29.25,-190.75"/>
</g>
<!-- S11&#45;&gt;S18 -->
<g id="edge23" class="edge">
<title>S11&#45;&gt;S18</title>
<path fill="none" stroke="black" d="M93.29,-259.33C86.11,-248.49 77,-234.73 68.98,-222.64"/>
<polygon fill="black" stroke="black" points="72.13,-221.05 63.69,-214.65 66.29,-224.92 72.13,-221.05"/>
<text text-anchor="middle" x="86.12" y="-232.95" font-family="Times,serif" font-size="9.00">a2</text>
</g>
<!-- S16 -->
<g id="node17" class="node">
<title>S16</title>
<polygon fill="lightblue" stroke="black" points="177,-126.5 121,-126.5 121,-86.5 177,-86.5 177,-126.5"/>
<path fill="#add8e6" stroke="none" d="M139.67,-90.5C139.67,-90.5 158.33,-90.5 158.33,-90.5 163.67,-90.5 169,-95.83 169,-101.17 169,-101.17 169,-111.83 169,-111.83 169,-117.17 163.67,-122.5 158.33,-122.5 158.33,-122.5 139.67,-122.5 139.67,-122.5 134.33,-122.5 129,-117.17 129,-111.83 129,-111.83 129,-101.17 129,-101.17 129,-95.83 134.33,-90.5 139.67,-90.5"/>
<text text-anchor="start" x="139.62" y="-109.1" font-family="Times,serif" font-size="12.00">S16</text>
<text text-anchor="start" x="131" y="-94.65" font-family="Times,serif" font-size="8.00">t2, t2&#39;, b&#39;, b</text>
<polygon fill="black" stroke="black" points="129,-104.25 129,-104.25 169,-104.25 169,-104.25 129,-104.25"/>
</g>
<!-- S12&#45;&gt;S16 -->
<g id="edge24" class="edge">
<title>S12&#45;&gt;S16</title>
<path fill="none" stroke="black" d="M130.45,-172.83C133.37,-162.53 137.05,-149.59 140.35,-137.95"/>
<polygon fill="black" stroke="black" points="143.71,-138.92 143.08,-128.35 136.98,-137.01 143.71,-138.92"/>
<text text-anchor="middle" x="144.25" y="-146.45" font-family="Times,serif" font-size="9.00">b1&#39;</text>
</g>
<!-- S19 -->
<g id="node20" class="node">
<title>S19</title>
<polygon fill="lightgrey" stroke="black" points="103,-126.5 49,-126.5 49,-86.5 103,-86.5 103,-126.5"/>
<path fill="#d3d3d3" stroke="none" d="M71.08,-90.5C71.08,-90.5 80.92,-90.5 80.92,-90.5 85.83,-90.5 90.75,-95.42 90.75,-100.33 90.75,-100.33 90.75,-112.67 90.75,-112.67 90.75,-117.58 85.83,-122.5 80.92,-122.5 80.92,-122.5 71.08,-122.5 71.08,-122.5 66.17,-122.5 61.25,-117.58 61.25,-112.67 61.25,-112.67 61.25,-100.33 61.25,-100.33 61.25,-95.42 66.17,-90.5 71.08,-90.5"/>
<text text-anchor="start" x="66.62" y="-109.1" font-family="Times,serif" font-size="12.00">S19</text>
<text text-anchor="start" x="63.25" y="-94.65" font-family="Times,serif" font-size="8.00">t1&#39;, b&#39;, a</text>
<polygon fill="black" stroke="black" points="61.25,-104.25 61.25,-104.25 90.75,-104.25 90.75,-104.25 61.25,-104.25"/>
</g>
<!-- S12&#45;&gt;S19 -->
<g id="edge25" class="edge">
<title>S12&#45;&gt;S19</title>
<path fill="none" stroke="black" d="M113.88,-172.83C107.66,-162.1 99.78,-148.51 92.82,-136.5"/>
<polygon fill="black" stroke="black" points="96.05,-135.1 88,-128.2 89.99,-138.61 96.05,-135.1"/>
<text text-anchor="middle" x="108.12" y="-146.45" font-family="Times,serif" font-size="9.00">a2</text>
</g>
<!-- S13&#45;&gt;S14 -->
<g id="edge26" class="edge">
<title>S13&#45;&gt;S14</title>
<path fill="none" stroke="black" d="M268.09,-345.83C267.61,-335.63 267.01,-322.86 266.46,-311.32"/>
<polygon fill="black" stroke="black" points="269.96,-311.23 265.99,-301.4 262.97,-311.56 269.96,-311.23"/>
<text text-anchor="middle" x="271.12" y="-319.45" font-family="Times,serif" font-size="9.00">a1</text>
</g>
<!-- S14&#45;&gt;S15 -->
<g id="edge27" class="edge">
<title>S14&#45;&gt;S15</title>
<path fill="none" stroke="black" d="M250.02,-259.33C241.48,-248.38 230.6,-234.46 221.09,-222.28"/>
<polygon fill="black" stroke="black" points="223.99,-220.31 215.08,-214.58 218.47,-224.62 223.99,-220.31"/>
<text text-anchor="middle" x="239.5" y="-232.95" font-family="Times,serif" font-size="9.00">b2</text>
</g>
<!-- S15&#45;&gt;S16 -->
<g id="edge28" class="edge">
<title>S15&#45;&gt;S16</title>
<path fill="none" stroke="black" d="M187.65,-172.83C181.31,-162.1 173.26,-148.51 166.16,-136.5"/>
<polygon fill="black" stroke="black" points="169.35,-135.02 161.24,-128.19 163.33,-138.58 169.35,-135.02"/>
<text text-anchor="middle" x="181.5" y="-146.45" font-family="Times,serif" font-size="9.00">b1</text>
</g>
<!-- S20 -->
<g id="node21" class="node">
<title>S20</title>
<polygon fill="lightgrey" stroke="black" points="139,-40 85,-40 85,0 139,0 139,-40"/>
<path fill="#d3d3d3" stroke="none" d="M107.08,-4C107.08,-4 116.92,-4 116.92,-4 121.83,-4 126.75,-8.92 126.75,-13.83 126.75,-13.83 126.75,-26.17 126.75,-26.17 126.75,-31.08 121.83,-36 116.92,-36 116.92,-36 107.08,-36 107.08,-36 102.17,-36 97.25,-31.08 97.25,-26.17 97.25,-26.17 97.25,-13.83 97.25,-13.83 97.25,-8.92 102.17,-4 107.08,-4"/>
<text text-anchor="start" x="102.62" y="-22.6" font-family="Times,serif" font-size="12.00">S20</text>
<text text-anchor="start" x="99.25" y="-8.15" font-family="Times,serif" font-size="8.00">t2&#39;, b&#39;, a</text>
<polygon fill="black" stroke="black" points="97.25,-17.75 97.25,-17.75 126.75,-17.75 126.75,-17.75 97.25,-17.75"/>
</g>
<!-- S16&#45;&gt;S20 -->
<g id="edge29" class="edge">
<title>S16&#45;&gt;S20</title>
<path fill="none" stroke="black" d="M140.6,-86.33C136,-75.81 130.19,-62.55 125.02,-50.73"/>
<polygon fill="black" stroke="black" points="128.32,-49.53 121.1,-41.78 121.9,-52.34 128.32,-49.53"/>
<text text-anchor="middle" x="137.12" y="-59.95" font-family="Times,serif" font-size="9.00">a2</text>
</g>
<!-- S17&#45;&gt;S18 -->
<g id="edge30" class="edge">
<title>S17&#45;&gt;S18</title>
<path fill="none" stroke="black" d="M32.22,-259.33C35.02,-249.03 38.54,-236.09 41.71,-224.45"/>
<polygon fill="black" stroke="black" points="45.08,-225.42 44.32,-214.85 38.32,-223.58 45.08,-225.42"/>
<text text-anchor="middle" x="44.88" y="-232.95" font-family="Times,serif" font-size="9.00">a1&#39;</text>
</g>
<!-- S18&#45;&gt;S19 -->
<g id="edge31" class="edge">
<title>S18&#45;&gt;S19</title>
<path fill="none" stroke="black" d="M55.9,-172.83C59.1,-162.42 63.13,-149.32 66.74,-137.59"/>
<polygon fill="black" stroke="black" points="69.99,-138.92 69.59,-128.34 63.3,-136.87 69.99,-138.92"/>
<text text-anchor="middle" x="70.25" y="-146.45" font-family="Times,serif" font-size="9.00">b2&#39;</text>
</g>
<!-- S19&#45;&gt;S20 -->
<g id="edge32" class="edge">
<title>S19&#45;&gt;S20</title>
<path fill="none" stroke="black" d="M84.17,-86.33C88.65,-75.81 94.3,-62.55 99.34,-50.73"/>
<polygon fill="black" stroke="black" points="102.45,-52.36 103.15,-41.78 96.01,-49.61 102.45,-52.36"/>
<text text-anchor="middle" x="102.25" y="-59.95" font-family="Times,serif" font-size="9.00">b1&#39;</text>
</g>
</g>
</svg>
