<?xml version="1.0" encoding="UTF-8" standalone="no"?>
<!DOCTYPE svg PUBLIC "-//W3C//DTD SVG 1.1//EN"
 "http://www.w3.org/Graphics/SVG/1.1/DTD/svg11.dtd">
<!-- Generated by graphviz version 9.0.0 (20230911.1827)
 -->
<!-- Pages: 1 -->
<svg width="230pt" height="477pt"
 viewBox="0.00 0.00 230.00 476.50" xmlns="http://www.w3.org/2000/svg" xmlns:xlink="http://www.w3.org/1999/xlink">
<g id="graph0" class="graph" transform="scale(1 1) rotate(0) translate(4 472.5)">
<polygon fill="white" stroke="none" points="-4,4 -4,-472.5 226,-472.5 226,4 -4,4"/>
<!-- S0 -->
<g id="node1" class="node">
<title>S0</title>
<polygon fill="lightgrey" stroke="black" points="119,-468.5 65,-468.5 65,-432.5 119,-432.5 119,-468.5"/>
<path fill="#d3d3d3" stroke="none" d="M89.21,-441.38C89.21,-441.38 94.79,-441.38 94.79,-441.38 97.58,-441.38 100.38,-444.17 100.38,-446.96 100.38,-446.96 100.38,-454.04 100.38,-454.04 100.38,-456.83 97.58,-459.62 94.79,-459.62 94.79,-459.62 89.21,-459.62 89.21,-459.62 86.42,-459.62 83.62,-456.83 83.62,-454.04 83.62,-454.04 83.62,-446.96 83.62,-446.96 83.62,-444.17 86.42,-441.38 89.21,-441.38"/>
<text text-anchor="start" x="85.62" y="-446.23" font-family="Times,serif" font-size="12.00">S0</text>
</g>
<!-- S1 -->
<g id="node2" class="node">
<title>S1</title>
<polygon fill="lightblue" stroke="black" points="119,-386 65,-386 65,-346 119,-346 119,-386"/>
<path fill="#add8e6" stroke="none" d="M89.21,-350C89.21,-350 94.79,-350 94.79,-350 97.58,-350 100.38,-352.79 100.38,-355.58 100.38,-355.58 100.38,-376.42 100.38,-376.42 100.38,-379.21 97.58,-382 94.79,-382 94.79,-382 89.21,-382 89.21,-382 86.42,-382 83.62,-379.21 83.62,-376.42 83.62,-376.42 83.62,-355.58 83.62,-355.58 83.62,-352.79 86.42,-350 89.21,-350"/>
<text text-anchor="start" x="85.62" y="-368.6" font-family="Times,serif" font-size="12.00">S1</text>
<text text-anchor="start" x="86.75" y="-354.15" font-family="Times,serif" font-size="8.00">init</text>
<polygon fill="black" stroke="black" points="83.62,-363.75 83.62,-363.75 100.38,-363.75 100.38,-363.75 83.62,-363.75"/>
</g>
<!-- S0&#45;&gt;S1 -->
<g id="edge1" class="edge">
<title>S0&#45;&gt;S1</title>
<path fill="none" stroke="black" d="M92,-432C92,-422.1 92,-409.44 92,-397.92"/>
<polygon fill="black" stroke="black" points="95.5,-398.01 92,-388.01 88.5,-398.01 95.5,-398.01"/>
<text text-anchor="middle" x="97.62" y="-405.95" font-family="Times,serif" font-size="9.00">init</text>
</g>
<!-- S2 -->
<g id="node3" class="node">
<title>S2</title>
<polygon fill="lightblue" stroke="black" points="82.88,-299.5 23.13,-299.5 23.13,-259.5 82.88,-259.5 82.88,-299.5"/>
<path fill="#add8e6" stroke="none" d="M41.79,-263.5C41.79,-263.5 64.21,-263.5 64.21,-263.5 69.54,-263.5 74.88,-268.83 74.88,-274.17 74.88,-274.17 74.88,-284.83 74.88,-284.83 74.88,-290.17 69.54,-295.5 64.21,-295.5 64.21,-295.5 41.79,-295.5 41.79,-295.5 36.46,-295.5 31.12,-290.17 31.12,-284.83 31.12,-284.83 31.12,-274.17 31.12,-274.17 31.12,-268.83 36.46,-263.5 41.79,-263.5"/>
<text text-anchor="start" x="46.62" y="-282.1" font-family="Times,serif" font-size="12.00">S2</text>
<text text-anchor="start" x="33.12" y="-267.65" font-family="Times,serif" font-size="8.00">t2, t1, init, a</text>
<polygon fill="black" stroke="black" points="31.12,-277.25 31.12,-277.25 74.88,-277.25 74.88,-277.25 31.12,-277.25"/>
</g>
<!-- S1&#45;&gt;S2 -->
<g id="edge2" class="edge">
<title>S1&#45;&gt;S2</title>
<path fill="none" stroke="black" d="M83.15,-345.83C78.3,-335.31 72.18,-322.05 66.72,-310.23"/>
<polygon fill="black" stroke="black" points="69.95,-308.88 62.58,-301.27 63.6,-311.81 69.95,-308.88"/>
<text text-anchor="middle" x="78.12" y="-319.45" font-family="Times,serif" font-size="9.00">a1</text>
</g>
<!-- S3 -->
<g id="node4" class="node">
<title>S3</title>
<polygon fill="lightblue" stroke="black" points="165.12,-299.5 100.88,-299.5 100.88,-259.5 165.12,-259.5 165.12,-299.5"/>
<path fill="#add8e6" stroke="none" d="M119.54,-263.5C119.54,-263.5 146.46,-263.5 146.46,-263.5 151.79,-263.5 157.12,-268.83 157.12,-274.17 157.12,-274.17 157.12,-284.83 157.12,-284.83 157.12,-290.17 151.79,-295.5 146.46,-295.5 146.46,-295.5 119.54,-295.5 119.54,-295.5 114.21,-295.5 108.88,-290.17 108.88,-284.83 108.88,-284.83 108.88,-274.17 108.88,-274.17 108.88,-268.83 114.21,-263.5 119.54,-263.5"/>
<text text-anchor="start" x="126.62" y="-282.1" font-family="Times,serif" font-size="12.00">S3</text>
<text text-anchor="start" x="110.88" y="-267.65" font-family="Times,serif" font-size="8.00">a&#39;, init, t2&#39;, t1&#39;</text>
<polygon fill="black" stroke="black" points="108.88,-277.25 108.88,-277.25 157.12,-277.25 157.12,-277.25 108.88,-277.25"/>
</g>
<!-- S1&#45;&gt;S3 -->
<g id="edge3" class="edge">
<title>S1&#45;&gt;S3</title>
<path fill="none" stroke="black" d="M101.3,-345.83C106.4,-335.31 112.84,-322.05 118.58,-310.23"/>
<polygon fill="black" stroke="black" points="121.71,-311.78 122.93,-301.25 115.42,-308.72 121.71,-311.78"/>
<text text-anchor="middle" x="118.88" y="-319.45" font-family="Times,serif" font-size="9.00">a1&#39;</text>
</g>
<!-- S4 -->
<g id="node5" class="node">
<title>S4</title>
<polygon fill="lightblue" stroke="black" points="150.25,-213 71.75,-213 71.75,-173 150.25,-173 150.25,-213"/>
<path fill="#add8e6" stroke="none" d="M90.42,-177C90.42,-177 131.58,-177 131.58,-177 136.92,-177 142.25,-182.33 142.25,-187.67 142.25,-187.67 142.25,-198.33 142.25,-198.33 142.25,-203.67 136.92,-209 131.58,-209 131.58,-209 90.42,-209 90.42,-209 85.08,-209 79.75,-203.67 79.75,-198.33 79.75,-198.33 79.75,-187.67 79.75,-187.67 79.75,-182.33 85.08,-177 90.42,-177"/>
<text text-anchor="start" x="104.62" y="-195.6" font-family="Times,serif" font-size="12.00">S4</text>
<text text-anchor="start" x="81.75" y="-181.15" font-family="Times,serif" font-size="8.00">a&#39;, t2&#39;, t2, t1, a, t1&#39;</text>
<polygon fill="black" stroke="black" points="79.75,-190.75 79.75,-190.75 142.25,-190.75 142.25,-190.75 79.75,-190.75"/>
</g>
<!-- S2&#45;&gt;S4 -->
<g id="edge4" class="edge">
<title>S2&#45;&gt;S4</title>
<path fill="none" stroke="black" d="M66.16,-259.33C73.6,-248.49 83.04,-234.73 91.34,-222.64"/>
<polygon fill="black" stroke="black" points="94.06,-224.86 96.83,-214.64 88.29,-220.9 94.06,-224.86"/>
<text text-anchor="middle" x="89.88" y="-232.95" font-family="Times,serif" font-size="9.00">a1&#39;</text>
</g>
<!-- S5 -->
<g id="node6" class="node">
<title>S5</title>
<polygon fill="lightblue" stroke="black" points="54,-213 0,-213 0,-173 54,-173 54,-213"/>
<path fill="#add8e6" stroke="none" d="M21.04,-177C21.04,-177 32.96,-177 32.96,-177 38.29,-177 43.62,-182.33 43.62,-187.67 43.62,-187.67 43.62,-198.33 43.62,-198.33 43.62,-203.67 38.29,-209 32.96,-209 32.96,-209 21.04,-209 21.04,-209 15.71,-209 10.38,-203.67 10.38,-198.33 10.38,-198.33 10.38,-187.67 10.38,-187.67 10.38,-182.33 15.71,-177 21.04,-177"/>
<text text-anchor="start" x="20.62" y="-195.6" font-family="Times,serif" font-size="12.00">S5</text>
<text text-anchor="start" x="12.38" y="-181.15" font-family="Times,serif" font-size="8.00">init, t1, b</text>
<polygon fill="black" stroke="black" points="10.38,-190.75 10.38,-190.75 43.62,-190.75 43.62,-190.75 10.38,-190.75"/>
</g>
<!-- S2&#45;&gt;S5 -->
<g id="edge5" class="edge">
<title>S2&#45;&gt;S5</title>
<path fill="none" stroke="black" d="M47.1,-259.33C43.9,-248.92 39.87,-235.82 36.26,-224.09"/>
<polygon fill="black" stroke="black" points="39.7,-223.37 33.41,-214.84 33.01,-225.42 39.7,-223.37"/>
<text text-anchor="middle" x="46.5" y="-232.95" font-family="Times,serif" font-size="9.00">b2</text>
</g>
<!-- S3&#45;&gt;S4 -->
<g id="edge6" class="edge">
<title>S3&#45;&gt;S4</title>
<path fill="none" stroke="black" d="M128.01,-259.33C125.33,-249.03 121.96,-236.09 118.93,-224.45"/>
<polygon fill="black" stroke="black" points="122.34,-223.65 116.43,-214.86 115.56,-225.41 122.34,-223.65"/>
<text text-anchor="middle" x="127.12" y="-232.95" font-family="Times,serif" font-size="9.00">a1</text>
</g>
<!-- S7 -->
<g id="node8" class="node">
<title>S7</title>
<polygon fill="lightblue" stroke="black" points="222,-213 168,-213 168,-173 222,-173 222,-213"/>
<path fill="#add8e6" stroke="none" d="M187.54,-177C187.54,-177 202.46,-177 202.46,-177 207.79,-177 213.12,-182.33 213.12,-187.67 213.12,-187.67 213.12,-198.33 213.12,-198.33 213.12,-203.67 207.79,-209 202.46,-209 202.46,-209 187.54,-209 187.54,-209 182.21,-209 176.88,-203.67 176.88,-198.33 176.88,-198.33 176.88,-187.67 176.88,-187.67 176.88,-182.33 182.21,-177 187.54,-177"/>
<text text-anchor="start" x="188.62" y="-195.6" font-family="Times,serif" font-size="12.00">S7</text>
<text text-anchor="start" x="178.88" y="-181.15" font-family="Times,serif" font-size="8.00">t1&#39;, init, b&#39;</text>
<polygon fill="black" stroke="black" points="176.88,-190.75 176.88,-190.75 213.12,-190.75 213.12,-190.75 176.88,-190.75"/>
</g>
<!-- S3&#45;&gt;S7 -->
<g id="edge7" class="edge">
<title>S3&#45;&gt;S7</title>
<path fill="none" stroke="black" d="M147.07,-259.33C155.02,-248.49 165.11,-234.73 173.98,-222.64"/>
<polygon fill="black" stroke="black" points="176.78,-224.74 179.88,-214.61 171.14,-220.6 176.78,-224.74"/>
<text text-anchor="middle" x="172.25" y="-232.95" font-family="Times,serif" font-size="9.00">b2&#39;</text>
</g>
<!-- S6 -->
<g id="node7" class="node">
<title>S6</title>
<polygon fill="lightgrey" stroke="black" points="85,-126.5 17,-126.5 17,-86.5 85,-86.5 85,-126.5"/>
<path fill="#d3d3d3" stroke="none" d="M35.67,-90.5C35.67,-90.5 66.33,-90.5 66.33,-90.5 71.67,-90.5 77,-95.83 77,-101.17 77,-101.17 77,-111.83 77,-111.83 77,-117.17 71.67,-122.5 66.33,-122.5 66.33,-122.5 35.67,-122.5 35.67,-122.5 30.33,-122.5 25,-117.17 25,-111.83 25,-111.83 25,-101.17 25,-101.17 25,-95.83 30.33,-90.5 35.67,-90.5"/>
<text text-anchor="start" x="44.62" y="-109.1" font-family="Times,serif" font-size="12.00">S6</text>
<text text-anchor="start" x="27" y="-94.65" font-family="Times,serif" font-size="8.00">a&#39;, t2&#39;, b, t1, t1&#39;</text>
<polygon fill="black" stroke="black" points="25,-104.25 25,-104.25 77,-104.25 77,-104.25 25,-104.25"/>
</g>
<!-- S4&#45;&gt;S6 -->
<g id="edge8" class="edge">
<title>S4&#45;&gt;S6</title>
<path fill="none" stroke="black" d="M97.39,-172.83C89.69,-161.99 79.92,-148.23 71.34,-136.14"/>
<polygon fill="black" stroke="black" points="74.29,-134.25 65.65,-128.13 68.58,-138.31 74.29,-134.25"/>
<text text-anchor="middle" x="88.5" y="-146.45" font-family="Times,serif" font-size="9.00">b2</text>
</g>
<!-- S8 -->
<g id="node9" class="node">
<title>S8</title>
<polygon fill="lightblue" stroke="black" points="169.25,-126.5 102.75,-126.5 102.75,-86.5 169.25,-86.5 169.25,-126.5"/>
<path fill="#add8e6" stroke="none" d="M121.42,-90.5C121.42,-90.5 150.58,-90.5 150.58,-90.5 155.92,-90.5 161.25,-95.83 161.25,-101.17 161.25,-101.17 161.25,-111.83 161.25,-111.83 161.25,-117.17 155.92,-122.5 150.58,-122.5 150.58,-122.5 121.42,-122.5 121.42,-122.5 116.08,-122.5 110.75,-117.17 110.75,-111.83 110.75,-111.83 110.75,-101.17 110.75,-101.17 110.75,-95.83 116.08,-90.5 121.42,-90.5"/>
<text text-anchor="start" x="129.62" y="-109.1" font-family="Times,serif" font-size="12.00">S8</text>
<text text-anchor="start" x="112.75" y="-94.65" font-family="Times,serif" font-size="8.00">t2, t1, a, t1&#39;, b&#39;</text>
<polygon fill="black" stroke="black" points="110.75,-104.25 110.75,-104.25 161.25,-104.25 161.25,-104.25 110.75,-104.25"/>
</g>
<!-- S4&#45;&gt;S8 -->
<g id="edge9" class="edge">
<title>S4&#45;&gt;S8</title>
<path fill="none" stroke="black" d="M116.67,-172.83C119.75,-162.42 123.63,-149.32 127.1,-137.59"/>
<polygon fill="black" stroke="black" points="130.35,-138.92 129.83,-128.34 123.64,-136.94 130.35,-138.92"/>
<text text-anchor="middle" x="129.25" y="-146.45" font-family="Times,serif" font-size="9.00">b2&#39;</text>
</g>
<!-- S5&#45;&gt;S6 -->
<g id="edge10" class="edge">
<title>S5&#45;&gt;S6</title>
<path fill="none" stroke="black" d="M32.45,-172.83C35.37,-162.53 39.05,-149.59 42.35,-137.95"/>
<polygon fill="black" stroke="black" points="45.71,-138.92 45.08,-128.35 38.98,-137.01 45.71,-138.92"/>
<text text-anchor="middle" x="45.88" y="-146.45" font-family="Times,serif" font-size="9.00">a1&#39;</text>
</g>
<!-- S9 -->
<g id="node10" class="node">
<title>S9</title>
<polygon fill="lightblue" stroke="black" points="121,-40 65,-40 65,0 121,0 121,-40"/>
<path fill="#add8e6" stroke="none" d="M83.67,-4C83.67,-4 102.33,-4 102.33,-4 107.67,-4 113,-9.33 113,-14.67 113,-14.67 113,-25.33 113,-25.33 113,-30.67 107.67,-36 102.33,-36 102.33,-36 83.67,-36 83.67,-36 78.33,-36 73,-30.67 73,-25.33 73,-25.33 73,-14.67 73,-14.67 73,-9.33 78.33,-4 83.67,-4"/>
<text text-anchor="start" x="86.62" y="-22.6" font-family="Times,serif" font-size="12.00">S9</text>
<text text-anchor="start" x="75" y="-8.15" font-family="Times,serif" font-size="8.00">t1&#39;, t1, b&#39;, b</text>
<polygon fill="black" stroke="black" points="73,-17.75 73,-17.75 113,-17.75 113,-17.75 73,-17.75"/>
</g>
<!-- S6&#45;&gt;S9 -->
<g id="edge11" class="edge">
<title>S6&#45;&gt;S9</title>
<path fill="none" stroke="black" d="M60.53,-86.33C65.81,-75.71 72.48,-62.28 78.41,-50.36"/>
<polygon fill="black" stroke="black" points="81.37,-52.26 82.69,-41.75 75.1,-49.14 81.37,-52.26"/>
<text text-anchor="middle" x="79.25" y="-59.95" font-family="Times,serif" font-size="9.00">b2&#39;</text>
</g>
<!-- S7&#45;&gt;S8 -->
<g id="edge12" class="edge">
<title>S7&#45;&gt;S8</title>
<path fill="none" stroke="black" d="M181.61,-172.83C174.05,-161.99 164.44,-148.23 156,-136.14"/>
<polygon fill="black" stroke="black" points="159,-134.33 150.41,-128.13 153.26,-138.33 159,-134.33"/>
<text text-anchor="middle" x="173.12" y="-146.45" font-family="Times,serif" font-size="9.00">a1</text>
</g>
<!-- S8&#45;&gt;S9 -->
<g id="edge13" class="edge">
<title>S8&#45;&gt;S9</title>
<path fill="none" stroke="black" d="M126.24,-86.33C120.84,-75.71 114.01,-62.28 107.94,-50.36"/>
<polygon fill="black" stroke="black" points="111.21,-49.06 103.55,-41.74 104.97,-52.24 111.21,-49.06"/>
<text text-anchor="middle" x="121.5" y="-59.95" font-family="Times,serif" font-size="9.00">b2</text>
</g>
</g>
</svg>
