<?xml version="1.0" encoding="UTF-8" standalone="no"?>
<!DOCTYPE svg PUBLIC "-//W3C//DTD SVG 1.1//EN"
 "http://www.w3.org/Graphics/SVG/1.1/DTD/svg11.dtd">
<!-- Generated by graphviz version 9.0.0 (20230911.1827)
 -->
<!-- Pages: 1 -->
<svg width="68pt" height="217pt"
 viewBox="0.00 0.00 67.75 217.00" xmlns="http://www.w3.org/2000/svg" xmlns:xlink="http://www.w3.org/1999/xlink">
<g id="graph0" class="graph" transform="scale(1 1) rotate(0) translate(4 213)">
<polygon fill="white" stroke="none" points="-4,4 -4,-213 63.75,-213 63.75,4 -4,4"/>
<!-- S0 -->
<g id="node1" class="node">
<title>S0</title>
<polygon fill="lightgrey" stroke="black" points="56.88,-209 2.88,-209 2.88,-173 56.88,-173 56.88,-209"/>
<path fill="#d3d3d3" stroke="none" d="M27.08,-181.88C27.08,-181.88 32.67,-181.88 32.67,-181.88 35.46,-181.88 38.25,-184.67 38.25,-187.46 38.25,-187.46 38.25,-194.54 38.25,-194.54 38.25,-197.33 35.46,-200.12 32.67,-200.12 32.67,-200.12 27.08,-200.12 27.08,-200.12 24.29,-200.12 21.5,-197.33 21.5,-194.54 21.5,-194.54 21.5,-187.46 21.5,-187.46 21.5,-184.67 24.29,-181.88 27.08,-181.88"/>
<text text-anchor="start" x="23.5" y="-186.72" font-family="Times,serif" font-size="12.00">S0</text>
</g>
<!-- S1 -->
<g id="node2" class="node">
<title>S1</title>
<polygon fill="lightblue" stroke="black" points="56.88,-126.5 2.88,-126.5 2.88,-86.5 56.88,-86.5 56.88,-126.5"/>
<path fill="#add8e6" stroke="none" d="M27.08,-90.5C27.08,-90.5 32.67,-90.5 32.67,-90.5 35.46,-90.5 38.25,-93.29 38.25,-96.08 38.25,-96.08 38.25,-116.92 38.25,-116.92 38.25,-119.71 35.46,-122.5 32.67,-122.5 32.67,-122.5 27.08,-122.5 27.08,-122.5 24.29,-122.5 21.5,-119.71 21.5,-116.92 21.5,-116.92 21.5,-96.08 21.5,-96.08 21.5,-93.29 24.29,-90.5 27.08,-90.5"/>
<text text-anchor="start" x="23.5" y="-109.1" font-family="Times,serif" font-size="12.00">S1</text>
<text text-anchor="start" x="24.62" y="-94.65" font-family="Times,serif" font-size="8.00">init</text>
<polygon fill="black" stroke="black" points="21.5,-104.25 21.5,-104.25 38.25,-104.25 38.25,-104.25 21.5,-104.25"/>
</g>
<!-- S0&#45;&gt;S1 -->
<g id="edge1" class="edge">
<title>S0&#45;&gt;S1</title>
<path fill="none" stroke="black" d="M29.88,-172.5C29.88,-162.6 29.88,-149.94 29.88,-138.42"/>
<polygon fill="black" stroke="black" points="33.38,-138.51 29.88,-128.51 26.38,-138.51 33.38,-138.51"/>
<text text-anchor="middle" x="35.5" y="-146.45" font-family="Times,serif" font-size="9.00">init</text>
</g>
<!-- S2 -->
<g id="node3" class="node">
<title>S2</title>
<polygon fill="lightblue" stroke="black" points="59.75,-40 0,-40 0,0 59.75,0 59.75,-40"/>
<path fill="#add8e6" stroke="none" d="M18.67,-4C18.67,-4 41.08,-4 41.08,-4 46.42,-4 51.75,-9.33 51.75,-14.67 51.75,-14.67 51.75,-25.33 51.75,-25.33 51.75,-30.67 46.42,-36 41.08,-36 41.08,-36 18.67,-36 18.67,-36 13.33,-36 8,-30.67 8,-25.33 8,-25.33 8,-14.67 8,-14.67 8,-9.33 13.33,-4 18.67,-4"/>
<text text-anchor="start" x="23.5" y="-22.6" font-family="Times,serif" font-size="12.00">S2</text>
<text text-anchor="start" x="10" y="-8.15" font-family="Times,serif" font-size="8.00">t2, t1, init, a</text>
<polygon fill="black" stroke="black" points="8,-17.75 8,-17.75 51.75,-17.75 51.75,-17.75 8,-17.75"/>
</g>
<!-- S1&#45;&gt;S2 -->
<g id="edge2" class="edge">
<title>S1&#45;&gt;S2</title>
<path fill="none" stroke="black" d="M29.88,-86.33C29.88,-76.13 29.88,-63.36 29.88,-51.82"/>
<polygon fill="black" stroke="black" points="33.38,-51.9 29.88,-41.9 26.38,-51.9 33.38,-51.9"/>
<text text-anchor="middle" x="34" y="-59.95" font-family="Times,serif" font-size="9.00">a1</text>
</g>
</g>
</svg>
