<?xml version="1.0" encoding="UTF-8" standalone="no"?>
<!DOCTYPE svg PUBLIC "-//W3C//DTD SVG 1.1//EN"
 "http://www.w3.org/Graphics/SVG/1.1/DTD/svg11.dtd">
<!-- Generated by graphviz version 9.0.0 (20230911.1827)
 -->
<!-- Pages: 1 -->
<svg width="158pt" height="390pt"
 viewBox="0.00 0.00 158.25 390.00" xmlns="http://www.w3.org/2000/svg" xmlns:xlink="http://www.w3.org/1999/xlink">
<g id="graph0" class="graph" transform="scale(1 1) rotate(0) translate(4 386)">
<polygon fill="white" stroke="none" points="-4,4 -4,-386 154.25,-386 154.25,4 -4,4"/>
<!-- S0 -->
<g id="node1" class="node">
<title>S0</title>
<polygon fill="lightgrey" stroke="black" points="97,-382 43,-382 43,-346 97,-346 97,-382"/>
<path fill="#d3d3d3" stroke="none" d="M67.21,-354.88C67.21,-354.88 72.79,-354.88 72.79,-354.88 75.58,-354.88 78.38,-357.67 78.38,-360.46 78.38,-360.46 78.38,-367.54 78.38,-367.54 78.38,-370.33 75.58,-373.12 72.79,-373.12 72.79,-373.12 67.21,-373.12 67.21,-373.12 64.42,-373.12 61.62,-370.33 61.62,-367.54 61.62,-367.54 61.62,-360.46 61.62,-360.46 61.62,-357.67 64.42,-354.88 67.21,-354.88"/>
<text text-anchor="start" x="63.62" y="-359.73" font-family="Times,serif" font-size="12.00">S0</text>
</g>
<!-- S1 -->
<g id="node2" class="node">
<title>S1</title>
<polygon fill="lightblue" stroke="black" points="97,-299.5 43,-299.5 43,-259.5 97,-259.5 97,-299.5"/>
<path fill="#add8e6" stroke="none" d="M67.21,-263.5C67.21,-263.5 72.79,-263.5 72.79,-263.5 75.58,-263.5 78.38,-266.29 78.38,-269.08 78.38,-269.08 78.38,-289.92 78.38,-289.92 78.38,-292.71 75.58,-295.5 72.79,-295.5 72.79,-295.5 67.21,-295.5 67.21,-295.5 64.42,-295.5 61.62,-292.71 61.62,-289.92 61.62,-289.92 61.62,-269.08 61.62,-269.08 61.62,-266.29 64.42,-263.5 67.21,-263.5"/>
<text text-anchor="start" x="63.62" y="-282.1" font-family="Times,serif" font-size="12.00">S1</text>
<text text-anchor="start" x="64.75" y="-267.65" font-family="Times,serif" font-size="8.00">init</text>
<polygon fill="black" stroke="black" points="61.62,-277.25 61.62,-277.25 78.38,-277.25 78.38,-277.25 61.62,-277.25"/>
</g>
<!-- S0&#45;&gt;S1 -->
<g id="edge1" class="edge">
<title>S0&#45;&gt;S1</title>
<path fill="none" stroke="black" d="M70,-345.5C70,-335.6 70,-322.94 70,-311.42"/>
<polygon fill="black" stroke="black" points="73.5,-311.51 70,-301.51 66.5,-311.51 73.5,-311.51"/>
<text text-anchor="middle" x="75.62" y="-319.45" font-family="Times,serif" font-size="9.00">init</text>
</g>
<!-- S2 -->
<g id="node3" class="node">
<title>S2</title>
<polygon fill="lightblue" stroke="black" points="60.88,-213 1.13,-213 1.13,-173 60.88,-173 60.88,-213"/>
<path fill="#add8e6" stroke="none" d="M19.79,-177C19.79,-177 42.21,-177 42.21,-177 47.54,-177 52.88,-182.33 52.88,-187.67 52.88,-187.67 52.88,-198.33 52.88,-198.33 52.88,-203.67 47.54,-209 42.21,-209 42.21,-209 19.79,-209 19.79,-209 14.46,-209 9.12,-203.67 9.12,-198.33 9.12,-198.33 9.12,-187.67 9.12,-187.67 9.12,-182.33 14.46,-177 19.79,-177"/>
<text text-anchor="start" x="24.62" y="-195.6" font-family="Times,serif" font-size="12.00">S2</text>
<text text-anchor="start" x="11.12" y="-181.15" font-family="Times,serif" font-size="8.00">t2, t1, init, a</text>
<polygon fill="black" stroke="black" points="9.12,-190.75 9.12,-190.75 52.88,-190.75 52.88,-190.75 9.12,-190.75"/>
</g>
<!-- S1&#45;&gt;S2 -->
<g id="edge2" class="edge">
<title>S1&#45;&gt;S2</title>
<path fill="none" stroke="black" d="M61.15,-259.33C56.3,-248.81 50.18,-235.55 44.72,-223.73"/>
<polygon fill="black" stroke="black" points="47.95,-222.38 40.58,-214.77 41.6,-225.31 47.95,-222.38"/>
<text text-anchor="middle" x="57.12" y="-232.95" font-family="Times,serif" font-size="9.00">a1</text>
</g>
<!-- S3 -->
<g id="node4" class="node">
<title>S3</title>
<polygon fill="lightblue" stroke="black" points="143.12,-213 78.88,-213 78.88,-173 143.12,-173 143.12,-213"/>
<path fill="#add8e6" stroke="none" d="M97.54,-177C97.54,-177 124.46,-177 124.46,-177 129.79,-177 135.12,-182.33 135.12,-187.67 135.12,-187.67 135.12,-198.33 135.12,-198.33 135.12,-203.67 129.79,-209 124.46,-209 124.46,-209 97.54,-209 97.54,-209 92.21,-209 86.88,-203.67 86.88,-198.33 86.88,-198.33 86.88,-187.67 86.88,-187.67 86.88,-182.33 92.21,-177 97.54,-177"/>
<text text-anchor="start" x="104.62" y="-195.6" font-family="Times,serif" font-size="12.00">S3</text>
<text text-anchor="start" x="88.88" y="-181.15" font-family="Times,serif" font-size="8.00">a&#39;, init, t2&#39;, t1&#39;</text>
<polygon fill="black" stroke="black" points="86.88,-190.75 86.88,-190.75 135.12,-190.75 135.12,-190.75 86.88,-190.75"/>
</g>
<!-- S1&#45;&gt;S3 -->
<g id="edge3" class="edge">
<title>S1&#45;&gt;S3</title>
<path fill="none" stroke="black" d="M79.3,-259.33C84.4,-248.81 90.84,-235.55 96.58,-223.73"/>
<polygon fill="black" stroke="black" points="99.71,-225.28 100.93,-214.75 93.42,-222.22 99.71,-225.28"/>
<text text-anchor="middle" x="97.88" y="-232.95" font-family="Times,serif" font-size="9.00">a1&#39;</text>
</g>
<!-- S4 -->
<g id="node5" class="node">
<title>S4</title>
<polygon fill="lightblue" stroke="black" points="150.25,-126.5 71.75,-126.5 71.75,-86.5 150.25,-86.5 150.25,-126.5"/>
<path fill="#add8e6" stroke="none" d="M90.42,-90.5C90.42,-90.5 131.58,-90.5 131.58,-90.5 136.92,-90.5 142.25,-95.83 142.25,-101.17 142.25,-101.17 142.25,-111.83 142.25,-111.83 142.25,-117.17 136.92,-122.5 131.58,-122.5 131.58,-122.5 90.42,-122.5 90.42,-122.5 85.08,-122.5 79.75,-117.17 79.75,-111.83 79.75,-111.83 79.75,-101.17 79.75,-101.17 79.75,-95.83 85.08,-90.5 90.42,-90.5"/>
<text text-anchor="start" x="104.62" y="-109.1" font-family="Times,serif" font-size="12.00">S4</text>
<text text-anchor="start" x="81.75" y="-94.65" font-family="Times,serif" font-size="8.00">a&#39;, t2&#39;, t2, t1, a, t1&#39;</text>
<polygon fill="black" stroke="black" points="79.75,-104.25 79.75,-104.25 142.25,-104.25 142.25,-104.25 79.75,-104.25"/>
</g>
<!-- S2&#45;&gt;S4 -->
<g id="edge4" class="edge">
<title>S2&#45;&gt;S4</title>
<path fill="none" stroke="black" d="M49.15,-172.83C59.72,-161.67 73.21,-147.42 84.9,-135.07"/>
<polygon fill="black" stroke="black" points="87.27,-137.66 91.6,-127.99 82.18,-132.85 87.27,-137.66"/>
<text text-anchor="middle" x="80.88" y="-146.45" font-family="Times,serif" font-size="9.00">a1&#39;</text>
</g>
<!-- S5 -->
<g id="node6" class="node">
<title>S5</title>
<polygon fill="lightblue" stroke="black" points="54,-126.5 0,-126.5 0,-86.5 54,-86.5 54,-126.5"/>
<path fill="#add8e6" stroke="none" d="M21.04,-90.5C21.04,-90.5 32.96,-90.5 32.96,-90.5 38.29,-90.5 43.62,-95.83 43.62,-101.17 43.62,-101.17 43.62,-111.83 43.62,-111.83 43.62,-117.17 38.29,-122.5 32.96,-122.5 32.96,-122.5 21.04,-122.5 21.04,-122.5 15.71,-122.5 10.38,-117.17 10.38,-111.83 10.38,-111.83 10.38,-101.17 10.38,-101.17 10.38,-95.83 15.71,-90.5 21.04,-90.5"/>
<text text-anchor="start" x="20.62" y="-109.1" font-family="Times,serif" font-size="12.00">S5</text>
<text text-anchor="start" x="12.38" y="-94.65" font-family="Times,serif" font-size="8.00">init, t1, b</text>
<polygon fill="black" stroke="black" points="10.38,-104.25 10.38,-104.25 43.62,-104.25 43.62,-104.25 10.38,-104.25"/>
</g>
<!-- S2&#45;&gt;S5 -->
<g id="edge5" class="edge">
<title>S2&#45;&gt;S5</title>
<path fill="none" stroke="black" d="M30.09,-172.83C29.61,-162.63 29.01,-149.86 28.46,-138.32"/>
<polygon fill="black" stroke="black" points="31.96,-138.23 27.99,-128.4 24.97,-138.56 31.96,-138.23"/>
<text text-anchor="middle" x="34.5" y="-146.45" font-family="Times,serif" font-size="9.00">b2</text>
</g>
<!-- S3&#45;&gt;S4 -->
<g id="edge6" class="edge">
<title>S3&#45;&gt;S4</title>
<path fill="none" stroke="black" d="M111,-172.83C111,-162.63 111,-149.86 111,-138.32"/>
<polygon fill="black" stroke="black" points="114.5,-138.4 111,-128.4 107.5,-138.4 114.5,-138.4"/>
<text text-anchor="middle" x="115.12" y="-146.45" font-family="Times,serif" font-size="9.00">a1</text>
</g>
<!-- S6 -->
<g id="node7" class="node">
<title>S6</title>
<polygon fill="lightgrey" stroke="black" points="102,-40 34,-40 34,0 102,0 102,-40"/>
<path fill="#d3d3d3" stroke="none" d="M52.67,-4C52.67,-4 83.33,-4 83.33,-4 88.67,-4 94,-9.33 94,-14.67 94,-14.67 94,-25.33 94,-25.33 94,-30.67 88.67,-36 83.33,-36 83.33,-36 52.67,-36 52.67,-36 47.33,-36 42,-30.67 42,-25.33 42,-25.33 42,-14.67 42,-14.67 42,-9.33 47.33,-4 52.67,-4"/>
<text text-anchor="start" x="61.62" y="-22.6" font-family="Times,serif" font-size="12.00">S6</text>
<text text-anchor="start" x="44" y="-8.15" font-family="Times,serif" font-size="8.00">a&#39;, t2&#39;, b, t1, t1&#39;</text>
<polygon fill="black" stroke="black" points="42,-17.75 42,-17.75 94,-17.75 94,-17.75 42,-17.75"/>
</g>
<!-- S4&#45;&gt;S6 -->
<g id="edge7" class="edge">
<title>S4&#45;&gt;S6</title>
<path fill="none" stroke="black" d="M101.24,-86.33C95.84,-75.71 89.01,-62.28 82.94,-50.36"/>
<polygon fill="black" stroke="black" points="86.21,-49.06 78.55,-41.74 79.97,-52.24 86.21,-49.06"/>
<text text-anchor="middle" x="97.5" y="-59.95" font-family="Times,serif" font-size="9.00">b2</text>
</g>
<!-- S5&#45;&gt;S6 -->
<g id="edge8" class="edge">
<title>S5&#45;&gt;S6</title>
<path fill="none" stroke="black" d="M36.3,-86.33C41.4,-75.81 47.84,-62.55 53.58,-50.73"/>
<polygon fill="black" stroke="black" points="56.71,-52.28 57.93,-41.75 50.42,-49.22 56.71,-52.28"/>
<text text-anchor="middle" x="54.88" y="-59.95" font-family="Times,serif" font-size="9.00">a1&#39;</text>
</g>
</g>
</svg>
