<?xml version="1.0" encoding="UTF-8" standalone="no"?>
<!DOCTYPE svg PUBLIC "-//W3C//DTD SVG 1.1//EN"
 "http://www.w3.org/Graphics/SVG/1.1/DTD/svg11.dtd">
<!-- Generated by graphviz version 9.0.0 (20230911.1827)
 -->
<!-- Pages: 1 -->
<svg width="150pt" height="304pt"
 viewBox="0.00 0.00 150.00 303.50" xmlns="http://www.w3.org/2000/svg" xmlns:xlink="http://www.w3.org/1999/xlink">
<g id="graph0" class="graph" transform="scale(1 1) rotate(0) translate(4 299.5)">
<polygon fill="white" stroke="none" points="-4,4 -4,-299.5 146,-299.5 146,4 -4,4"/>
<!-- S0 -->
<g id="node1" class="node">
<title>S0</title>
<polygon fill="lightgrey" stroke="black" points="95.88,-295.5 41.88,-295.5 41.88,-259.5 95.88,-259.5 95.88,-295.5"/>
<path fill="#d3d3d3" stroke="none" d="M66.08,-268.38C66.08,-268.38 71.67,-268.38 71.67,-268.38 74.46,-268.38 77.25,-271.17 77.25,-273.96 77.25,-273.96 77.25,-281.04 77.25,-281.04 77.25,-283.83 74.46,-286.62 71.67,-286.62 71.67,-286.62 66.08,-286.62 66.08,-286.62 63.29,-286.62 60.5,-283.83 60.5,-281.04 60.5,-281.04 60.5,-273.96 60.5,-273.96 60.5,-271.17 63.29,-268.38 66.08,-268.38"/>
<text text-anchor="start" x="62.5" y="-273.23" font-family="Times,serif" font-size="12.00">S0</text>
</g>
<!-- S1 -->
<g id="node2" class="node">
<title>S1</title>
<polygon fill="lightblue" stroke="black" points="95.88,-213 41.88,-213 41.88,-173 95.88,-173 95.88,-213"/>
<path fill="#add8e6" stroke="none" d="M66.08,-177C66.08,-177 71.67,-177 71.67,-177 74.46,-177 77.25,-179.79 77.25,-182.58 77.25,-182.58 77.25,-203.42 77.25,-203.42 77.25,-206.21 74.46,-209 71.67,-209 71.67,-209 66.08,-209 66.08,-209 63.29,-209 60.5,-206.21 60.5,-203.42 60.5,-203.42 60.5,-182.58 60.5,-182.58 60.5,-179.79 63.29,-177 66.08,-177"/>
<text text-anchor="start" x="62.5" y="-195.6" font-family="Times,serif" font-size="12.00">S1</text>
<text text-anchor="start" x="63.62" y="-181.15" font-family="Times,serif" font-size="8.00">init</text>
<polygon fill="black" stroke="black" points="60.5,-190.75 60.5,-190.75 77.25,-190.75 77.25,-190.75 60.5,-190.75"/>
</g>
<!-- S0&#45;&gt;S1 -->
<g id="edge1" class="edge">
<title>S0&#45;&gt;S1</title>
<path fill="none" stroke="black" d="M68.88,-259C68.88,-249.1 68.88,-236.44 68.88,-224.92"/>
<polygon fill="black" stroke="black" points="72.38,-225.01 68.88,-215.01 65.38,-225.01 72.38,-225.01"/>
<text text-anchor="middle" x="74.5" y="-232.95" font-family="Times,serif" font-size="9.00">init</text>
</g>
<!-- S2 -->
<g id="node3" class="node">
<title>S2</title>
<polygon fill="lightblue" stroke="black" points="59.75,-126.5 0,-126.5 0,-86.5 59.75,-86.5 59.75,-126.5"/>
<path fill="#add8e6" stroke="none" d="M18.67,-90.5C18.67,-90.5 41.08,-90.5 41.08,-90.5 46.42,-90.5 51.75,-95.83 51.75,-101.17 51.75,-101.17 51.75,-111.83 51.75,-111.83 51.75,-117.17 46.42,-122.5 41.08,-122.5 41.08,-122.5 18.67,-122.5 18.67,-122.5 13.33,-122.5 8,-117.17 8,-111.83 8,-111.83 8,-101.17 8,-101.17 8,-95.83 13.33,-90.5 18.67,-90.5"/>
<text text-anchor="start" x="23.5" y="-109.1" font-family="Times,serif" font-size="12.00">S2</text>
<text text-anchor="start" x="10" y="-94.65" font-family="Times,serif" font-size="8.00">t2, t1, init, a</text>
<polygon fill="black" stroke="black" points="8,-104.25 8,-104.25 51.75,-104.25 51.75,-104.25 8,-104.25"/>
</g>
<!-- S1&#45;&gt;S2 -->
<g id="edge2" class="edge">
<title>S1&#45;&gt;S2</title>
<path fill="none" stroke="black" d="M60.03,-172.83C55.17,-162.31 49.05,-149.05 43.59,-137.23"/>
<polygon fill="black" stroke="black" points="46.83,-135.88 39.46,-128.27 40.47,-138.81 46.83,-135.88"/>
<text text-anchor="middle" x="56" y="-146.45" font-family="Times,serif" font-size="9.00">a1</text>
</g>
<!-- S3 -->
<g id="node4" class="node">
<title>S3</title>
<polygon fill="lightblue" stroke="black" points="142,-126.5 77.75,-126.5 77.75,-86.5 142,-86.5 142,-126.5"/>
<path fill="#add8e6" stroke="none" d="M96.42,-90.5C96.42,-90.5 123.33,-90.5 123.33,-90.5 128.67,-90.5 134,-95.83 134,-101.17 134,-101.17 134,-111.83 134,-111.83 134,-117.17 128.67,-122.5 123.33,-122.5 123.33,-122.5 96.42,-122.5 96.42,-122.5 91.08,-122.5 85.75,-117.17 85.75,-111.83 85.75,-111.83 85.75,-101.17 85.75,-101.17 85.75,-95.83 91.08,-90.5 96.42,-90.5"/>
<text text-anchor="start" x="103.5" y="-109.1" font-family="Times,serif" font-size="12.00">S3</text>
<text text-anchor="start" x="87.75" y="-94.65" font-family="Times,serif" font-size="8.00">a&#39;, init, t2&#39;, t1&#39;</text>
<polygon fill="black" stroke="black" points="85.75,-104.25 85.75,-104.25 134,-104.25 134,-104.25 85.75,-104.25"/>
</g>
<!-- S1&#45;&gt;S3 -->
<g id="edge3" class="edge">
<title>S1&#45;&gt;S3</title>
<path fill="none" stroke="black" d="M78.18,-172.83C83.28,-162.31 89.71,-149.05 95.45,-137.23"/>
<polygon fill="black" stroke="black" points="98.59,-138.78 99.81,-128.25 92.29,-135.72 98.59,-138.78"/>
<text text-anchor="middle" x="96.75" y="-146.45" font-family="Times,serif" font-size="9.00">a1&#39;</text>
</g>
<!-- S4 -->
<g id="node5" class="node">
<title>S4</title>
<polygon fill="lightblue" stroke="black" points="108.12,-40 29.62,-40 29.62,0 108.12,0 108.12,-40"/>
<path fill="#add8e6" stroke="none" d="M48.29,-4C48.29,-4 89.46,-4 89.46,-4 94.79,-4 100.12,-9.33 100.12,-14.67 100.12,-14.67 100.12,-25.33 100.12,-25.33 100.12,-30.67 94.79,-36 89.46,-36 89.46,-36 48.29,-36 48.29,-36 42.96,-36 37.62,-30.67 37.62,-25.33 37.62,-25.33 37.62,-14.67 37.62,-14.67 37.62,-9.33 42.96,-4 48.29,-4"/>
<text text-anchor="start" x="62.5" y="-22.6" font-family="Times,serif" font-size="12.00">S4</text>
<text text-anchor="start" x="39.62" y="-8.15" font-family="Times,serif" font-size="8.00">a&#39;, t2&#39;, t2, t1, a, t1&#39;</text>
<polygon fill="black" stroke="black" points="37.62,-17.75 37.62,-17.75 100.12,-17.75 100.12,-17.75 37.62,-17.75"/>
</g>
<!-- S2&#45;&gt;S4 -->
<g id="edge4" class="edge">
<title>S2&#45;&gt;S4</title>
<path fill="none" stroke="black" d="M38.72,-86.33C43.58,-75.81 49.7,-62.55 55.16,-50.73"/>
<polygon fill="black" stroke="black" points="58.28,-52.31 59.29,-41.77 51.92,-49.38 58.28,-52.31"/>
<text text-anchor="middle" x="56.75" y="-59.95" font-family="Times,serif" font-size="9.00">a1&#39;</text>
</g>
<!-- S3&#45;&gt;S4 -->
<g id="edge5" class="edge">
<title>S3&#45;&gt;S4</title>
<path fill="none" stroke="black" d="M100.57,-86.33C95.47,-75.81 89.04,-62.55 83.3,-50.73"/>
<polygon fill="black" stroke="black" points="86.46,-49.22 78.94,-41.75 80.16,-52.28 86.46,-49.22"/>
<text text-anchor="middle" x="96" y="-59.95" font-family="Times,serif" font-size="9.00">a1</text>
</g>
</g>
</svg>
