<?xml version="1.0" encoding="UTF-8" standalone="no"?>
<!DOCTYPE svg PUBLIC "-//W3C//DTD SVG 1.1//EN"
 "http://www.w3.org/Graphics/SVG/1.1/DTD/svg11.dtd">
<!-- Generated by graphviz version 9.0.0 (20230911.1827)
 -->
<!-- Pages: 1 -->
<svg width="378pt" height="823pt"
 viewBox="0.00 0.00 378.00 822.50" xmlns="http://www.w3.org/2000/svg" xmlns:xlink="http://www.w3.org/1999/xlink">
<g id="graph0" class="graph" transform="scale(1 1) rotate(0) translate(4 818.5)">
<polygon fill="white" stroke="none" points="-4,4 -4,-818.5 374,-818.5 374,4 -4,4"/>
<!-- S0 -->
<g id="node1" class="node">
<title>S0</title>
<polygon fill="lightgrey" stroke="black" points="169,-814.5 115,-814.5 115,-778.5 169,-778.5 169,-814.5"/>
<path fill="#d3d3d3" stroke="none" d="M139.21,-787.38C139.21,-787.38 144.79,-787.38 144.79,-787.38 147.58,-787.38 150.38,-790.17 150.38,-792.96 150.38,-792.96 150.38,-800.04 150.38,-800.04 150.38,-802.83 147.58,-805.62 144.79,-805.62 144.79,-805.62 139.21,-805.62 139.21,-805.62 136.42,-805.62 133.62,-802.83 133.62,-800.04 133.62,-800.04 133.62,-792.96 133.62,-792.96 133.62,-790.17 136.42,-787.38 139.21,-787.38"/>
<text text-anchor="start" x="135.62" y="-792.23" font-family="Times,serif" font-size="12.00">S0</text>
</g>
<!-- S1 -->
<g id="node2" class="node">
<title>S1</title>
<polygon fill="lightblue" stroke="black" points="169,-732 115,-732 115,-692 169,-692 169,-732"/>
<path fill="#add8e6" stroke="none" d="M139.21,-696C139.21,-696 144.79,-696 144.79,-696 147.58,-696 150.38,-698.79 150.38,-701.58 150.38,-701.58 150.38,-722.42 150.38,-722.42 150.38,-725.21 147.58,-728 144.79,-728 144.79,-728 139.21,-728 139.21,-728 136.42,-728 133.62,-725.21 133.62,-722.42 133.62,-722.42 133.62,-701.58 133.62,-701.58 133.62,-698.79 136.42,-696 139.21,-696"/>
<text text-anchor="start" x="135.62" y="-714.6" font-family="Times,serif" font-size="12.00">S1</text>
<text text-anchor="start" x="136.75" y="-700.15" font-family="Times,serif" font-size="8.00">init</text>
<polygon fill="black" stroke="black" points="133.62,-709.75 133.62,-709.75 150.38,-709.75 150.38,-709.75 133.62,-709.75"/>
</g>
<!-- S0&#45;&gt;S1 -->
<g id="edge1" class="edge">
<title>S0&#45;&gt;S1</title>
<path fill="none" stroke="black" d="M142,-778C142,-768.1 142,-755.44 142,-743.92"/>
<polygon fill="black" stroke="black" points="145.5,-744.01 142,-734.01 138.5,-744.01 145.5,-744.01"/>
<text text-anchor="middle" x="147.62" y="-751.95" font-family="Times,serif" font-size="9.00">init</text>
</g>
<!-- S2 -->
<g id="node3" class="node">
<title>S2</title>
<polygon fill="lightblue" stroke="black" points="132.88,-645.5 73.12,-645.5 73.12,-605.5 132.88,-605.5 132.88,-645.5"/>
<path fill="#add8e6" stroke="none" d="M91.79,-609.5C91.79,-609.5 114.21,-609.5 114.21,-609.5 119.54,-609.5 124.88,-614.83 124.88,-620.17 124.88,-620.17 124.88,-630.83 124.88,-630.83 124.88,-636.17 119.54,-641.5 114.21,-641.5 114.21,-641.5 91.79,-641.5 91.79,-641.5 86.46,-641.5 81.12,-636.17 81.12,-630.83 81.12,-630.83 81.12,-620.17 81.12,-620.17 81.12,-614.83 86.46,-609.5 91.79,-609.5"/>
<text text-anchor="start" x="96.62" y="-628.1" font-family="Times,serif" font-size="12.00">S2</text>
<text text-anchor="start" x="83.12" y="-613.65" font-family="Times,serif" font-size="8.00">t2, t1, init, a</text>
<polygon fill="black" stroke="black" points="81.12,-623.25 81.12,-623.25 124.88,-623.25 124.88,-623.25 81.12,-623.25"/>
</g>
<!-- S1&#45;&gt;S2 -->
<g id="edge2" class="edge">
<title>S1&#45;&gt;S2</title>
<path fill="none" stroke="black" d="M133.15,-691.83C128.3,-681.31 122.18,-668.05 116.72,-656.23"/>
<polygon fill="black" stroke="black" points="119.95,-654.88 112.58,-647.27 113.6,-657.81 119.95,-654.88"/>
<text text-anchor="middle" x="128.12" y="-665.45" font-family="Times,serif" font-size="9.00">a1</text>
</g>
<!-- S3 -->
<g id="node4" class="node">
<title>S3</title>
<polygon fill="lightblue" stroke="black" points="215.12,-645.5 150.88,-645.5 150.88,-605.5 215.12,-605.5 215.12,-645.5"/>
<path fill="#add8e6" stroke="none" d="M169.54,-609.5C169.54,-609.5 196.46,-609.5 196.46,-609.5 201.79,-609.5 207.12,-614.83 207.12,-620.17 207.12,-620.17 207.12,-630.83 207.12,-630.83 207.12,-636.17 201.79,-641.5 196.46,-641.5 196.46,-641.5 169.54,-641.5 169.54,-641.5 164.21,-641.5 158.88,-636.17 158.88,-630.83 158.88,-630.83 158.88,-620.17 158.88,-620.17 158.88,-614.83 164.21,-609.5 169.54,-609.5"/>
<text text-anchor="start" x="176.62" y="-628.1" font-family="Times,serif" font-size="12.00">S3</text>
<text text-anchor="start" x="160.88" y="-613.65" font-family="Times,serif" font-size="8.00">a&#39;, init, t2&#39;, t1&#39;</text>
<polygon fill="black" stroke="black" points="158.88,-623.25 158.88,-623.25 207.12,-623.25 207.12,-623.25 158.88,-623.25"/>
</g>
<!-- S1&#45;&gt;S3 -->
<g id="edge3" class="edge">
<title>S1&#45;&gt;S3</title>
<path fill="none" stroke="black" d="M151.3,-691.83C156.4,-681.31 162.84,-668.05 168.58,-656.23"/>
<polygon fill="black" stroke="black" points="171.71,-657.78 172.93,-647.25 165.42,-654.72 171.71,-657.78"/>
<text text-anchor="middle" x="168.88" y="-665.45" font-family="Times,serif" font-size="9.00">a1&#39;</text>
</g>
<!-- S4 -->
<g id="node5" class="node">
<title>S4</title>
<polygon fill="lightblue" stroke="black" points="200.25,-559 121.75,-559 121.75,-519 200.25,-519 200.25,-559"/>
<path fill="#add8e6" stroke="none" d="M140.42,-523C140.42,-523 181.58,-523 181.58,-523 186.92,-523 192.25,-528.33 192.25,-533.67 192.25,-533.67 192.25,-544.33 192.25,-544.33 192.25,-549.67 186.92,-555 181.58,-555 181.58,-555 140.42,-555 140.42,-555 135.08,-555 129.75,-549.67 129.75,-544.33 129.75,-544.33 129.75,-533.67 129.75,-533.67 129.75,-528.33 135.08,-523 140.42,-523"/>
<text text-anchor="start" x="154.62" y="-541.6" font-family="Times,serif" font-size="12.00">S4</text>
<text text-anchor="start" x="131.75" y="-527.15" font-family="Times,serif" font-size="8.00">a&#39;, t2&#39;, t2, t1, a, t1&#39;</text>
<polygon fill="black" stroke="black" points="129.75,-536.75 129.75,-536.75 192.25,-536.75 192.25,-536.75 129.75,-536.75"/>
</g>
<!-- S2&#45;&gt;S4 -->
<g id="edge4" class="edge">
<title>S2&#45;&gt;S4</title>
<path fill="none" stroke="black" d="M116.16,-605.33C123.6,-594.49 133.04,-580.73 141.34,-568.64"/>
<polygon fill="black" stroke="black" points="144.06,-570.86 146.83,-560.64 138.29,-566.9 144.06,-570.86"/>
<text text-anchor="middle" x="139.88" y="-578.95" font-family="Times,serif" font-size="9.00">a1&#39;</text>
</g>
<!-- S5 -->
<g id="node6" class="node">
<title>S5</title>
<polygon fill="lightblue" stroke="black" points="104,-559 50,-559 50,-519 104,-519 104,-559"/>
<path fill="#add8e6" stroke="none" d="M71.04,-523C71.04,-523 82.96,-523 82.96,-523 88.29,-523 93.62,-528.33 93.62,-533.67 93.62,-533.67 93.62,-544.33 93.62,-544.33 93.62,-549.67 88.29,-555 82.96,-555 82.96,-555 71.04,-555 71.04,-555 65.71,-555 60.38,-549.67 60.38,-544.33 60.38,-544.33 60.38,-533.67 60.38,-533.67 60.38,-528.33 65.71,-523 71.04,-523"/>
<text text-anchor="start" x="70.62" y="-541.6" font-family="Times,serif" font-size="12.00">S5</text>
<text text-anchor="start" x="62.38" y="-527.15" font-family="Times,serif" font-size="8.00">init, t1, b</text>
<polygon fill="black" stroke="black" points="60.38,-536.75 60.38,-536.75 93.62,-536.75 93.62,-536.75 60.38,-536.75"/>
</g>
<!-- S2&#45;&gt;S5 -->
<g id="edge5" class="edge">
<title>S2&#45;&gt;S5</title>
<path fill="none" stroke="black" d="M97.1,-605.33C93.9,-594.92 89.87,-581.82 86.26,-570.09"/>
<polygon fill="black" stroke="black" points="89.7,-569.37 83.41,-560.84 83.01,-571.42 89.7,-569.37"/>
<text text-anchor="middle" x="96.5" y="-578.95" font-family="Times,serif" font-size="9.00">b2</text>
</g>
<!-- S3&#45;&gt;S4 -->
<g id="edge6" class="edge">
<title>S3&#45;&gt;S4</title>
<path fill="none" stroke="black" d="M178.01,-605.33C175.33,-595.03 171.96,-582.09 168.93,-570.45"/>
<polygon fill="black" stroke="black" points="172.34,-569.65 166.43,-560.86 165.56,-571.41 172.34,-569.65"/>
<text text-anchor="middle" x="177.12" y="-578.95" font-family="Times,serif" font-size="9.00">a1</text>
</g>
<!-- S7 -->
<g id="node8" class="node">
<title>S7</title>
<polygon fill="lightblue" stroke="black" points="272,-559 218,-559 218,-519 272,-519 272,-559"/>
<path fill="#add8e6" stroke="none" d="M237.54,-523C237.54,-523 252.46,-523 252.46,-523 257.79,-523 263.12,-528.33 263.12,-533.67 263.12,-533.67 263.12,-544.33 263.12,-544.33 263.12,-549.67 257.79,-555 252.46,-555 252.46,-555 237.54,-555 237.54,-555 232.21,-555 226.88,-549.67 226.88,-544.33 226.88,-544.33 226.88,-533.67 226.88,-533.67 226.88,-528.33 232.21,-523 237.54,-523"/>
<text text-anchor="start" x="238.62" y="-541.6" font-family="Times,serif" font-size="12.00">S7</text>
<text text-anchor="start" x="228.88" y="-527.15" font-family="Times,serif" font-size="8.00">t1&#39;, init, b&#39;</text>
<polygon fill="black" stroke="black" points="226.88,-536.75 226.88,-536.75 263.12,-536.75 263.12,-536.75 226.88,-536.75"/>
</g>
<!-- S3&#45;&gt;S7 -->
<g id="edge7" class="edge">
<title>S3&#45;&gt;S7</title>
<path fill="none" stroke="black" d="M197.07,-605.33C205.02,-594.49 215.11,-580.73 223.98,-568.64"/>
<polygon fill="black" stroke="black" points="226.78,-570.74 229.88,-560.61 221.14,-566.6 226.78,-570.74"/>
<text text-anchor="middle" x="222.25" y="-578.95" font-family="Times,serif" font-size="9.00">b2&#39;</text>
</g>
<!-- S6 -->
<g id="node7" class="node">
<title>S6</title>
<polygon fill="lightgrey" stroke="black" points="170,-472.5 102,-472.5 102,-432.5 170,-432.5 170,-472.5"/>
<path fill="#d3d3d3" stroke="none" d="M120.67,-436.5C120.67,-436.5 151.33,-436.5 151.33,-436.5 156.67,-436.5 162,-441.83 162,-447.17 162,-447.17 162,-457.83 162,-457.83 162,-463.17 156.67,-468.5 151.33,-468.5 151.33,-468.5 120.67,-468.5 120.67,-468.5 115.33,-468.5 110,-463.17 110,-457.83 110,-457.83 110,-447.17 110,-447.17 110,-441.83 115.33,-436.5 120.67,-436.5"/>
<text text-anchor="start" x="129.62" y="-455.1" font-family="Times,serif" font-size="12.00">S6</text>
<text text-anchor="start" x="112" y="-440.65" font-family="Times,serif" font-size="8.00">a&#39;, t2&#39;, b, t1, t1&#39;</text>
<polygon fill="black" stroke="black" points="110,-450.25 110,-450.25 162,-450.25 162,-450.25 110,-450.25"/>
</g>
<!-- S4&#45;&gt;S6 -->
<g id="edge8" class="edge">
<title>S4&#45;&gt;S6</title>
<path fill="none" stroke="black" d="M155.33,-518.83C152.25,-508.42 148.37,-495.32 144.9,-483.59"/>
<polygon fill="black" stroke="black" points="148.36,-482.94 142.17,-474.34 141.65,-484.92 148.36,-482.94"/>
<text text-anchor="middle" x="153.5" y="-492.45" font-family="Times,serif" font-size="9.00">b2</text>
</g>
<!-- S8 -->
<g id="node9" class="node">
<title>S8</title>
<polygon fill="lightblue" stroke="black" points="254.25,-472.5 187.75,-472.5 187.75,-432.5 254.25,-432.5 254.25,-472.5"/>
<path fill="#add8e6" stroke="none" d="M206.42,-436.5C206.42,-436.5 235.58,-436.5 235.58,-436.5 240.92,-436.5 246.25,-441.83 246.25,-447.17 246.25,-447.17 246.25,-457.83 246.25,-457.83 246.25,-463.17 240.92,-468.5 235.58,-468.5 235.58,-468.5 206.42,-468.5 206.42,-468.5 201.08,-468.5 195.75,-463.17 195.75,-457.83 195.75,-457.83 195.75,-447.17 195.75,-447.17 195.75,-441.83 201.08,-436.5 206.42,-436.5"/>
<text text-anchor="start" x="214.62" y="-455.1" font-family="Times,serif" font-size="12.00">S8</text>
<text text-anchor="start" x="197.75" y="-440.65" font-family="Times,serif" font-size="8.00">t2, t1, a, t1&#39;, b&#39;</text>
<polygon fill="black" stroke="black" points="195.75,-450.25 195.75,-450.25 246.25,-450.25 246.25,-450.25 195.75,-450.25"/>
</g>
<!-- S4&#45;&gt;S8 -->
<g id="edge9" class="edge">
<title>S4&#45;&gt;S8</title>
<path fill="none" stroke="black" d="M174.61,-518.83C182.31,-507.99 192.08,-494.23 200.66,-482.14"/>
<polygon fill="black" stroke="black" points="203.42,-484.31 206.35,-474.13 197.71,-480.25 203.42,-484.31"/>
<text text-anchor="middle" x="199.25" y="-492.45" font-family="Times,serif" font-size="9.00">b2&#39;</text>
</g>
<!-- S5&#45;&gt;S6 -->
<g id="edge10" class="edge">
<title>S5&#45;&gt;S6</title>
<path fill="none" stroke="black" d="M90.39,-518.83C97.95,-507.99 107.56,-494.23 116,-482.14"/>
<polygon fill="black" stroke="black" points="118.74,-484.33 121.59,-474.13 113,-480.33 118.74,-484.33"/>
<text text-anchor="middle" x="114.88" y="-492.45" font-family="Times,serif" font-size="9.00">a1&#39;</text>
</g>
<!-- S10 -->
<g id="node11" class="node">
<title>S10</title>
<polygon fill="lightblue" stroke="black" points="84,-472.5 30,-472.5 30,-432.5 84,-432.5 84,-472.5"/>
<path fill="#add8e6" stroke="none" d="M51.04,-436.5C51.04,-436.5 62.96,-436.5 62.96,-436.5 68.29,-436.5 73.62,-441.83 73.62,-447.17 73.62,-447.17 73.62,-457.83 73.62,-457.83 73.62,-463.17 68.29,-468.5 62.96,-468.5 62.96,-468.5 51.04,-468.5 51.04,-468.5 45.71,-468.5 40.38,-463.17 40.38,-457.83 40.38,-457.83 40.38,-447.17 40.38,-447.17 40.38,-441.83 45.71,-436.5 51.04,-436.5"/>
<text text-anchor="start" x="47.62" y="-455.1" font-family="Times,serif" font-size="12.00">S10</text>
<text text-anchor="start" x="42.38" y="-440.65" font-family="Times,serif" font-size="8.00">t2, init, b</text>
<polygon fill="black" stroke="black" points="40.38,-450.25 40.38,-450.25 73.62,-450.25 73.62,-450.25 40.38,-450.25"/>
</g>
<!-- S5&#45;&gt;S10 -->
<g id="edge11" class="edge">
<title>S5&#45;&gt;S10</title>
<path fill="none" stroke="black" d="M72.46,-518.83C70.02,-508.53 66.96,-495.59 64.21,-483.95"/>
<polygon fill="black" stroke="black" points="67.65,-483.29 61.94,-474.36 60.84,-484.9 67.65,-483.29"/>
<text text-anchor="middle" x="73.5" y="-492.45" font-family="Times,serif" font-size="9.00">b1</text>
</g>
<!-- S9 -->
<g id="node10" class="node">
<title>S9</title>
<polygon fill="lightblue" stroke="black" points="214,-386 158,-386 158,-346 214,-346 214,-386"/>
<path fill="#add8e6" stroke="none" d="M176.67,-350C176.67,-350 195.33,-350 195.33,-350 200.67,-350 206,-355.33 206,-360.67 206,-360.67 206,-371.33 206,-371.33 206,-376.67 200.67,-382 195.33,-382 195.33,-382 176.67,-382 176.67,-382 171.33,-382 166,-376.67 166,-371.33 166,-371.33 166,-360.67 166,-360.67 166,-355.33 171.33,-350 176.67,-350"/>
<text text-anchor="start" x="179.62" y="-368.6" font-family="Times,serif" font-size="12.00">S9</text>
<text text-anchor="start" x="168" y="-354.15" font-family="Times,serif" font-size="8.00">t1&#39;, t1, b&#39;, b</text>
<polygon fill="black" stroke="black" points="166,-363.75 166,-363.75 206,-363.75 206,-363.75 166,-363.75"/>
</g>
<!-- S6&#45;&gt;S9 -->
<g id="edge12" class="edge">
<title>S6&#45;&gt;S9</title>
<path fill="none" stroke="black" d="M147.35,-432.33C153.69,-421.6 161.74,-408.01 168.84,-396"/>
<polygon fill="black" stroke="black" points="171.67,-398.08 173.76,-387.69 165.65,-394.52 171.67,-398.08"/>
<text text-anchor="middle" x="168.25" y="-405.95" font-family="Times,serif" font-size="9.00">b2&#39;</text>
</g>
<!-- S11 -->
<g id="node12" class="node">
<title>S11</title>
<polygon fill="lightgrey" stroke="black" points="140,-386 72,-386 72,-346 140,-346 140,-386"/>
<path fill="#d3d3d3" stroke="none" d="M90.67,-350C90.67,-350 121.33,-350 121.33,-350 126.67,-350 132,-355.33 132,-360.67 132,-360.67 132,-371.33 132,-371.33 132,-376.67 126.67,-382 121.33,-382 121.33,-382 90.67,-382 90.67,-382 85.33,-382 80,-376.67 80,-371.33 80,-371.33 80,-360.67 80,-360.67 80,-355.33 85.33,-350 90.67,-350"/>
<text text-anchor="start" x="96.62" y="-368.6" font-family="Times,serif" font-size="12.00">S11</text>
<text text-anchor="start" x="82" y="-354.15" font-family="Times,serif" font-size="8.00">a&#39;, t2&#39;, b, t2, t1&#39;</text>
<polygon fill="black" stroke="black" points="80,-363.75 80,-363.75 132,-363.75 132,-363.75 80,-363.75"/>
</g>
<!-- S6&#45;&gt;S11 -->
<g id="edge13" class="edge">
<title>S6&#45;&gt;S11</title>
<path fill="none" stroke="black" d="M129.19,-432.33C125.5,-421.92 120.85,-408.82 116.68,-397.09"/>
<polygon fill="black" stroke="black" points="120.03,-396.07 113.39,-387.82 113.44,-398.41 120.03,-396.07"/>
<text text-anchor="middle" x="126.5" y="-405.95" font-family="Times,serif" font-size="9.00">b1</text>
</g>
<!-- S7&#45;&gt;S8 -->
<g id="edge14" class="edge">
<title>S7&#45;&gt;S8</title>
<path fill="none" stroke="black" d="M239.55,-518.83C236.63,-508.53 232.95,-495.59 229.65,-483.95"/>
<polygon fill="black" stroke="black" points="233.02,-483.01 226.92,-474.35 226.29,-484.92 233.02,-483.01"/>
<text text-anchor="middle" x="238.12" y="-492.45" font-family="Times,serif" font-size="9.00">a1</text>
</g>
<!-- S13 -->
<g id="node14" class="node">
<title>S13</title>
<polygon fill="lightblue" stroke="black" points="326,-472.5 272,-472.5 272,-432.5 326,-432.5 326,-472.5"/>
<path fill="#add8e6" stroke="none" d="M291.54,-436.5C291.54,-436.5 306.46,-436.5 306.46,-436.5 311.79,-436.5 317.12,-441.83 317.12,-447.17 317.12,-447.17 317.12,-457.83 317.12,-457.83 317.12,-463.17 311.79,-468.5 306.46,-468.5 306.46,-468.5 291.54,-468.5 291.54,-468.5 286.21,-468.5 280.88,-463.17 280.88,-457.83 280.88,-457.83 280.88,-447.17 280.88,-447.17 280.88,-441.83 286.21,-436.5 291.54,-436.5"/>
<text text-anchor="start" x="289.62" y="-455.1" font-family="Times,serif" font-size="12.00">S13</text>
<text text-anchor="start" x="282.88" y="-440.65" font-family="Times,serif" font-size="8.00">init, t2&#39;, b&#39;</text>
<polygon fill="black" stroke="black" points="280.88,-450.25 280.88,-450.25 317.12,-450.25 317.12,-450.25 280.88,-450.25"/>
</g>
<!-- S7&#45;&gt;S13 -->
<g id="edge15" class="edge">
<title>S7&#45;&gt;S13</title>
<path fill="none" stroke="black" d="M257.25,-518.83C264.11,-508.1 272.79,-494.51 280.47,-482.5"/>
<polygon fill="black" stroke="black" points="283.36,-484.48 285.79,-474.17 277.46,-480.71 283.36,-484.48"/>
<text text-anchor="middle" x="280.25" y="-492.45" font-family="Times,serif" font-size="9.00">b1&#39;</text>
</g>
<!-- S8&#45;&gt;S9 -->
<g id="edge16" class="edge">
<title>S8&#45;&gt;S9</title>
<path fill="none" stroke="black" d="M213.06,-432.33C208.7,-421.81 203.21,-408.55 198.31,-396.73"/>
<polygon fill="black" stroke="black" points="201.67,-395.69 194.61,-387.79 195.2,-398.37 201.67,-395.69"/>
<text text-anchor="middle" x="209.5" y="-405.95" font-family="Times,serif" font-size="9.00">b2</text>
</g>
<!-- S14 -->
<g id="node15" class="node">
<title>S14</title>
<polygon fill="lightgrey" stroke="black" points="298.25,-386 231.75,-386 231.75,-346 298.25,-346 298.25,-386"/>
<path fill="#d3d3d3" stroke="none" d="M250.42,-350C250.42,-350 279.58,-350 279.58,-350 284.92,-350 290.25,-355.33 290.25,-360.67 290.25,-360.67 290.25,-371.33 290.25,-371.33 290.25,-376.67 284.92,-382 279.58,-382 279.58,-382 250.42,-382 250.42,-382 245.08,-382 239.75,-376.67 239.75,-371.33 239.75,-371.33 239.75,-360.67 239.75,-360.67 239.75,-355.33 245.08,-350 250.42,-350"/>
<text text-anchor="start" x="255.62" y="-368.6" font-family="Times,serif" font-size="12.00">S14</text>
<text text-anchor="start" x="241.75" y="-354.15" font-family="Times,serif" font-size="8.00">t2&#39;, t2, t1, a, b&#39;</text>
<polygon fill="black" stroke="black" points="239.75,-363.75 239.75,-363.75 290.25,-363.75 290.25,-363.75 239.75,-363.75"/>
</g>
<!-- S8&#45;&gt;S14 -->
<g id="edge17" class="edge">
<title>S8&#45;&gt;S14</title>
<path fill="none" stroke="black" d="M230.98,-432.33C236.51,-421.71 243.51,-408.28 249.71,-396.36"/>
<polygon fill="black" stroke="black" points="252.69,-398.22 254.2,-387.73 246.48,-394.99 252.69,-398.22"/>
<text text-anchor="middle" x="250.25" y="-405.95" font-family="Times,serif" font-size="9.00">b1&#39;</text>
</g>
<!-- S12 -->
<g id="node13" class="node">
<title>S12</title>
<polygon fill="lightgrey" stroke="black" points="160,-299.5 104,-299.5 104,-259.5 160,-259.5 160,-299.5"/>
<path fill="#d3d3d3" stroke="none" d="M122.67,-263.5C122.67,-263.5 141.33,-263.5 141.33,-263.5 146.67,-263.5 152,-268.83 152,-274.17 152,-274.17 152,-284.83 152,-284.83 152,-290.17 146.67,-295.5 141.33,-295.5 141.33,-295.5 122.67,-295.5 122.67,-295.5 117.33,-295.5 112,-290.17 112,-284.83 112,-284.83 112,-274.17 112,-274.17 112,-268.83 117.33,-263.5 122.67,-263.5"/>
<text text-anchor="start" x="122.62" y="-282.1" font-family="Times,serif" font-size="12.00">S12</text>
<text text-anchor="start" x="114" y="-267.65" font-family="Times,serif" font-size="8.00">t1&#39;, t2, b&#39;, b</text>
<polygon fill="black" stroke="black" points="112,-277.25 112,-277.25 152,-277.25 152,-277.25 112,-277.25"/>
</g>
<!-- S9&#45;&gt;S12 -->
<g id="edge18" class="edge">
<title>S9&#45;&gt;S12</title>
<path fill="none" stroke="black" d="M173.75,-345.83C166.89,-335.1 158.21,-321.51 150.53,-309.5"/>
<polygon fill="black" stroke="black" points="153.54,-307.71 145.21,-301.17 147.64,-311.48 153.54,-307.71"/>
<text text-anchor="middle" x="166.5" y="-319.45" font-family="Times,serif" font-size="9.00">b1</text>
</g>
<!-- S15 -->
<g id="node16" class="node">
<title>S15</title>
<polygon fill="lightblue" stroke="black" points="234,-299.5 178,-299.5 178,-259.5 234,-259.5 234,-299.5"/>
<path fill="#add8e6" stroke="none" d="M196.67,-263.5C196.67,-263.5 215.33,-263.5 215.33,-263.5 220.67,-263.5 226,-268.83 226,-274.17 226,-274.17 226,-284.83 226,-284.83 226,-290.17 220.67,-295.5 215.33,-295.5 215.33,-295.5 196.67,-295.5 196.67,-295.5 191.33,-295.5 186,-290.17 186,-284.83 186,-284.83 186,-274.17 186,-274.17 186,-268.83 191.33,-263.5 196.67,-263.5"/>
<text text-anchor="start" x="196.62" y="-282.1" font-family="Times,serif" font-size="12.00">S15</text>
<text text-anchor="start" x="188" y="-267.65" font-family="Times,serif" font-size="8.00">t2&#39;, t1, b&#39;, b</text>
<polygon fill="black" stroke="black" points="186,-277.25 186,-277.25 226,-277.25 226,-277.25 186,-277.25"/>
</g>
<!-- S9&#45;&gt;S15 -->
<g id="edge19" class="edge">
<title>S9&#45;&gt;S15</title>
<path fill="none" stroke="black" d="M190.54,-345.83C192.98,-335.53 196.04,-322.59 198.79,-310.95"/>
<polygon fill="black" stroke="black" points="202.16,-311.9 201.06,-301.36 195.35,-310.29 202.16,-311.9"/>
<text text-anchor="middle" x="202.25" y="-319.45" font-family="Times,serif" font-size="9.00">b1&#39;</text>
</g>
<!-- S10&#45;&gt;S11 -->
<g id="edge20" class="edge">
<title>S10&#45;&gt;S11</title>
<path fill="none" stroke="black" d="M68.12,-432.33C74.34,-421.6 82.22,-408.01 89.18,-396"/>
<polygon fill="black" stroke="black" points="92.01,-398.11 94,-387.7 85.95,-394.6 92.01,-398.11"/>
<text text-anchor="middle" x="89.88" y="-405.95" font-family="Times,serif" font-size="9.00">a1&#39;</text>
</g>
<!-- S17 -->
<g id="node18" class="node">
<title>S17</title>
<polygon fill="lightblue" stroke="black" points="54,-386 0,-386 0,-346 54,-346 54,-386"/>
<path fill="#add8e6" stroke="none" d="M23.21,-350C23.21,-350 30.79,-350 30.79,-350 34.58,-350 38.38,-353.79 38.38,-357.58 38.38,-357.58 38.38,-374.42 38.38,-374.42 38.38,-378.21 34.58,-382 30.79,-382 30.79,-382 23.21,-382 23.21,-382 19.42,-382 15.62,-378.21 15.62,-374.42 15.62,-374.42 15.62,-357.58 15.62,-357.58 15.62,-353.79 19.42,-350 23.21,-350"/>
<text text-anchor="start" x="17.62" y="-368.6" font-family="Times,serif" font-size="12.00">S17</text>
<text text-anchor="start" x="17.62" y="-354.15" font-family="Times,serif" font-size="8.00">init, a</text>
<polygon fill="black" stroke="black" points="15.62,-363.75 15.62,-363.75 38.38,-363.75 38.38,-363.75 15.62,-363.75"/>
</g>
<!-- S10&#45;&gt;S17 -->
<g id="edge21" class="edge">
<title>S10&#45;&gt;S17</title>
<path fill="none" stroke="black" d="M50.19,-432.33C46.5,-421.92 41.85,-408.82 37.68,-397.09"/>
<polygon fill="black" stroke="black" points="41.03,-396.07 34.39,-387.82 34.44,-398.41 41.03,-396.07"/>
<text text-anchor="middle" x="48.12" y="-405.95" font-family="Times,serif" font-size="9.00">a2</text>
</g>
<!-- S11&#45;&gt;S12 -->
<g id="edge22" class="edge">
<title>S11&#45;&gt;S12</title>
<path fill="none" stroke="black" d="M111.9,-345.83C115.1,-335.42 119.13,-322.32 122.74,-310.59"/>
<polygon fill="black" stroke="black" points="125.99,-311.92 125.59,-301.34 119.3,-309.87 125.99,-311.92"/>
<text text-anchor="middle" x="125.25" y="-319.45" font-family="Times,serif" font-size="9.00">b2&#39;</text>
</g>
<!-- S18 -->
<g id="node19" class="node">
<title>S18</title>
<polygon fill="lightgrey" stroke="black" points="85.75,-299.5 28.25,-299.5 28.25,-259.5 85.75,-259.5 85.75,-299.5"/>
<path fill="#d3d3d3" stroke="none" d="M46.92,-263.5C46.92,-263.5 67.08,-263.5 67.08,-263.5 72.42,-263.5 77.75,-268.83 77.75,-274.17 77.75,-274.17 77.75,-284.83 77.75,-284.83 77.75,-290.17 72.42,-295.5 67.08,-295.5 67.08,-295.5 46.92,-295.5 46.92,-295.5 41.58,-295.5 36.25,-290.17 36.25,-284.83 36.25,-284.83 36.25,-274.17 36.25,-274.17 36.25,-268.83 41.58,-263.5 46.92,-263.5"/>
<text text-anchor="start" x="47.62" y="-282.1" font-family="Times,serif" font-size="12.00">S18</text>
<text text-anchor="start" x="38.25" y="-267.65" font-family="Times,serif" font-size="8.00">a&#39;, t2&#39;, t1&#39;, a</text>
<polygon fill="black" stroke="black" points="36.25,-277.25 36.25,-277.25 77.75,-277.25 77.75,-277.25 36.25,-277.25"/>
</g>
<!-- S11&#45;&gt;S18 -->
<g id="edge23" class="edge">
<title>S11&#45;&gt;S18</title>
<path fill="none" stroke="black" d="M94.88,-345.83C88.66,-335.1 80.78,-321.51 73.82,-309.5"/>
<polygon fill="black" stroke="black" points="77.05,-308.1 69,-301.2 70.99,-311.61 77.05,-308.1"/>
<text text-anchor="middle" x="89.12" y="-319.45" font-family="Times,serif" font-size="9.00">a2</text>
</g>
<!-- S16 -->
<g id="node17" class="node">
<title>S16</title>
<polygon fill="lightblue" stroke="black" points="179,-213 123,-213 123,-173 179,-173 179,-213"/>
<path fill="#add8e6" stroke="none" d="M141.67,-177C141.67,-177 160.33,-177 160.33,-177 165.67,-177 171,-182.33 171,-187.67 171,-187.67 171,-198.33 171,-198.33 171,-203.67 165.67,-209 160.33,-209 160.33,-209 141.67,-209 141.67,-209 136.33,-209 131,-203.67 131,-198.33 131,-198.33 131,-187.67 131,-187.67 131,-182.33 136.33,-177 141.67,-177"/>
<text text-anchor="start" x="141.62" y="-195.6" font-family="Times,serif" font-size="12.00">S16</text>
<text text-anchor="start" x="133" y="-181.15" font-family="Times,serif" font-size="8.00">t2, t2&#39;, b&#39;, b</text>
<polygon fill="black" stroke="black" points="131,-190.75 131,-190.75 171,-190.75 171,-190.75 131,-190.75"/>
</g>
<!-- S12&#45;&gt;S16 -->
<g id="edge24" class="edge">
<title>S12&#45;&gt;S16</title>
<path fill="none" stroke="black" d="M136.31,-259.33C138.63,-249.03 141.54,-236.09 144.15,-224.45"/>
<polygon fill="black" stroke="black" points="147.53,-225.39 146.31,-214.87 140.7,-223.86 147.53,-225.39"/>
<text text-anchor="middle" x="147.25" y="-232.95" font-family="Times,serif" font-size="9.00">b1&#39;</text>
</g>
<!-- S19 -->
<g id="node20" class="node">
<title>S19</title>
<polygon fill="lightgrey" stroke="black" points="105,-213 51,-213 51,-173 105,-173 105,-213"/>
<path fill="#d3d3d3" stroke="none" d="M73.08,-177C73.08,-177 82.92,-177 82.92,-177 87.83,-177 92.75,-181.92 92.75,-186.83 92.75,-186.83 92.75,-199.17 92.75,-199.17 92.75,-204.08 87.83,-209 82.92,-209 82.92,-209 73.08,-209 73.08,-209 68.17,-209 63.25,-204.08 63.25,-199.17 63.25,-199.17 63.25,-186.83 63.25,-186.83 63.25,-181.92 68.17,-177 73.08,-177"/>
<text text-anchor="start" x="68.62" y="-195.6" font-family="Times,serif" font-size="12.00">S19</text>
<text text-anchor="start" x="65.25" y="-181.15" font-family="Times,serif" font-size="8.00">t1&#39;, b&#39;, a</text>
<polygon fill="black" stroke="black" points="63.25,-190.75 63.25,-190.75 92.75,-190.75 92.75,-190.75 63.25,-190.75"/>
</g>
<!-- S12&#45;&gt;S19 -->
<g id="edge25" class="edge">
<title>S12&#45;&gt;S19</title>
<path fill="none" stroke="black" d="M119.75,-259.33C112.89,-248.6 104.21,-235.01 96.53,-223"/>
<polygon fill="black" stroke="black" points="99.54,-221.21 91.21,-214.67 93.64,-224.98 99.54,-221.21"/>
<text text-anchor="middle" x="112.12" y="-232.95" font-family="Times,serif" font-size="9.00">a2</text>
</g>
<!-- S13&#45;&gt;S14 -->
<g id="edge26" class="edge">
<title>S13&#45;&gt;S14</title>
<path fill="none" stroke="black" d="M291.28,-432.33C287.05,-421.81 281.72,-408.55 276.96,-396.73"/>
<polygon fill="black" stroke="black" points="280.35,-395.77 273.37,-387.8 273.85,-398.38 280.35,-395.77"/>
<text text-anchor="middle" x="288.12" y="-405.95" font-family="Times,serif" font-size="9.00">a1</text>
</g>
<!-- S21 -->
<g id="node22" class="node">
<title>S21</title>
<polygon fill="lightblue" stroke="black" points="370,-386 316,-386 316,-346 370,-346 370,-386"/>
<path fill="#add8e6" stroke="none" d="M338.96,-350C338.96,-350 347.04,-350 347.04,-350 351.08,-350 355.12,-354.04 355.12,-358.08 355.12,-358.08 355.12,-373.92 355.12,-373.92 355.12,-377.96 351.08,-382 347.04,-382 347.04,-382 338.96,-382 338.96,-382 334.92,-382 330.88,-377.96 330.88,-373.92 330.88,-373.92 330.88,-358.08 330.88,-358.08 330.88,-354.04 334.92,-350 338.96,-350"/>
<text text-anchor="start" x="333.62" y="-368.6" font-family="Times,serif" font-size="12.00">S21</text>
<text text-anchor="start" x="332.88" y="-354.15" font-family="Times,serif" font-size="8.00">a&#39;, init</text>
<polygon fill="black" stroke="black" points="330.88,-363.75 330.88,-363.75 355.12,-363.75 355.12,-363.75 330.88,-363.75"/>
</g>
<!-- S13&#45;&gt;S21 -->
<g id="edge27" class="edge">
<title>S13&#45;&gt;S21</title>
<path fill="none" stroke="black" d="M308.98,-432.33C314.51,-421.71 321.51,-408.28 327.71,-396.36"/>
<polygon fill="black" stroke="black" points="330.69,-398.22 332.2,-387.73 324.48,-394.99 330.69,-398.22"/>
<text text-anchor="middle" x="327.88" y="-405.95" font-family="Times,serif" font-size="9.00">a2&#39;</text>
</g>
<!-- S14&#45;&gt;S15 -->
<g id="edge28" class="edge">
<title>S14&#45;&gt;S15</title>
<path fill="none" stroke="black" d="M251.61,-345.83C244.05,-334.99 234.44,-321.23 226,-309.14"/>
<polygon fill="black" stroke="black" points="229,-307.33 220.41,-301.13 223.26,-311.33 229,-307.33"/>
<text text-anchor="middle" x="243.5" y="-319.45" font-family="Times,serif" font-size="9.00">b2</text>
</g>
<!-- S22 -->
<g id="node23" class="node">
<title>S22</title>
<polygon fill="lightgrey" stroke="black" points="306.25,-299.5 251.75,-299.5 251.75,-259.5 306.25,-259.5 306.25,-299.5"/>
<path fill="#d3d3d3" stroke="none" d="M270.42,-263.5C270.42,-263.5 287.58,-263.5 287.58,-263.5 292.92,-263.5 298.25,-268.83 298.25,-274.17 298.25,-274.17 298.25,-284.83 298.25,-284.83 298.25,-290.17 292.92,-295.5 287.58,-295.5 287.58,-295.5 270.42,-295.5 270.42,-295.5 265.08,-295.5 259.75,-290.17 259.75,-284.83 259.75,-284.83 259.75,-274.17 259.75,-274.17 259.75,-268.83 265.08,-263.5 270.42,-263.5"/>
<text text-anchor="start" x="269.62" y="-282.1" font-family="Times,serif" font-size="12.00">S22</text>
<text text-anchor="start" x="261.75" y="-267.65" font-family="Times,serif" font-size="8.00">a&#39;, t2, t1, a</text>
<polygon fill="black" stroke="black" points="259.75,-277.25 259.75,-277.25 298.25,-277.25 298.25,-277.25 259.75,-277.25"/>
</g>
<!-- S14&#45;&gt;S22 -->
<g id="edge29" class="edge">
<title>S14&#45;&gt;S22</title>
<path fill="none" stroke="black" d="M268.18,-345.83C269.88,-335.53 272.03,-322.59 273.95,-310.95"/>
<polygon fill="black" stroke="black" points="277.36,-311.82 275.54,-301.38 270.45,-310.68 277.36,-311.82"/>
<text text-anchor="middle" x="276.88" y="-319.45" font-family="Times,serif" font-size="9.00">a2&#39;</text>
</g>
<!-- S15&#45;&gt;S16 -->
<g id="edge30" class="edge">
<title>S15&#45;&gt;S16</title>
<path fill="none" stroke="black" d="M193.52,-259.33C186.54,-248.6 177.69,-235.01 169.88,-223"/>
<polygon fill="black" stroke="black" points="172.84,-221.13 164.45,-214.66 166.97,-224.95 172.84,-221.13"/>
<text text-anchor="middle" x="185.5" y="-232.95" font-family="Times,serif" font-size="9.00">b1</text>
</g>
<!-- S23 -->
<g id="node24" class="node">
<title>S23</title>
<polygon fill="lightgrey" stroke="black" points="251,-213 197,-213 197,-173 251,-173 251,-213"/>
<path fill="#d3d3d3" stroke="none" d="M219.33,-177C219.33,-177 228.67,-177 228.67,-177 233.33,-177 238,-181.67 238,-186.33 238,-186.33 238,-199.67 238,-199.67 238,-204.33 233.33,-209 228.67,-209 228.67,-209 219.33,-209 219.33,-209 214.67,-209 210,-204.33 210,-199.67 210,-199.67 210,-186.33 210,-186.33 210,-181.67 214.67,-177 219.33,-177"/>
<text text-anchor="start" x="214.62" y="-195.6" font-family="Times,serif" font-size="12.00">S23</text>
<text text-anchor="start" x="212" y="-181.15" font-family="Times,serif" font-size="8.00">a&#39;, t1, b</text>
<polygon fill="black" stroke="black" points="210,-190.75 210,-190.75 238,-190.75 238,-190.75 210,-190.75"/>
</g>
<!-- S15&#45;&gt;S23 -->
<g id="edge31" class="edge">
<title>S15&#45;&gt;S23</title>
<path fill="none" stroke="black" d="M210.08,-259.33C212.28,-249.03 215.03,-236.09 217.51,-224.45"/>
<polygon fill="black" stroke="black" points="220.89,-225.38 219.55,-214.87 214.05,-223.92 220.89,-225.38"/>
<text text-anchor="middle" x="220.88" y="-232.95" font-family="Times,serif" font-size="9.00">a2&#39;</text>
</g>
<!-- S20 -->
<g id="node21" class="node">
<title>S20</title>
<polygon fill="lightgrey" stroke="black" points="130,-126.5 76,-126.5 76,-86.5 130,-86.5 130,-126.5"/>
<path fill="#d3d3d3" stroke="none" d="M98.08,-90.5C98.08,-90.5 107.92,-90.5 107.92,-90.5 112.83,-90.5 117.75,-95.42 117.75,-100.33 117.75,-100.33 117.75,-112.67 117.75,-112.67 117.75,-117.58 112.83,-122.5 107.92,-122.5 107.92,-122.5 98.08,-122.5 98.08,-122.5 93.17,-122.5 88.25,-117.58 88.25,-112.67 88.25,-112.67 88.25,-100.33 88.25,-100.33 88.25,-95.42 93.17,-90.5 98.08,-90.5"/>
<text text-anchor="start" x="93.62" y="-109.1" font-family="Times,serif" font-size="12.00">S20</text>
<text text-anchor="start" x="90.25" y="-94.65" font-family="Times,serif" font-size="8.00">t2&#39;, b&#39;, a</text>
<polygon fill="black" stroke="black" points="88.25,-104.25 88.25,-104.25 117.75,-104.25 117.75,-104.25 88.25,-104.25"/>
</g>
<!-- S16&#45;&gt;S20 -->
<g id="edge32" class="edge">
<title>S16&#45;&gt;S20</title>
<path fill="none" stroke="black" d="M140.11,-172.83C134.08,-162.21 126.45,-148.78 119.68,-136.86"/>
<polygon fill="black" stroke="black" points="122.75,-135.17 114.76,-128.21 116.66,-138.63 122.75,-135.17"/>
<text text-anchor="middle" x="133.12" y="-146.45" font-family="Times,serif" font-size="9.00">a2</text>
</g>
<!-- S24 -->
<g id="node25" class="node">
<title>S24</title>
<polygon fill="lightblue" stroke="black" points="202,-126.5 148,-126.5 148,-86.5 202,-86.5 202,-126.5"/>
<path fill="#add8e6" stroke="none" d="M170.33,-90.5C170.33,-90.5 179.67,-90.5 179.67,-90.5 184.33,-90.5 189,-95.17 189,-99.83 189,-99.83 189,-113.17 189,-113.17 189,-117.83 184.33,-122.5 179.67,-122.5 179.67,-122.5 170.33,-122.5 170.33,-122.5 165.67,-122.5 161,-117.83 161,-113.17 161,-113.17 161,-99.83 161,-99.83 161,-95.17 165.67,-90.5 170.33,-90.5"/>
<text text-anchor="start" x="165.62" y="-109.1" font-family="Times,serif" font-size="12.00">S24</text>
<text text-anchor="start" x="163" y="-94.65" font-family="Times,serif" font-size="8.00">a&#39;, t2, b</text>
<polygon fill="black" stroke="black" points="161,-104.25 161,-104.25 189,-104.25 189,-104.25 161,-104.25"/>
</g>
<!-- S16&#45;&gt;S24 -->
<g id="edge33" class="edge">
<title>S16&#45;&gt;S24</title>
<path fill="none" stroke="black" d="M156.45,-172.83C159.37,-162.53 163.05,-149.59 166.35,-137.95"/>
<polygon fill="black" stroke="black" points="169.71,-138.92 169.08,-128.35 162.98,-137.01 169.71,-138.92"/>
<text text-anchor="middle" x="168.88" y="-146.45" font-family="Times,serif" font-size="9.00">a2&#39;</text>
</g>
<!-- S17&#45;&gt;S18 -->
<g id="edge34" class="edge">
<title>S17&#45;&gt;S18</title>
<path fill="none" stroke="black" d="M33.81,-345.83C37.5,-335.42 42.15,-322.32 46.32,-310.59"/>
<polygon fill="black" stroke="black" points="49.56,-311.91 49.61,-301.32 42.97,-309.57 49.56,-311.91"/>
<text text-anchor="middle" x="48.88" y="-319.45" font-family="Times,serif" font-size="9.00">a1&#39;</text>
</g>
<!-- S18&#45;&gt;S19 -->
<g id="edge35" class="edge">
<title>S18&#45;&gt;S19</title>
<path fill="none" stroke="black" d="M61.77,-259.33C64.32,-249.03 67.54,-236.09 70.43,-224.45"/>
<polygon fill="black" stroke="black" points="73.8,-225.41 72.82,-214.86 67.01,-223.72 73.8,-225.41"/>
<text text-anchor="middle" x="74.25" y="-232.95" font-family="Times,serif" font-size="9.00">b2&#39;</text>
</g>
<!-- S19&#45;&gt;S20 -->
<g id="edge36" class="edge">
<title>S19&#45;&gt;S20</title>
<path fill="none" stroke="black" d="M83.67,-172.83C86.75,-162.42 90.63,-149.32 94.1,-137.59"/>
<polygon fill="black" stroke="black" points="97.35,-138.92 96.83,-128.34 90.64,-136.94 97.35,-138.92"/>
<text text-anchor="middle" x="97.25" y="-146.45" font-family="Times,serif" font-size="9.00">b1&#39;</text>
</g>
<!-- S25 -->
<g id="node26" class="node">
<title>S25</title>
<polygon fill="lightblue" stroke="black" points="165,-40 111,-40 111,0 165,0 165,-40"/>
<path fill="#add8e6" stroke="none" d="M134.21,-4C134.21,-4 141.79,-4 141.79,-4 145.58,-4 149.38,-7.79 149.38,-11.58 149.38,-11.58 149.38,-28.42 149.38,-28.42 149.38,-32.21 145.58,-36 141.79,-36 141.79,-36 134.21,-36 134.21,-36 130.42,-36 126.62,-32.21 126.62,-28.42 126.62,-28.42 126.62,-11.58 126.62,-11.58 126.62,-7.79 130.42,-4 134.21,-4"/>
<text text-anchor="start" x="128.62" y="-22.6" font-family="Times,serif" font-size="12.00">S25</text>
<text text-anchor="start" x="131.25" y="-8.15" font-family="Times,serif" font-size="8.00">a&#39;, a</text>
<polygon fill="black" stroke="black" points="126.62,-17.75 126.62,-17.75 149.38,-17.75 149.38,-17.75 126.62,-17.75"/>
</g>
<!-- S20&#45;&gt;S25 -->
<g id="edge37" class="edge">
<title>S20&#45;&gt;S25</title>
<path fill="none" stroke="black" d="M110.94,-86.33C115.3,-75.81 120.79,-62.55 125.69,-50.73"/>
<polygon fill="black" stroke="black" points="128.8,-52.37 129.39,-41.79 122.33,-49.69 128.8,-52.37"/>
<text text-anchor="middle" x="126.88" y="-59.95" font-family="Times,serif" font-size="9.00">a2&#39;</text>
</g>
<!-- S21&#45;&gt;S22 -->
<g id="edge38" class="edge">
<title>S21&#45;&gt;S22</title>
<path fill="none" stroke="black" d="M328.48,-345.83C320.19,-334.88 309.65,-320.96 300.42,-308.78"/>
<polygon fill="black" stroke="black" points="303.43,-306.96 294.6,-301.1 297.85,-311.18 303.43,-306.96"/>
<text text-anchor="middle" x="318.12" y="-319.45" font-family="Times,serif" font-size="9.00">a1</text>
</g>
<!-- S22&#45;&gt;S23 -->
<g id="edge39" class="edge">
<title>S22&#45;&gt;S23</title>
<path fill="none" stroke="black" d="M266.52,-259.33C259.54,-248.6 250.69,-235.01 242.88,-223"/>
<polygon fill="black" stroke="black" points="245.84,-221.13 237.45,-214.66 239.97,-224.95 245.84,-221.13"/>
<text text-anchor="middle" x="258.5" y="-232.95" font-family="Times,serif" font-size="9.00">b2</text>
</g>
<!-- S23&#45;&gt;S24 -->
<g id="edge40" class="edge">
<title>S23&#45;&gt;S24</title>
<path fill="none" stroke="black" d="M212.88,-172.83C206.66,-162.1 198.78,-148.51 191.82,-136.5"/>
<polygon fill="black" stroke="black" points="195.05,-135.1 187,-128.2 188.99,-138.61 195.05,-135.1"/>
<text text-anchor="middle" x="206.5" y="-146.45" font-family="Times,serif" font-size="9.00">b1</text>
</g>
<!-- S24&#45;&gt;S25 -->
<g id="edge41" class="edge">
<title>S24&#45;&gt;S25</title>
<path fill="none" stroke="black" d="M166.6,-86.33C162,-75.81 156.19,-62.55 151.02,-50.73"/>
<polygon fill="black" stroke="black" points="154.32,-49.53 147.1,-41.78 147.9,-52.34 154.32,-49.53"/>
<text text-anchor="middle" x="162.12" y="-59.95" font-family="Times,serif" font-size="9.00">a2</text>
</g>
</g>
</svg>
